Cabin-RegularCondensed.ufo
<glyph name="exclam" format="2">
  <advance width="464"/>
  <unicode hex="0021"/>
  <outline>
    <contour>
      <point x="152" y="340" type="line"/>
      <point x="312" y="340" type="line"/>
      <point x="312" y="392" type="line"/>
      <point x="348" y="1400" type="line"/>
      <point x="116" y="1400" type="line"/>
      <point x="152" y="392" type="line"/>
    </contour>
    <contour>
      <point x="132" y="0" type="line"/>
      <point x="332" y="0" type="line"/>
      <point x="332" y="212" type="line"/>
      <point x="132" y="212" type="line"/>
    </contour>
  </outline>
</glyph>
<glyph name="numbersign" format="2">
  <advance width="1234"/>
  <unicode hex="0023"/>
  <outline>
    <contour>
      <point x="116" y="-22" type="line"/>
      <point x="264" y="-22" type="line"/>
      <point x="412" y="432" type="line"/>
      <point x="626" y="432" type="line"/>
      <point x="480" y="-22" type="line"/>
      <point x="630" y="-22" type="line"/>
      <point x="776" y="432" type="line"/>
      <point x="982" y="432" type="line"/>
      <point x="1052" y="600" type="line"/>
      <point x="834" y="600" type="line"/>
      <point x="912" y="846" type="line"/>
      <point x="1110" y="846" type="line"/>
      <point x="1162" y="1014" type="line"/>
      <point x="970" y="1014" type="line"/>
      <point x="1096" y="1400" type="line"/>
      <point x="946" y="1400" type="line"/>
      <point x="820" y="1014" type="line"/>
      <point x="606" y="1014" type="line"/>
      <point x="732" y="1400" type="line"/>
      <point x="584" y="1400" type="line"/>
      <point x="458" y="1014" type="line"/>
      <point x="238" y="1014" type="line"/>
      <point x="186" y="846" type="line"/>
      <point x="398" y="846" type="line"/>
      <point x="322" y="600" type="line"/>
      <point x="126" y="600" type="line"/>
      <point x="58" y="432" type="line"/>
      <point x="262" y="432" type="line"/>
    </contour>
    <contour>
      <point x="470" y="600" type="line"/>
      <point x="548" y="846" type="line"/>
      <point x="762" y="846" type="line"/>
      <point x="682" y="600" type="line"/>
    </contour>
  </outline>
</glyph>
<glyph name="ampersand" format="2">
  <advance width="1080"/>
  <unicode hex="0026"/>
  <outline>
    <contour>
      <point x="456" y="-46" type="curve" smooth="yes"/>
      <point x="592" y="-46"/>
      <point x="686" y="-12"/>
      <point x="778" y="92" type="curve"/>
      <point x="844" y="0" type="line"/>
      <point x="1040" y="0" type="line"/>
      <point x="876" y="200" type="line"/>
      <point x="960" y="368"/>
      <point x="974" y="584"/>
      <point x="976" y="702" type="curve"/>
      <point x="810" y="702" type="line"/>
      <point x="808" y="618"/>
      <point x="800" y="394"/>
      <point x="764" y="322" type="curve"/>
      <point x="474" y="712" type="line"/>
      <point x="604" y="812"/>
      <point x="740" y="960"/>
      <point x="740" y="1154" type="curve" smooth="yes"/>
      <point x="740" y="1296"/>
      <point x="654" y="1406"/>
      <point x="482" y="1406" type="curve" smooth="yes"/>
      <point x="300" y="1406"/>
      <point x="140" y="1282"/>
      <point x="140" y="1072" type="curve" smooth="yes"/>
      <point x="140" y="980"/>
      <point x="184" y="874"/>
      <point x="270" y="732" type="curve"/>
      <point x="134" y="606"/>
      <point x="56" y="478"/>
      <point x="56" y="324" type="curve" smooth="yes"/>
      <point x="56" y="120"/>
      <point x="174" y="-46"/>
    </contour>
    <contour>
      <point x="470" y="90" type="curve" smooth="yes"/>
      <point x="298" y="90"/>
      <point x="236" y="202"/>
      <point x="236" y="338" type="curve" smooth="yes"/>
      <point x="236" y="456"/>
      <point x="284" y="560"/>
      <point x="354" y="626" type="curve"/>
      <point x="686" y="210" type="line"/>
      <point x="638" y="138"/>
      <point x="572" y="90"/>
    </contour>
    <contour>
      <point x="398" y="812" type="curve"/>
      <point x="330" y="922"/>
      <point x="310" y="1008"/>
      <point x="310" y="1068" type="curve" smooth="yes"/>
      <point x="310" y="1202"/>
      <point x="382" y="1268"/>
      <point x="466" y="1268" type="curve" smooth="yes"/>
      <point x="538" y="1268"/>
      <point x="586" y="1214"/>
      <point x="586" y="1118" type="curve" smooth="yes"/>
      <point x="586" y="996"/>
      <point x="510" y="934"/>
    </contour>
  </outline>
</glyph>
<glyph name="quotesingle" format="2">
  <advance width="308"/>
  <unicode hex="0027"/>
  <outline>
    <contour>
      <point x="94" y="980" type="line"/>
      <point x="214" y="980" type="line"/>
      <point x="248" y="1400" type="line"/>
      <point x="60" y="1400" type="line"/>
    </contour>
  </outline>
</glyph>
<glyph name="parenleft" format="2">
  <advance width="548"/>
  <unicode hex="0028"/>
  <outline>
    <contour>
      <point x="354" y="-272" type="curve"/>
      <point x="504" y="-272" type="line"/>
      <point x="388" y="-48"/>
      <point x="296" y="232"/>
      <point x="296" y="614" type="curve" smooth="yes"/>
      <point x="296" y="996"/>
      <point x="388" y="1276"/>
      <point x="504" y="1500" type="curve"/>
      <point x="354" y="1500" type="line"/>
      <point x="220" y="1284"/>
      <point x="120" y="1016"/>
      <point x="120" y="614" type="curve" smooth="yes"/>
      <point x="120" y="212"/>
      <point x="220" y="-56"/>
    </contour>
  </outline>
</glyph>
<glyph name="parenright" format="2">
  <advance width="548"/>
  <unicode hex="0029"/>
  <outline>
    <contour>
      <point x="44" y="-272" type="curve"/>
      <point x="194" y="-272" type="line"/>
      <point x="328" y="-56"/>
      <point x="428" y="212"/>
      <point x="428" y="614" type="curve" smooth="yes"/>
      <point x="428" y="1016"/>
      <point x="328" y="1284"/>
      <point x="194" y="1500" type="curve"/>
      <point x="44" y="1500" type="line"/>
      <point x="160" y="1276"/>
      <point x="252" y="996"/>
      <point x="252" y="614" type="curve" smooth="yes"/>
      <point x="252" y="232"/>
      <point x="160" y="-48"/>
    </contour>
  </outline>
</glyph>
<glyph name="asterisk" format="2">
  <advance width="754"/>
  <unicode hex="002A"/>
  <outline>
    <contour>
      <point x="56" y="958" type="line"/>
      <point x="112" y="866" type="line"/>
      <point x="340" y="1036" type="line"/>
      <point x="326" y="754" type="line"/>
      <point x="428" y="754" type="line"/>
      <point x="414" y="1036" type="line"/>
      <point x="642" y="866" type="line"/>
      <point x="698" y="960" type="line"/>
      <point x="454" y="1116" type="line"/>
      <point x="696" y="1272" type="line"/>
      <point x="640" y="1364" type="line"/>
      <point x="414" y="1194" type="line"/>
      <point x="428" y="1480" type="line"/>
      <point x="326" y="1480" type="line"/>
      <point x="340" y="1194" type="line"/>
      <point x="114" y="1366" type="line"/>
      <point x="58" y="1272" type="line"/>
      <point x="302" y="1116" type="line"/>
    </contour>
  </outline>
</glyph>
<glyph name="plus" format="2">
  <advance width="776"/>
  <unicode hex="002B"/>
  <outline>
    <contour>
      <point x="308" y="220" type="line"/>
      <point x="468" y="220" type="line"/>
      <point x="468" y="486" type="line"/>
      <point x="706" y="486" type="line"/>
      <point x="706" y="638" type="line"/>
      <point x="468" y="638" type="line"/>
      <point x="468" y="904" type="line"/>
      <point x="308" y="904" type="line"/>
      <point x="308" y="638" type="line"/>
      <point x="70" y="638" type="line"/>
      <point x="70" y="486" type="line"/>
      <point x="308" y="486" type="line"/>
    </contour>
  </outline>
</glyph>
<glyph name="comma" format="2">
  <advance width="380"/>
  <unicode hex="002C"/>
  <outline>
    <contour>
      <point x="196" y="-214" type="line"/>
      <point x="300" y="20" type="line"/>
      <point x="300" y="212" type="line"/>
      <point x="100" y="212" type="line"/>
      <point x="100" y="0" type="line"/>
      <point x="166" y="0" type="line"/>
      <point x="94" y="-214" type="line"/>
    </contour>
  </outline>
</glyph>
<glyph name="hyphen" format="2">
  <advance width="702"/>
  <unicode hex="002D"/>
  <outline>
    <contour>
      <point x="84" y="536" type="line"/>
      <point x="618" y="536" type="line"/>
      <point x="618" y="708" type="line"/>
      <point x="84" y="708" type="line"/>
    </contour>
  </outline>
</glyph>
<glyph name="period" format="2">
  <advance width="360"/>
  <unicode hex="002E"/>
  <outline>
    <contour>
      <point x="80" y="0" type="line"/>
      <point x="280" y="0" type="line"/>
      <point x="280" y="212" type="line"/>
      <point x="80" y="212" type="line"/>
    </contour>
  </outline>
</glyph>
<glyph name="slash" format="2">
  <advance width="618"/>
  <unicode hex="002F"/>
  <outline>
    <contour>
      <point x="-20" y="-170" type="line"/>
      <point x="162" y="-170" type="line"/>
      <point x="678" y="1400" type="line"/>
      <point x="496" y="1400" type="line"/>
    </contour>
  </outline>
</glyph>
<glyph name="zero" format="2">
  <advance width="1212"/>
  <unicode hex="0030"/>
  <outline>
    <contour>
      <point x="606" y="-28" type="curve" smooth="yes"/>
      <point x="926" y="-28"/>
      <point x="1112" y="280"/>
      <point x="1112" y="712" type="curve" smooth="yes"/>
      <point x="1112" y="1144"/>
      <point x="912" y="1428"/>
      <point x="606" y="1428" type="curve" smooth="yes"/>
      <point x="308" y="1428"/>
      <point x="100" y="1144"/>
      <point x="100" y="712" type="curve" smooth="yes"/>
      <point x="100" y="280"/>
      <point x="288" y="-28"/>
    </contour>
    <contour>
      <point x="606" y="156" type="curve" smooth="yes"/>
      <point x="408" y="156"/>
      <point x="296" y="356"/>
      <point x="296" y="712" type="curve" smooth="yes"/>
      <point x="296" y="1068"/>
      <point x="428" y="1244"/>
      <point x="606" y="1244" type="curve" smooth="yes"/>
      <point x="794" y="1244"/>
      <point x="916" y="1068"/>
      <point x="916" y="712" type="curve" smooth="yes"/>
      <point x="916" y="356"/>
      <point x="804" y="156"/>
    </contour>
  </outline>
</glyph>
<glyph name="one" format="2">
  <advance width="590"/>
  <unicode hex="0031"/>
  <outline>
    <contour>
      <point x="258" y="0" type="line"/>
      <point x="442" y="0" type="line"/>
      <point x="442" y="1400" type="line"/>
      <point x="312" y="1400" type="line"/>
      <point x="260" y="1306"/>
      <point x="150" y="1218"/>
      <point x="56" y="1182" type="curve"/>
      <point x="80" y="1004" type="line"/>
      <point x="128" y="1022"/>
      <point x="186" y="1050"/>
      <point x="258" y="1126" type="curve"/>
    </contour>
  </outline>
</glyph>
<glyph name="two" format="2">
  <advance width="902"/>
  <unicode hex="0032"/>
  <outline>
    <contour>
      <point x="104" y="0" type="line"/>
      <point x="810" y="0" type="line"/>
      <point x="810" y="180" type="line"/>
      <point x="406" y="180" type="line"/>
      <point x="576" y="492" type="line" smooth="yes"/>
      <point x="718" y="752"/>
      <point x="780" y="882"/>
      <point x="780" y="1064" type="curve" smooth="yes"/>
      <point x="780" y="1268"/>
      <point x="654" y="1428"/>
      <point x="422" y="1428" type="curve" smooth="yes"/>
      <point x="314" y="1428"/>
      <point x="210" y="1386"/>
      <point x="128" y="1330" type="curve"/>
      <point x="146" y="1148" type="line"/>
      <point x="218" y="1204"/>
      <point x="302" y="1244"/>
      <point x="394" y="1244" type="curve" smooth="yes"/>
      <point x="510" y="1244"/>
      <point x="584" y="1166"/>
      <point x="584" y="1044" type="curve" smooth="yes"/>
      <point x="584" y="910"/>
      <point x="534" y="790"/>
      <point x="420" y="580" type="curve" smooth="yes"/>
    </contour>
  </outline>
</glyph>
<glyph name="three" format="2">
  <advance width="902"/>
  <unicode hex="0033"/>
  <outline>
    <contour>
      <point x="380" y="-28" type="curve" smooth="yes"/>
      <point x="620" y="-28"/>
      <point x="802" y="126"/>
      <point x="802" y="368" type="curve" smooth="yes"/>
      <point x="802" y="582"/>
      <point x="684" y="702"/>
      <point x="496" y="748" type="curve"/>
      <point x="496" y="702" type="line"/>
      <point x="660" y="746"/>
      <point x="758" y="876"/>
      <point x="758" y="1054" type="curve" smooth="yes"/>
      <point x="758" y="1266"/>
      <point x="632" y="1428"/>
      <point x="392" y="1428" type="curve" smooth="yes"/>
      <point x="284" y="1428"/>
      <point x="186" y="1398"/>
      <point x="110" y="1356" type="curve"/>
      <point x="142" y="1160" type="line"/>
      <point x="214" y="1208"/>
      <point x="288" y="1244"/>
      <point x="376" y="1244" type="curve" smooth="yes"/>
      <point x="496" y="1244"/>
      <point x="562" y="1172"/>
      <point x="562" y="1036" type="curve" smooth="yes"/>
      <point x="562" y="894"/>
      <point x="492" y="806"/>
      <point x="336" y="806" type="curve" smooth="yes"/>
      <point x="302" y="806" type="line"/>
      <point x="302" y="634" type="line"/>
      <point x="336" y="634" type="line" smooth="yes"/>
      <point x="520" y="634"/>
      <point x="606" y="532"/>
      <point x="606" y="378" type="curve" smooth="yes"/>
      <point x="606" y="248"/>
      <point x="516" y="156"/>
      <point x="368" y="156" type="curve" smooth="yes"/>
      <point x="266" y="156"/>
      <point x="190" y="180"/>
      <point x="106" y="224" type="curve"/>
      <point x="60" y="42" type="line"/>
      <point x="152" y="-2"/>
      <point x="260" y="-28"/>
    </contour>
  </outline>
</glyph>
<glyph name="four" format="2">
  <advance width="906"/>
  <unicode hex="0034"/>
  <outline>
    <contour>
      <point x="546" y="0" type="line"/>
      <point x="730" y="0" type="line"/>
      <point x="730" y="342" type="line"/>
      <point x="870" y="342" type="line"/>
      <point x="870" y="494" type="line"/>
      <point x="730" y="494" type="line"/>
      <point x="730" y="1400" type="line"/>
      <point x="596" y="1400" type="line"/>
      <point x="24" y="342" type="line"/>
      <point x="546" y="342" type="line"/>
    </contour>
    <contour>
      <point x="262" y="448" type="line"/>
      <point x="600" y="1090" type="line"/>
      <point x="546" y="1150" type="line"/>
      <point x="546" y="494" type="line"/>
      <point x="250" y="494" type="line"/>
    </contour>
  </outline>
</glyph>
<glyph name="five" format="2">
  <advance width="908"/>
  <unicode hex="0035"/>
  <outline>
    <contour>
      <point x="392" y="-28" type="curve" smooth="yes"/>
      <point x="644" y="-28"/>
      <point x="836" y="150"/>
      <point x="836" y="434" type="curve" smooth="yes"/>
      <point x="836" y="692"/>
      <point x="684" y="884"/>
      <point x="420" y="884" type="curve" smooth="yes"/>
      <point x="352" y="884"/>
      <point x="284" y="876"/>
      <point x="224" y="864" type="curve"/>
      <point x="346" y="782" type="line"/>
      <point x="400" y="1230" type="line"/>
      <point x="766" y="1230" type="line"/>
      <point x="774" y="1400" type="line"/>
      <point x="242" y="1400" type="line"/>
      <point x="156" y="688" type="line"/>
      <point x="220" y="708"/>
      <point x="282" y="718"/>
      <point x="360" y="718" type="curve" smooth="yes"/>
      <point x="526" y="718"/>
      <point x="640" y="620"/>
      <point x="640" y="434" type="curve" smooth="yes"/>
      <point x="640" y="264"/>
      <point x="536" y="156"/>
      <point x="388" y="156" type="curve" smooth="yes"/>
      <point x="284" y="156"/>
      <point x="202" y="190"/>
      <point x="128" y="234" type="curve"/>
      <point x="82" y="58" type="line"/>
      <point x="164" y="8"/>
      <point x="276" y="-28"/>
    </contour>
  </outline>
</glyph>
<glyph name="six" format="2">
  <advance width="960"/>
  <unicode hex="0036"/>
  <outline>
    <contour>
      <point x="500" y="-28" type="curve" smooth="yes"/>
      <point x="734" y="-28"/>
      <point x="892" y="156"/>
      <point x="892" y="416" type="curve" smooth="yes"/>
      <point x="892" y="658"/>
      <point x="744" y="840"/>
      <point x="536" y="840" type="curve" smooth="yes"/>
      <point x="392" y="840"/>
      <point x="280" y="766"/>
      <point x="230" y="642" type="curve"/>
      <point x="286" y="524" type="line"/>
      <point x="286" y="882"/>
      <point x="518" y="1164"/>
      <point x="748" y="1312" type="curve"/>
      <point x="624" y="1428" type="line"/>
      <point x="378" y="1270"/>
      <point x="104" y="908"/>
      <point x="104" y="472" type="curve" smooth="yes"/>
      <point x="104" y="174"/>
      <point x="240" y="-28"/>
    </contour>
    <contour>
      <point x="500" y="136" type="curve" smooth="yes"/>
      <point x="372" y="136"/>
      <point x="300" y="250"/>
      <point x="300" y="408" type="curve" smooth="yes"/>
      <point x="300" y="560"/>
      <point x="372" y="676"/>
      <point x="500" y="676" type="curve" smooth="yes"/>
      <point x="628" y="676"/>
      <point x="700" y="560"/>
      <point x="700" y="410" type="curve" smooth="yes"/>
      <point x="700" y="256"/>
      <point x="628" y="136"/>
    </contour>
  </outline>
</glyph>
<glyph name="seven" format="2">
  <advance width="846"/>
  <unicode hex="0037"/>
  <outline>
    <contour>
      <point x="168" y="0" type="line"/>
      <point x="360" y="0" type="line"/>
      <point x="826" y="1400" type="line"/>
      <point x="60" y="1400" type="line"/>
      <point x="60" y="1230" type="line"/>
      <point x="636" y="1230" type="line"/>
      <point x="606" y="1306" type="line"/>
    </contour>
  </outline>
</glyph>
<glyph name="eight" format="2">
  <advance width="1060"/>
  <unicode hex="0038"/>
  <outline>
    <contour>
      <point x="526" y="-28" type="curve" smooth="yes"/>
      <point x="794" y="-28"/>
      <point x="952" y="156"/>
      <point x="952" y="404" type="curve" smooth="yes"/>
      <point x="952" y="662"/>
      <point x="788" y="832"/>
      <point x="526" y="832" type="curve" smooth="yes"/>
      <point x="268" y="832"/>
      <point x="108" y="662"/>
      <point x="108" y="404" type="curve" smooth="yes"/>
      <point x="108" y="156"/>
      <point x="258" y="-28"/>
    </contour>
    <contour>
      <point x="526" y="144" type="curve" smooth="yes"/>
      <point x="380" y="144"/>
      <point x="304" y="258"/>
      <point x="304" y="414" type="curve" smooth="yes"/>
      <point x="304" y="570"/>
      <point x="380" y="676"/>
      <point x="526" y="676" type="curve" smooth="yes"/>
      <point x="672" y="676"/>
      <point x="756" y="570"/>
      <point x="756" y="414" type="curve" smooth="yes"/>
      <point x="756" y="258"/>
      <point x="672" y="144"/>
    </contour>
    <contour>
      <point x="526" y="686" type="curve" smooth="yes"/>
      <point x="754" y="686"/>
      <point x="880" y="840"/>
      <point x="880" y="1060" type="curve" smooth="yes"/>
      <point x="880" y="1240"/>
      <point x="784" y="1428"/>
      <point x="526" y="1428" type="curve" smooth="yes"/>
      <point x="270" y="1428"/>
      <point x="172" y="1240"/>
      <point x="172" y="1060" type="curve" smooth="yes"/>
      <point x="172" y="840"/>
      <point x="316" y="686"/>
    </contour>
    <contour>
      <point x="526" y="842" type="curve" smooth="yes"/>
      <point x="416" y="842"/>
      <point x="362" y="940"/>
      <point x="362" y="1052" type="curve" smooth="yes"/>
      <point x="362" y="1172"/>
      <point x="416" y="1256"/>
      <point x="526" y="1256" type="curve" smooth="yes"/>
      <point x="636" y="1256"/>
      <point x="690" y="1172"/>
      <point x="690" y="1052" type="curve" smooth="yes"/>
      <point x="690" y="940"/>
      <point x="636" y="842"/>
    </contour>
  </outline>
</glyph>
<glyph name="nine" format="2">
  <advance width="960"/>
  <unicode hex="0039"/>
  <outline>
    <contour>
      <point x="336" y="-28" type="line"/>
      <point x="582" y="130"/>
      <point x="856" y="492"/>
      <point x="856" y="928" type="curve" smooth="yes"/>
      <point x="856" y="1226"/>
      <point x="720" y="1428"/>
      <point x="460" y="1428" type="curve" smooth="yes"/>
      <point x="226" y="1428"/>
      <point x="68" y="1244"/>
      <point x="68" y="984" type="curve" smooth="yes"/>
      <point x="68" y="742"/>
      <point x="216" y="560"/>
      <point x="424" y="560" type="curve" smooth="yes"/>
      <point x="568" y="560"/>
      <point x="680" y="634"/>
      <point x="730" y="758" type="curve"/>
      <point x="674" y="876" type="line"/>
      <point x="674" y="518"/>
      <point x="442" y="236"/>
      <point x="212" y="88" type="curve"/>
    </contour>
    <contour>
      <point x="460" y="724" type="curve" smooth="yes"/>
      <point x="332" y="724"/>
      <point x="260" y="840"/>
      <point x="260" y="990" type="curve" smooth="yes"/>
      <point x="260" y="1144"/>
      <point x="332" y="1264"/>
      <point x="460" y="1264" type="curve" smooth="yes"/>
      <point x="588" y="1264"/>
      <point x="660" y="1150"/>
      <point x="660" y="992" type="curve" smooth="yes"/>
      <point x="660" y="840"/>
      <point x="588" y="724"/>
    </contour>
  </outline>
</glyph>
<glyph name="less" format="2">
  <advance width="710"/>
  <unicode hex="003C"/>
  <outline>
    <contour>
      <point x="670" y="150" type="line"/>
      <point x="670" y="322" type="line"/>
      <point x="204" y="562" type="line"/>
      <point x="670" y="802" type="line"/>
      <point x="670" y="974" type="line"/>
      <point x="60" y="648" type="line"/>
      <point x="60" y="476" type="line"/>
    </contour>
  </outline>
</glyph>
<glyph name="equal" format="2">
  <advance width="776"/>
  <unicode hex="003D"/>
  <outline>
    <contour>
      <point x="70" y="636" type="line"/>
      <point x="706" y="636" type="line"/>
      <point x="706" y="788" type="line"/>
      <point x="70" y="788" type="line"/>
    </contour>
    <contour>
      <point x="70" y="320" type="line"/>
      <point x="706" y="320" type="line"/>
      <point x="706" y="472" type="line"/>
      <point x="70" y="472" type="line"/>
    </contour>
  </outline>
</glyph>
<glyph name="question" format="2">
  <advance width="864"/>
  <unicode hex="003F"/>
  <outline>
    <contour>
      <point x="252" y="340" type="line"/>
      <point x="436" y="340" type="line"/>
      <point x="436" y="406" type="line" smooth="yes"/>
      <point x="436" y="536"/>
      <point x="488" y="610"/>
      <point x="574" y="722" type="curve" smooth="yes"/>
      <point x="652" y="826"/>
      <point x="734" y="918"/>
      <point x="734" y="1074" type="curve" smooth="yes"/>
      <point x="734" y="1262"/>
      <point x="616" y="1428"/>
      <point x="394" y="1428" type="curve" smooth="yes"/>
      <point x="276" y="1428"/>
      <point x="174" y="1402"/>
      <point x="100" y="1364" type="curve"/>
      <point x="118" y="1202" type="line"/>
      <point x="176" y="1232"/>
      <point x="244" y="1256"/>
      <point x="322" y="1256" type="curve" smooth="yes"/>
      <point x="452" y="1256"/>
      <point x="538" y="1182"/>
      <point x="538" y="1050" type="curve" smooth="yes"/>
      <point x="538" y="938"/>
      <point x="486" y="878"/>
      <point x="400" y="766" type="curve" smooth="yes"/>
      <point x="324" y="666"/>
      <point x="252" y="568"/>
      <point x="252" y="394" type="curve" smooth="yes"/>
    </contour>
    <contour>
      <point x="244" y="0" type="line"/>
      <point x="444" y="0" type="line"/>
      <point x="444" y="212" type="line"/>
      <point x="244" y="212" type="line"/>
    </contour>
  </outline>
</glyph>
<glyph name="at" format="2">
  <advance width="1214"/>
  <unicode hex="0040"/>
  <outline>
    <contour>
      <point x="496" y="-174" type="curve" smooth="yes"/>
      <point x="736" y="-174"/>
      <point x="952" y="-18"/>
      <point x="1066" y="208" type="curve"/>
      <point x="1060" y="212" type="line"/>
      <point x="1006" y="146"/>
      <point x="900" y="84"/>
      <point x="838" y="84" type="curve" smooth="yes"/>
      <point x="760" y="84"/>
      <point x="738" y="178"/>
      <point x="738" y="242" type="curve" smooth="yes"/>
      <point x="738" y="272"/>
      <point x="740" y="298"/>
      <point x="742" y="312" type="curve"/>
      <point x="668" y="162"/>
      <point x="532" y="80"/>
      <point x="432" y="80" type="curve" smooth="yes"/>
      <point x="318" y="80"/>
      <point x="276" y="190"/>
      <point x="276" y="306" type="curve" smooth="yes"/>
      <point x="276" y="578"/>
      <point x="500" y="864"/>
      <point x="716" y="864" type="curve" smooth="yes"/>
      <point x="810" y="864"/>
      <point x="880" y="810"/>
      <point x="924" y="758" type="curve"/>
      <point x="880" y="544"/>
      <point x="828" y="408"/>
      <point x="828" y="290" type="curve" smooth="yes"/>
      <point x="828" y="200"/>
      <point x="860" y="188"/>
      <point x="902" y="188" type="curve" smooth="yes"/>
      <point x="1080" y="188"/>
      <point x="1146" y="398"/>
      <point x="1146" y="600" type="curve" smooth="yes"/>
      <point x="1146" y="908"/>
      <point x="988" y="1106"/>
      <point x="718" y="1106" type="curve" smooth="yes"/>
      <point x="372" y="1106"/>
      <point x="70" y="776"/>
      <point x="70" y="340" type="curve" smooth="yes"/>
      <point x="70" y="16"/>
      <point x="236" y="-174"/>
    </contour>
    <contour>
      <point x="490" y="212" type="curve" smooth="yes"/>
      <point x="604" y="212"/>
      <point x="776" y="484"/>
      <point x="808" y="698" type="curve"/>
      <point x="794" y="740"/>
      <point x="750" y="742"/>
      <point x="730" y="742" type="curve" smooth="yes"/>
      <point x="604" y="742"/>
      <point x="414" y="564"/>
      <point x="414" y="346" type="curve" smooth="yes"/>
      <point x="414" y="270"/>
      <point x="436" y="212"/>
    </contour>
  </outline>
</glyph>
<glyph name="A" format="2">
  <advance width="1080"/>
  <unicode hex="0041"/>
  <anchor x="542" y="0" name="bottom"/>
  <anchor x="966" y="0" name="ogonek"/>
  <anchor x="542" y="1400" name="top"/>
  <outline>
    <contour>
      <point x="790" y="378" type="line"/>
      <point x="790" y="550" type="line"/>
      <point x="290" y="550" type="line"/>
      <point x="290" y="378" type="line"/>
    </contour>
    <contour>
      <point x="510" y="1216" type="line"/>
      <point x="868" y="0" type="line"/>
      <point x="1064" y="0" type="line"/>
      <point x="634" y="1400" type="line"/>
      <point x="446" y="1400" type="line"/>
      <point x="16" y="0" type="line"/>
      <point x="212" y="0" type="line"/>
      <point x="570" y="1216" type="line"/>
    </contour>
  </outline>
</glyph>
<glyph name="B" format="2">
  <advance width="1064"/>
  <unicode hex="0042"/>
  <outline>
    <contour>
      <point x="132" y="0" type="line"/>
      <point x="586" y="0" type="line" smooth="yes"/>
      <point x="836" y="0"/>
      <point x="988" y="154"/>
      <point x="988" y="400" type="curve" smooth="yes"/>
      <point x="988" y="616"/>
      <point x="874" y="738"/>
      <point x="682" y="776" type="curve"/>
      <point x="682" y="716" type="line"/>
      <point x="820" y="754"/>
      <point x="888" y="890"/>
      <point x="888" y="1056" type="curve" smooth="yes"/>
      <point x="888" y="1288"/>
      <point x="742" y="1400"/>
      <point x="500" y="1400" type="curve" smooth="yes"/>
      <point x="132" y="1400" type="line"/>
    </contour>
    <contour>
      <point x="316" y="168" type="line"/>
      <point x="316" y="648" type="line"/>
      <point x="570" y="648" type="line" smooth="yes"/>
      <point x="702" y="648"/>
      <point x="788" y="584"/>
      <point x="788" y="406" type="curve" smooth="yes"/>
      <point x="788" y="246"/>
      <point x="702" y="168"/>
      <point x="570" y="168" type="curve" smooth="yes"/>
    </contour>
    <contour>
      <point x="316" y="816" type="line"/>
      <point x="316" y="1232" type="line"/>
      <point x="476" y="1232" type="line" smooth="yes"/>
      <point x="630" y="1232"/>
      <point x="692" y="1186"/>
      <point x="692" y="1028" type="curve" smooth="yes"/>
      <point x="692" y="862"/>
      <point x="630" y="816"/>
      <point x="476" y="816" type="curve" smooth="yes"/>
    </contour>
  </outline>
</glyph>
<glyph name="C" format="2">
  <advance width="1048"/>
  <unicode hex="0043"/>
  <anchor x="664" y="0" name="bottom"/>
  <anchor x="670" y="1400" name="top"/>
  <outline>
    <contour>
      <point x="700" y="-28" type="curve" smooth="yes"/>
      <point x="824" y="-28"/>
      <point x="918" y="-6"/>
      <point x="996" y="28" type="curve"/>
      <point x="976" y="200" type="line"/>
      <point x="902" y="162"/>
      <point x="822" y="140"/>
      <point x="730" y="140" type="curve" smooth="yes"/>
      <point x="424" y="140"/>
      <point x="264" y="388"/>
      <point x="264" y="700" type="curve" smooth="yes"/>
      <point x="264" y="1012"/>
      <point x="424" y="1260"/>
      <point x="728" y="1260" type="curve" smooth="yes"/>
      <point x="822" y="1260"/>
      <point x="900" y="1234"/>
      <point x="976" y="1196" type="curve"/>
      <point x="996" y="1368" type="line"/>
      <point x="914" y="1402"/>
      <point x="816" y="1428"/>
      <point x="692" y="1428" type="curve" smooth="yes"/>
      <point x="326" y="1428"/>
      <point x="60" y="1144"/>
      <point x="60" y="700" type="curve" smooth="yes"/>
      <point x="60" y="256"/>
      <point x="310" y="-28"/>
    </contour>
  </outline>
</glyph>
<glyph name="D" format="2">
  <advance width="1238"/>
  <unicode hex="0044"/>
  <anchor x="620" y="0" name="bottom"/>
  <anchor x="620" y="1400" name="top"/>
  <outline>
    <contour>
      <point x="132" y="0" type="line"/>
      <point x="580" y="0" type="line" smooth="yes"/>
      <point x="926" y="0"/>
      <point x="1176" y="258"/>
      <point x="1176" y="700" type="curve" smooth="yes"/>
      <point x="1176" y="1142"/>
      <point x="926" y="1400"/>
      <point x="580" y="1400" type="curve" smooth="yes"/>
      <point x="132" y="1400" type="line"/>
    </contour>
    <contour>
      <point x="316" y="168" type="line"/>
      <point x="316" y="1232" type="line"/>
      <point x="548" y="1232" type="line" smooth="yes"/>
      <point x="828" y="1232"/>
      <point x="972" y="1034"/>
      <point x="972" y="700" type="curve" smooth="yes"/>
      <point x="972" y="366"/>
      <point x="828" y="168"/>
      <point x="548" y="168" type="curve" smooth="yes"/>
    </contour>
  </outline>
</glyph>
<glyph name="E" format="2">
  <advance width="956"/>
  <unicode hex="0045"/>
  <anchor x="516" y="0" name="bottom"/>
  <anchor x="842" y="0" name="ogonek"/>
  <anchor x="508" y="1400" name="top"/>
  <outline>
    <contour>
      <point x="132" y="0" type="line"/>
      <point x="898" y="0" type="line"/>
      <point x="898" y="168" type="line"/>
      <point x="316" y="168" type="line"/>
      <point x="316" y="648" type="line"/>
      <point x="762" y="648" type="line"/>
      <point x="762" y="816" type="line"/>
      <point x="316" y="816" type="line"/>
      <point x="316" y="1232" type="line"/>
      <point x="882" y="1232" type="line"/>
      <point x="882" y="1400" type="line"/>
      <point x="132" y="1400" type="line"/>
    </contour>
  </outline>
</glyph>
<glyph name="F" format="2">
  <advance width="900"/>
  <unicode hex="0046"/>
  <outline>
    <contour>
      <point x="132" y="0" type="line"/>
      <point x="316" y="0" type="line"/>
      <point x="316" y="650" type="line"/>
      <point x="744" y="650" type="line"/>
      <point x="744" y="818" type="line"/>
      <point x="316" y="818" type="line"/>
      <point x="316" y="1232" type="line"/>
      <point x="870" y="1232" type="line"/>
      <point x="870" y="1400" type="line"/>
      <point x="132" y="1400" type="line"/>
    </contour>
  </outline>
</glyph>
<glyph name="G" format="2">
  <advance width="1142"/>
  <unicode hex="0047"/>
  <anchor x="722" y="0" name="bottom"/>
  <anchor x="700" y="1400" name="top"/>
  <outline>
    <contour>
      <point x="716" y="-28" type="curve" smooth="yes"/>
      <point x="844" y="-28"/>
      <point x="974" y="8"/>
      <point x="1062" y="64" type="curve"/>
      <point x="1062" y="702" type="line"/>
      <point x="700" y="702" type="line"/>
      <point x="700" y="534" type="line"/>
      <point x="878" y="534" type="line"/>
      <point x="878" y="168" type="line"/>
      <point x="836" y="150"/>
      <point x="782" y="140"/>
      <point x="726" y="140" type="curve" smooth="yes"/>
      <point x="414" y="140"/>
      <point x="264" y="378"/>
      <point x="264" y="700" type="curve" smooth="yes"/>
      <point x="264" y="1012"/>
      <point x="424" y="1260"/>
      <point x="728" y="1260" type="curve" smooth="yes"/>
      <point x="838" y="1260"/>
      <point x="920" y="1236"/>
      <point x="1002" y="1196" type="curve"/>
      <point x="1022" y="1368" type="line"/>
      <point x="938" y="1404"/>
      <point x="838" y="1428"/>
      <point x="710" y="1428" type="curve" smooth="yes"/>
      <point x="334" y="1428"/>
      <point x="60" y="1144"/>
      <point x="60" y="700" type="curve" smooth="yes"/>
      <point x="60" y="276"/>
      <point x="306" y="-28"/>
    </contour>
  </outline>
</glyph>
<glyph name="H" format="2">
  <advance width="1272"/>
  <unicode hex="0048"/>
  <anchor x="636" y="0" name="bottom"/>
  <anchor x="636" y="1400" name="top"/>
  <outline>
    <contour>
      <point x="132" y="0" type="line"/>
      <point x="316" y="0" type="line"/>
      <point x="316" y="642" type="line"/>
      <point x="956" y="642" type="line"/>
      <point x="956" y="0" type="line"/>
      <point x="1140" y="0" type="line"/>
      <point x="1140" y="1400" type="line"/>
      <point x="956" y="1400" type="line"/>
      <point x="956" y="822" type="line"/>
      <point x="316" y="822" type="line"/>
      <point x="316" y="1400" type="line"/>
      <point x="132" y="1400" type="line"/>
    </contour>
  </outline>
</glyph>
<glyph name="I" format="2">
  <advance width="480"/>
  <unicode hex="0049"/>
  <anchor x="240" y="0" name="bottom"/>
  <anchor x="276" y="0" name="ogonek"/>
  <anchor x="240" y="1400" name="top"/>
  <outline>
    <contour>
      <point x="148" y="0" type="line"/>
      <point x="332" y="0" type="line"/>
      <point x="332" y="1400" type="line"/>
      <point x="148" y="1400" type="line"/>
    </contour>
  </outline>
</glyph>
<glyph name="J" format="2">
  <advance width="486"/>
  <unicode hex="004A"/>
  <anchor x="246" y="1400" name="top"/>
  <outline>
    <contour>
      <point x="16" y="-344" type="line"/>
      <point x="58" y="-344" type="line" smooth="yes"/>
      <point x="232" y="-344"/>
      <point x="338" y="-250"/>
      <point x="338" y="-64" type="curve" smooth="yes"/>
      <point x="338" y="1400" type="line"/>
      <point x="154" y="1400" type="line"/>
      <point x="154" y="-6" type="line" smooth="yes"/>
      <point x="154" y="-144"/>
      <point x="116" y="-180"/>
      <point x="-2" y="-180" type="curve"/>
    </contour>
  </outline>
</glyph>
<glyph name="K" format="2">
  <advance width="1054"/>
  <unicode hex="004B"/>
  <anchor x="580" y="0" name="bottom"/>
  <anchor x="580" y="1400" name="top"/>
  <outline>
    <contour>
      <point x="810" y="0" type="line"/>
      <point x="1014" y="0" type="line"/>
      <point x="560" y="742" type="line"/>
      <point x="1014" y="1400" type="line"/>
      <point x="810" y="1400" type="line"/>
      <point x="360" y="742" type="line"/>
    </contour>
    <contour>
      <point x="166" y="0" type="line"/>
      <point x="350" y="0" type="line"/>
      <point x="350" y="1400" type="line"/>
      <point x="166" y="1400" type="line"/>
    </contour>
  </outline>
</glyph>
<glyph name="L" format="2">
  <advance width="860"/>
  <unicode hex="004C"/>
  <anchor x="490" y="0" name="bottom"/>
  <anchor x="654" y="768" name="center"/>
  <anchor x="224" y="1400" name="top"/>
  <anchor x="664" y="1400" name="topright"/>
  <outline>
    <contour>
      <point x="132" y="0" type="line"/>
      <point x="848" y="0" type="line"/>
      <point x="848" y="168" type="line"/>
      <point x="316" y="168" type="line"/>
      <point x="316" y="1400" type="line"/>
      <point x="132" y="1400" type="line"/>
    </contour>
  </outline>
</glyph>
<glyph name="M" format="2">
  <advance width="1420"/>
  <unicode hex="004D"/>
  <anchor x="720" y="0" name="bottom"/>
  <anchor x="720" y="1400" name="top"/>
  <outline>
    <contour>
      <point x="94" y="0" type="line"/>
      <point x="290" y="0" type="line"/>
      <point x="394" y="1110" type="line"/>
      <point x="344" y="1094" type="line"/>
      <point x="720" y="290" type="line"/>
      <point x="1096" y="1094" type="line"/>
      <point x="1046" y="1110" type="line"/>
      <point x="1150" y="0" type="line"/>
      <point x="1346" y="0" type="line"/>
      <point x="1194" y="1400" type="line"/>
      <point x="1038" y="1400" type="line"/>
      <point x="720" y="682" type="line"/>
      <point x="402" y="1400" type="line"/>
      <point x="246" y="1400" type="line"/>
    </contour>
  </outline>
</glyph>
<glyph name="N" format="2">
  <advance width="1206"/>
  <unicode hex="004E"/>
  <anchor x="610" y="0" name="bottom"/>
  <anchor x="616" y="1400" name="top"/>
  <outline>
    <contour>
      <point x="132" y="0" type="line"/>
      <point x="316" y="0" type="line"/>
      <point x="316" y="1078" type="line"/>
      <point x="904" y="0" type="line"/>
      <point x="1074" y="0" type="line"/>
      <point x="1074" y="1400" type="line"/>
      <point x="890" y="1400" type="line"/>
      <point x="890" y="380" type="line"/>
      <point x="340" y="1400" type="line"/>
      <point x="132" y="1400" type="line"/>
    </contour>
  </outline>
</glyph>
<glyph name="O" format="2">
  <advance width="1306"/>
  <unicode hex="004F"/>
  <anchor x="654" y="0" name="bottom"/>
  <anchor x="696" y="0" name="ogonek"/>
  <anchor x="654" y="1400" name="top"/>
  <anchor x="812" y="1400" name="topright"/>
  <outline>
    <contour>
      <point x="654" y="-28" type="curve" smooth="yes"/>
      <point x="998" y="-28"/>
      <point x="1246" y="256"/>
      <point x="1246" y="700" type="curve" smooth="yes"/>
      <point x="1246" y="1144"/>
      <point x="998" y="1428"/>
      <point x="654" y="1428" type="curve" smooth="yes"/>
      <point x="310" y="1428"/>
      <point x="60" y="1144"/>
      <point x="60" y="700" type="curve" smooth="yes"/>
      <point x="60" y="256"/>
      <point x="310" y="-28"/>
    </contour>
    <contour>
      <point x="654" y="156" type="curve" smooth="yes"/>
      <point x="390" y="156"/>
      <point x="256" y="396"/>
      <point x="256" y="700" type="curve" smooth="yes"/>
      <point x="256" y="1004"/>
      <point x="390" y="1244"/>
      <point x="654" y="1244" type="curve" smooth="yes"/>
      <point x="918" y="1244"/>
      <point x="1050" y="1004"/>
      <point x="1050" y="700" type="curve" smooth="yes"/>
      <point x="1050" y="396"/>
      <point x="918" y="156"/>
    </contour>
  </outline>
</glyph>
<glyph name="P" format="2">
  <advance width="1010"/>
  <unicode hex="0050"/>
  <outline>
    <contour>
      <point x="148" y="0" type="line"/>
      <point x="332" y="0" type="line"/>
      <point x="332" y="490" type="line"/>
      <point x="508" y="490" type="line" smooth="yes"/>
      <point x="796" y="490"/>
      <point x="974" y="646"/>
      <point x="974" y="946" type="curve" smooth="yes"/>
      <point x="974" y="1246"/>
      <point x="796" y="1400"/>
      <point x="508" y="1400" type="curve" smooth="yes"/>
      <point x="148" y="1400" type="line"/>
    </contour>
    <contour>
      <point x="332" y="658" type="line"/>
      <point x="332" y="1232" type="line"/>
      <point x="492" y="1232" type="line" smooth="yes"/>
      <point x="694" y="1232"/>
      <point x="782" y="1126"/>
      <point x="782" y="946" type="curve" smooth="yes"/>
      <point x="782" y="766"/>
      <point x="694" y="658"/>
      <point x="492" y="658" type="curve" smooth="yes"/>
    </contour>
  </outline>
</glyph>
<glyph name="Q" format="2">
  <advance width="1306"/>
  <unicode hex="0051"/>
  <anchor x="654" y="0" name="bottom"/>
  <anchor x="696" y="0" name="ogonek"/>
  <anchor x="654" y="1400" name="top"/>
  <anchor x="812" y="1400" name="topright"/>
  <outline>
    <contour>
      <point x="702" y="404" type="line"/>
      <point x="1118" y="-28" type="line"/>
      <point x="1232" y="80" type="line"/>
      <point x="816" y="512" type="line"/>
    </contour>
    <component base="O"/>
  </outline>
</glyph>
<glyph name="R" format="2">
  <advance width="1082"/>
  <unicode hex="0052"/>
  <anchor x="576" y="0" name="bottom"/>
  <anchor x="542" y="1400" name="top"/>
  <outline>
    <contour>
      <point x="146" y="0" type="line"/>
      <point x="330" y="0" type="line"/>
      <point x="330" y="544" type="line"/>
      <point x="506" y="544" type="line" smooth="yes"/>
      <point x="528" y="544"/>
      <point x="554" y="546"/>
      <point x="570" y="548" type="curve"/>
      <point x="820" y="0" type="line"/>
      <point x="1036" y="0" type="line"/>
      <point x="757" y="602" type="line"/>
      <point x="894" y="675"/>
      <point x="972" y="810"/>
      <point x="972" y="972" type="curve" smooth="yes"/>
      <point x="972" y="1256"/>
      <point x="794" y="1400"/>
      <point x="506" y="1400" type="curve" smooth="yes"/>
      <point x="146" y="1400" type="line"/>
    </contour>
    <contour>
      <point x="330" y="712" type="line"/>
      <point x="330" y="1232" type="line"/>
      <point x="490" y="1232" type="line" smooth="yes"/>
      <point x="694" y="1232"/>
      <point x="780" y="1140"/>
      <point x="780" y="972" type="curve" smooth="yes"/>
      <point x="780" y="804"/>
      <point x="694" y="712"/>
      <point x="490" y="712" type="curve" smooth="yes"/>
    </contour>
  </outline>
</glyph>
<glyph name="S" format="2">
  <advance width="998"/>
  <unicode hex="0053"/>
  <anchor x="490" y="0" name="bottom"/>
  <anchor x="522" y="1400" name="top"/>
  <outline>
    <contour>
      <point x="464" y="-28" type="curve" smooth="yes"/>
      <point x="764" y="-28"/>
      <point x="948" y="118"/>
      <point x="948" y="356" type="curve" smooth="yes"/>
      <point x="948" y="558"/>
      <point x="828" y="672"/>
      <point x="590" y="780" type="curve" smooth="yes"/>
      <point x="382" y="874"/>
      <point x="270" y="926"/>
      <point x="270" y="1066" type="curve" smooth="yes"/>
      <point x="270" y="1202"/>
      <point x="370" y="1260"/>
      <point x="516" y="1260" type="curve" smooth="yes"/>
      <point x="634" y="1260"/>
      <point x="742" y="1228"/>
      <point x="856" y="1162" type="curve"/>
      <point x="876" y="1352" type="line"/>
      <point x="798" y="1390"/>
      <point x="672" y="1428"/>
      <point x="526" y="1428" type="curve" smooth="yes"/>
      <point x="256" y="1428"/>
      <point x="66" y="1282"/>
      <point x="66" y="1054" type="curve" smooth="yes"/>
      <point x="66" y="822"/>
      <point x="222" y="736"/>
      <point x="444" y="636" type="curve" smooth="yes"/>
      <point x="644" y="546"/>
      <point x="744" y="482"/>
      <point x="744" y="338" type="curve" smooth="yes"/>
      <point x="744" y="206"/>
      <point x="642" y="140"/>
      <point x="482" y="140" type="curve" smooth="yes"/>
      <point x="348" y="140"/>
      <point x="210" y="190"/>
      <point x="110" y="252" type="curve"/>
      <point x="84" y="50" type="line"/>
      <point x="170" y="10"/>
      <point x="328" y="-28"/>
    </contour>
  </outline>
</glyph>
<glyph name="T" format="2">
  <advance width="952"/>
  <unicode hex="0054"/>
  <anchor x="476" y="0" name="bottom"/>
  <anchor x="476" y="1400" name="top"/>
  <outline>
    <contour>
      <point x="384" y="0" type="line"/>
      <point x="568" y="0" type="line"/>
      <point x="568" y="1232" type="line"/>
      <point x="916" y="1232" type="line"/>
      <point x="916" y="1400" type="line"/>
      <point x="36" y="1400" type="line"/>
      <point x="36" y="1232" type="line"/>
      <point x="384" y="1232" type="line"/>
    </contour>
  </outline>
</glyph>
<glyph name="U" format="2">
  <advance width="1234"/>
  <unicode hex="0055"/>
  <anchor x="618" y="0" name="bottom"/>
  <anchor x="738" y="0" name="ogonek"/>
  <anchor x="618" y="1400" name="top"/>
  <anchor x="990" y="1400" name="topright"/>
  <outline>
    <contour>
      <point x="616" y="-28" type="curve" smooth="yes"/>
      <point x="966" y="-28"/>
      <point x="1116" y="194"/>
      <point x="1116" y="554" type="curve" smooth="yes"/>
      <point x="1116" y="1400" type="line"/>
      <point x="932" y="1400" type="line"/>
      <point x="932" y="606" type="line" smooth="yes"/>
      <point x="932" y="352"/>
      <point x="894" y="140"/>
      <point x="616" y="140" type="curve" smooth="yes"/>
      <point x="342" y="140"/>
      <point x="302" y="350"/>
      <point x="302" y="606" type="curve" smooth="yes"/>
      <point x="302" y="1400" type="line"/>
      <point x="118" y="1400" type="line"/>
      <point x="118" y="554" type="line" smooth="yes"/>
      <point x="118" y="194"/>
      <point x="268" y="-28"/>
    </contour>
  </outline>
</glyph>
<glyph name="V" format="2">
  <advance width="1132"/>
  <unicode hex="0056"/>
  <anchor x="566" y="0" name="bottom"/>
  <anchor x="566" y="1400" name="top"/>
  <outline>
    <contour>
      <point x="460" y="0" type="line"/>
      <point x="672" y="0" type="line"/>
      <point x="1116" y="1400" type="line"/>
      <point x="920" y="1400" type="line"/>
      <point x="542" y="156" type="line"/>
      <point x="590" y="156" type="line"/>
      <point x="212" y="1400" type="line"/>
      <point x="16" y="1400" type="line"/>
    </contour>
  </outline>
</glyph>
<glyph name="W" format="2">
  <advance width="1660"/>
  <unicode hex="0057"/>
  <anchor x="830" y="0" name="bottom"/>
  <anchor x="830" y="1400" name="top"/>
  <outline>
    <contour>
      <point x="360" y="0" type="line"/>
      <point x="568" y="0" type="line"/>
      <point x="828" y="1106" type="line"/>
      <point x="1092" y="0" type="line"/>
      <point x="1300" y="0" type="line"/>
      <point x="1644" y="1400" type="line"/>
      <point x="1448" y="1400" type="line"/>
      <point x="1196" y="258" type="line"/>
      <point x="934" y="1372" type="line"/>
      <point x="726" y="1372" type="line"/>
      <point x="464" y="258" type="line"/>
      <point x="212" y="1400" type="line"/>
      <point x="16" y="1400" type="line"/>
    </contour>
  </outline>
</glyph>
<glyph name="X" format="2">
  <advance width="1070"/>
  <unicode hex="0058"/>
  <outline>
    <contour>
      <point x="16" y="0" type="line"/>
      <point x="220" y="0" type="line"/>
      <point x="536" y="540" type="line"/>
      <point x="850" y="0" type="line"/>
      <point x="1054" y="0" type="line"/>
      <point x="634" y="706" type="line"/>
      <point x="1046" y="1400" type="line"/>
      <point x="842" y="1400" type="line"/>
      <point x="536" y="874" type="line"/>
      <point x="228" y="1400" type="line"/>
      <point x="24" y="1400" type="line"/>
      <point x="438" y="706" type="line"/>
    </contour>
  </outline>
</glyph>
<glyph name="Y" format="2">
  <advance width="1034"/>
  <unicode hex="0059"/>
  <anchor x="506" y="0" name="bottom"/>
  <anchor x="504" y="1400" name="top"/>
  <outline>
    <contour>
      <point x="414" y="0" type="line"/>
      <point x="598" y="0" type="line"/>
      <point x="598" y="606" type="line"/>
      <point x="1010" y="1400" type="line"/>
      <point x="806" y="1400" type="line"/>
      <point x="468" y="724" type="line"/>
      <point x="544" y="724" type="line"/>
      <point x="202" y="1400" type="line"/>
      <point x="-2" y="1400" type="line"/>
      <point x="414" y="606" type="line"/>
    </contour>
  </outline>
</glyph>
<glyph name="Z" format="2">
  <advance width="960"/>
  <unicode hex="005A"/>
  <anchor x="476" y="0" name="bottom"/>
  <anchor x="512" y="1400" name="top"/>
  <outline>
    <contour>
      <point x="14" y="0" type="line"/>
      <point x="938" y="0" type="line"/>
      <point x="938" y="172" type="line"/>
      <point x="236" y="172" type="line"/>
      <point x="258" y="96" type="line"/>
      <point x="930" y="1400" type="line"/>
      <point x="92" y="1400" type="line"/>
      <point x="92" y="1228" type="line"/>
      <point x="708" y="1228" type="line"/>
      <point x="686" y="1304" type="line"/>
    </contour>
  </outline>
</glyph>
<glyph name="bracketleft" format="2">
  <advance width="576"/>
  <unicode hex="005B"/>
  <outline>
    <contour>
      <point x="116" y="-270" type="line"/>
      <point x="558" y="-270" type="line"/>
      <point x="558" y="-134" type="line"/>
      <point x="280" y="-134" type="line"/>
      <point x="280" y="1364" type="line"/>
      <point x="558" y="1364" type="line"/>
      <point x="558" y="1500" type="line"/>
      <point x="116" y="1500" type="line"/>
    </contour>
  </outline>
</glyph>
<glyph name="backslash" format="2">
  <advance width="726"/>
  <unicode hex="005C"/>
  <outline>
    <contour>
      <point x="506" y="-170" type="line"/>
      <point x="680" y="-170" type="line"/>
      <point x="244" y="1400" type="line"/>
      <point x="70" y="1400" type="line"/>
    </contour>
  </outline>
</glyph>
<glyph name="bracketright" format="2">
  <advance width="586"/>
  <unicode hex="005D"/>
  <outline>
    <contour>
      <point x="28" y="-270" type="line"/>
      <point x="470" y="-270" type="line"/>
      <point x="470" y="1500" type="line"/>
      <point x="28" y="1500" type="line"/>
      <point x="28" y="1332" type="line"/>
      <point x="306" y="1332" type="line"/>
      <point x="306" y="-102" type="line"/>
      <point x="28" y="-102" type="line"/>
    </contour>
  </outline>
</glyph>
<glyph name="asciicircum" format="2">
  <advance width="868"/>
  <unicode hex="005E"/>
  <outline>
    <contour>
      <point x="80" y="866" type="line"/>
      <point x="434" y="1266" type="line"/>
      <point x="788" y="866" type="line"/>
      <point x="788" y="1086" type="line"/>
      <point x="434" y="1518" type="line"/>
      <point x="80" y="1086" type="line"/>
    </contour>
  </outline>
</glyph>
<glyph name="underscore" format="2">
  <advance width="960"/>
  <unicode hex="005F"/>
  <outline>
    <contour>
      <point x="-2" y="-244" type="line"/>
      <point x="962" y="-244" type="line"/>
      <point x="962" y="-72" type="line"/>
      <point x="-2" y="-72" type="line"/>
    </contour>
  </outline>
</glyph>
<glyph name="a" format="2">
  <advance width="868"/>
  <unicode hex="0061"/>
  <anchor x="434" y="0" name="bottom"/>
  <anchor x="742" y="0" name="ogonek"/>
  <anchor x="434" y="980" name="top"/>
  <outline>
    <contour>
      <point x="304" y="-20" type="curve" smooth="yes"/>
      <point x="410" y="-20"/>
      <point x="502" y="38"/>
      <point x="564" y="124" type="curve"/>
      <point x="598" y="32"/>
      <point x="642" y="-20"/>
      <point x="770" y="-20" type="curve" smooth="yes"/>
      <point x="810" y="-20" type="line"/>
      <point x="832" y="124" type="line"/>
      <point x="810" y="124" type="line" smooth="yes"/>
      <point x="734" y="124"/>
      <point x="724" y="190"/>
      <point x="724" y="330" type="curve" smooth="yes"/>
      <point x="724" y="616" type="line" smooth="yes"/>
      <point x="724" y="890"/>
      <point x="622" y="1000"/>
      <point x="414" y="1000" type="curve" smooth="yes"/>
      <point x="306" y="1000"/>
      <point x="204" y="964"/>
      <point x="122" y="898" type="curve"/>
      <point x="144" y="752" type="line"/>
      <point x="226" y="812"/>
      <point x="300" y="840"/>
      <point x="380" y="840" type="curve" smooth="yes"/>
      <point x="496" y="840"/>
      <point x="544" y="786"/>
      <point x="544" y="614" type="curve"/>
      <point x="350" y="610"/>
      <point x="48" y="540"/>
      <point x="48" y="264" type="curve" smooth="yes"/>
      <point x="48" y="100"/>
      <point x="154" y="-20"/>
    </contour>
    <contour>
      <point x="358" y="124" type="curve" smooth="yes"/>
      <point x="278" y="124"/>
      <point x="234" y="168"/>
      <point x="234" y="274" type="curve" smooth="yes"/>
      <point x="234" y="420"/>
      <point x="350" y="480"/>
      <point x="544" y="490" type="curve"/>
      <point x="544" y="256" type="line"/>
      <point x="496" y="176"/>
      <point x="422" y="124"/>
    </contour>
  </outline>
</glyph>
<glyph name="b" format="2">
  <advance width="984"/>
  <unicode hex="0062"/>
  <anchor x="492" y="0" name="bottom"/>
  <anchor x="188" y="1500" name="top"/>
  <outline>
    <contour>
      <point x="532" y="-20" type="curve" smooth="yes"/>
      <point x="764" y="-20"/>
      <point x="916" y="204"/>
      <point x="916" y="490" type="curve" smooth="yes"/>
      <point x="916" y="758"/>
      <point x="776" y="1000"/>
      <point x="532" y="1000" type="curve" smooth="yes"/>
      <point x="396" y="1000"/>
      <point x="292" y="928"/>
      <point x="222" y="816" type="curve"/>
      <point x="276" y="788" type="line"/>
      <point x="276" y="1500" type="line"/>
      <point x="100" y="1500" type="line"/>
      <point x="100" y="0" type="line"/>
      <point x="260" y="0" type="line"/>
      <point x="276" y="210" type="line"/>
      <point x="222" y="174" type="line"/>
      <point x="272" y="46"/>
      <point x="396" y="-20"/>
    </contour>
    <contour>
      <point x="500" y="136" type="curve" smooth="yes"/>
      <point x="364" y="136"/>
      <point x="260" y="242"/>
      <point x="260" y="490" type="curve" smooth="yes"/>
      <point x="260" y="728"/>
      <point x="364" y="844"/>
      <point x="500" y="844" type="curve" smooth="yes"/>
      <point x="646" y="844"/>
      <point x="736" y="692"/>
      <point x="736" y="490" type="curve" smooth="yes"/>
      <point x="736" y="296"/>
      <point x="646" y="136"/>
    </contour>
  </outline>
</glyph>
<glyph name="c" format="2">
  <advance width="770"/>
  <unicode hex="0063"/>
  <guideline x="362" y="471" angle="90"/>
  <anchor x="462" y="0" name="bottom"/>
  <anchor x="466" y="980" name="top"/>
  <outline>
    <contour>
      <point x="504" y="-20" type="curve" smooth="yes"/>
      <point x="588" y="-20"/>
      <point x="672" y="0"/>
      <point x="724" y="26" type="curve"/>
      <point x="700" y="182" type="line"/>
      <point x="644" y="150"/>
      <point x="584" y="136"/>
      <point x="518" y="136" type="curve" smooth="yes"/>
      <point x="334" y="136"/>
      <point x="228" y="276"/>
      <point x="228" y="492" type="curve" smooth="yes"/>
      <point x="228" y="712"/>
      <point x="334" y="844"/>
      <point x="512" y="844" type="curve" smooth="yes"/>
      <point x="580" y="844"/>
      <point x="642" y="826"/>
      <point x="698" y="796" type="curve"/>
      <point x="726" y="950" type="line"/>
      <point x="668" y="980"/>
      <point x="590" y="1000"/>
      <point x="508" y="1000" type="curve" smooth="yes"/>
      <point x="192" y="1000"/>
      <point x="48" y="776"/>
      <point x="48" y="484" type="curve" smooth="yes"/>
      <point x="48" y="204"/>
      <point x="192" y="-20"/>
    </contour>
  </outline>
</glyph>
<glyph name="e" format="2">
  <advance width="878"/>
  <unicode hex="0065"/>
  <anchor x="500" y="0" name="bottom"/>
  <anchor x="742" y="40" name="ogonek"/>
  <anchor x="468" y="980" name="top"/>
  <outline>
    <contour>
      <point x="518" y="-20" type="curve" smooth="yes"/>
      <point x="630" y="-20"/>
      <point x="728" y="2"/>
      <point x="798" y="40" type="curve"/>
      <point x="782" y="198" type="line"/>
      <point x="708" y="158"/>
      <point x="608" y="140"/>
      <point x="530" y="140" type="curve" smooth="yes"/>
      <point x="365" y="140"/>
      <point x="241" y="253"/>
      <point x="234" y="490" type="curve"/>
      <point x="828" y="490" type="line"/>
      <point x="832" y="522"/>
      <point x="836" y="558"/>
      <point x="836" y="586" type="curve" smooth="yes"/>
      <point x="836" y="850"/>
      <point x="680" y="1000"/>
      <point x="466" y="1000" type="curve" smooth="yes"/>
      <point x="204" y="1000"/>
      <point x="54" y="772"/>
      <point x="54" y="498" type="curve" smooth="yes"/>
      <point x="54" y="216"/>
      <point x="212" y="-20"/>
    </contour>
    <contour>
      <point x="242" y="614" type="line"/>
      <point x="267" y="768"/>
      <point x="351" y="840"/>
      <point x="468" y="840" type="curve" smooth="yes"/>
      <point x="596" y="840"/>
      <point x="656" y="742"/>
      <point x="656" y="614" type="curve"/>
    </contour>
  </outline>
</glyph>
<glyph name="f" format="2">
  <advance width="584"/>
  <unicode hex="0066"/>
  <outline>
    <contour>
      <point x="164" y="0" type="line"/>
      <point x="340" y="0" type="line"/>
      <point x="340" y="840" type="line"/>
      <point x="554" y="840" type="line"/>
      <point x="554" y="980" type="line"/>
      <point x="340" y="980" type="line"/>
      <point x="340" y="1214" type="line" smooth="yes"/>
      <point x="340" y="1294"/>
      <point x="380" y="1340"/>
      <point x="448" y="1340" type="curve" smooth="yes"/>
      <point x="480" y="1340"/>
      <point x="502" y="1334"/>
      <point x="526" y="1326" type="curve"/>
      <point x="548" y="1478" type="line"/>
      <point x="512" y="1492"/>
      <point x="472" y="1500"/>
      <point x="418" y="1500" type="curve" smooth="yes"/>
      <point x="250" y="1500"/>
      <point x="164" y="1392"/>
      <point x="164" y="1242" type="curve" smooth="yes"/>
      <point x="164" y="980" type="line"/>
      <point x="48" y="980" type="line"/>
      <point x="28" y="840" type="line"/>
      <point x="164" y="840" type="line"/>
    </contour>
  </outline>
</glyph>
<glyph name="g" format="2">
  <advance width="848"/>
  <unicode hex="0067"/>
  <anchor x="440" y="-484" name="bottom"/>
  <anchor x="494" y="980" name="top"/>
  <outline>
    <contour>
      <point x="434" y="-500" type="curve" smooth="yes"/>
      <point x="680" y="-500"/>
      <point x="860" y="-400"/>
      <point x="860" y="-214" type="curve" smooth="yes"/>
      <point x="860" y="-60"/>
      <point x="762" y="6"/>
      <point x="528" y="76" type="curve" smooth="yes"/>
      <point x="388" y="118" type="line" smooth="yes"/>
      <point x="310" y="142"/>
      <point x="272" y="158"/>
      <point x="272" y="194" type="curve" smooth="yes"/>
      <point x="272" y="215"/>
      <point x="285" y="229"/>
      <point x="309" y="239" type="curve"/>
      <point x="340" y="231"/>
      <point x="373" y="226"/>
      <point x="408" y="226" type="curve" smooth="yes"/>
      <point x="626" y="226"/>
      <point x="756" y="404"/>
      <point x="756" y="618" type="curve" smooth="yes"/>
      <point x="756" y="702"/>
      <point x="736" y="779"/>
      <point x="698" y="842" type="curve"/>
      <point x="727" y="854"/>
      <point x="754" y="860"/>
      <point x="782" y="860" type="curve" smooth="yes"/>
      <point x="800" y="860"/>
      <point x="812" y="858"/>
      <point x="822" y="856" type="curve"/>
      <point x="840" y="996" type="line"/>
      <point x="828" y="998"/>
      <point x="812" y="1000"/>
      <point x="790" y="1000" type="curve" smooth="yes"/>
      <point x="731" y="1000"/>
      <point x="674" y="974"/>
      <point x="623" y="928" type="curve"/>
      <point x="567" y="974"/>
      <point x="495" y="1000"/>
      <point x="408" y="1000" type="curve" smooth="yes"/>
      <point x="190" y="1000"/>
      <point x="60" y="832"/>
      <point x="60" y="618" type="curve" smooth="yes"/>
      <point x="60" y="479"/>
      <point x="115" y="355"/>
      <point x="214" y="285" type="curve"/>
      <point x="145" y="257"/>
      <point x="106" y="209"/>
      <point x="106" y="148" type="curve" smooth="yes"/>
      <point x="106" y="87"/>
      <point x="136" y="44"/>
      <point x="199" y="14" type="curve"/>
      <point x="106" y="-47"/>
      <point x="42" y="-130"/>
      <point x="42" y="-234" type="curve" smooth="yes"/>
      <point x="42" y="-402"/>
      <point x="208" y="-500"/>
    </contour>
    <contour>
      <point x="446" y="-356" type="curve" smooth="yes"/>
      <point x="298" y="-356"/>
      <point x="202" y="-308"/>
      <point x="202" y="-208" type="curve" smooth="yes"/>
      <point x="202" y="-132"/>
      <point x="266" y="-74"/>
      <point x="337" y="-28" type="curve"/>
      <point x="498" y="-76" type="line" smooth="yes"/>
      <point x="636" y="-118"/>
      <point x="684" y="-152"/>
      <point x="684" y="-224" type="curve" smooth="yes"/>
      <point x="684" y="-312"/>
      <point x="586" y="-356"/>
    </contour>
    <contour>
      <point x="408" y="366" type="curve" smooth="yes"/>
      <point x="290" y="366"/>
      <point x="228" y="468"/>
      <point x="228" y="616" type="curve" smooth="yes"/>
      <point x="228" y="758"/>
      <point x="290" y="860"/>
      <point x="408" y="860" type="curve" smooth="yes"/>
      <point x="524" y="860"/>
      <point x="588" y="758"/>
      <point x="588" y="616" type="curve" smooth="yes"/>
      <point x="588" y="468"/>
      <point x="524" y="366"/>
    </contour>
  </outline>
</glyph>
<glyph name="h" format="2">
  <advance width="950"/>
  <unicode hex="0068"/>
  <anchor x="486" y="0" name="bottom"/>
  <anchor x="202" y="1500" name="top"/>
  <outline>
    <contour>
      <point x="114" y="0" type="line"/>
      <point x="290" y="0" type="line"/>
      <point x="290" y="766" type="line"/>
      <point x="266" y="656" type="line"/>
      <point x="314" y="768"/>
      <point x="398" y="840"/>
      <point x="504" y="840" type="curve" smooth="yes"/>
      <point x="624" y="840"/>
      <point x="682" y="746"/>
      <point x="682" y="540" type="curve" smooth="yes"/>
      <point x="682" y="0" type="line"/>
      <point x="858" y="0" type="line"/>
      <point x="858" y="562" type="line" smooth="yes"/>
      <point x="858" y="824"/>
      <point x="752" y="1000"/>
      <point x="544" y="1000" type="curve" smooth="yes"/>
      <point x="406" y="1000"/>
      <point x="290" y="922"/>
      <point x="248" y="802" type="curve"/>
      <point x="290" y="810" type="line"/>
      <point x="290" y="1500" type="line"/>
      <point x="114" y="1500" type="line"/>
    </contour>
  </outline>
</glyph>
<glyph name="i" format="2">
  <advance width="408"/>
  <unicode hex="0069"/>
  <anchor x="204" y="0" name="bottom"/>
  <anchor x="236" y="0" name="ogonek"/>
  <outline>
    <contour>
      <point x="116" y="0" type="line"/>
      <point x="292" y="0" type="line"/>
      <point x="292" y="980" type="line"/>
      <point x="116" y="980" type="line"/>
    </contour>
    <contour>
      <point x="116" y="1200" type="line"/>
      <point x="292" y="1200" type="line"/>
      <point x="292" y="1400" type="line"/>
      <point x="116" y="1400" type="line"/>
    </contour>
  </outline>
</glyph>
<glyph name="j" format="2">
  <advance width="410"/>
  <unicode hex="006A"/>
  <outline>
    <contour>
      <point x="18" y="-484" type="line"/>
      <point x="80" y="-474" type="line" smooth="yes"/>
      <point x="192" y="-456"/>
      <point x="294" y="-402"/>
      <point x="294" y="-214" type="curve" smooth="yes"/>
      <point x="294" y="980" type="line"/>
      <point x="118" y="980" type="line"/>
      <point x="118" y="-146" type="line" smooth="yes"/>
      <point x="118" y="-304"/>
      <point x="100" y="-334"/>
      <point x="0" y="-346" type="curve"/>
    </contour>
    <contour>
      <point x="118" y="1200" type="line"/>
      <point x="294" y="1200" type="line"/>
      <point x="294" y="1400" type="line"/>
      <point x="118" y="1400" type="line"/>
    </contour>
  </outline>
</glyph>
<glyph name="k" format="2">
  <advance width="836"/>
  <unicode hex="006B"/>
  <anchor x="446" y="0" name="bottom"/>
  <anchor x="208" y="1500" name="top"/>
  <outline>
    <contour>
      <point x="120" y="0" type="line"/>
      <point x="296" y="0" type="line"/>
      <point x="296" y="498" type="line"/>
      <point x="594" y="0" type="line"/>
      <point x="806" y="0" type="line"/>
      <point x="476" y="528" type="line"/>
      <point x="800" y="980" type="line"/>
      <point x="590" y="980" type="line"/>
      <point x="296" y="538" type="line"/>
      <point x="296" y="1500" type="line"/>
      <point x="120" y="1500" type="line"/>
    </contour>
  </outline>
</glyph>
<glyph name="l" format="2">
  <advance width="456"/>
  <unicode hex="006C"/>
  <anchor x="286" y="0" name="bottom"/>
  <anchor x="476" y="830" name="center"/>
  <anchor x="198" y="1500" name="top"/>
  <anchor x="366" y="1500" name="topright"/>
  <outline>
    <contour>
      <point x="330" y="-20" type="curve" smooth="yes"/>
      <point x="390" y="-20" type="line"/>
      <point x="412" y="124" type="line"/>
      <point x="304" y="124"/>
      <point x="286" y="152"/>
      <point x="286" y="320" type="curve" smooth="yes"/>
      <point x="286" y="1500" type="line"/>
      <point x="110" y="1500" type="line"/>
      <point x="110" y="216" type="line" smooth="yes"/>
      <point x="110" y="98"/>
      <point x="170" y="-20"/>
    </contour>
  </outline>
</glyph>
<glyph name="m" format="2">
  <advance width="1490"/>
  <unicode hex="006D"/>
  <anchor x="752" y="0" name="bottom"/>
  <anchor x="772" y="980" name="top"/>
  <outline>
    <contour>
      <point x="100" y="0" type="line"/>
      <point x="276" y="0" type="line"/>
      <point x="276" y="766" type="line"/>
      <point x="252" y="656" type="line"/>
      <point x="300" y="768"/>
      <point x="384" y="840"/>
      <point x="490" y="840" type="curve" smooth="yes"/>
      <point x="608" y="840"/>
      <point x="664" y="746"/>
      <point x="664" y="540" type="curve" smooth="yes"/>
      <point x="664" y="0" type="line"/>
      <point x="840" y="0" type="line"/>
      <point x="840" y="562" type="line" smooth="yes"/>
      <point x="840" y="740"/>
      <point x="912" y="840"/>
      <point x="1042" y="840" type="curve" smooth="yes"/>
      <point x="1180" y="840"/>
      <point x="1228" y="746"/>
      <point x="1228" y="540" type="curve" smooth="yes"/>
      <point x="1228" y="0" type="line"/>
      <point x="1404" y="0" type="line"/>
      <point x="1404" y="562" type="line" smooth="yes"/>
      <point x="1404" y="824"/>
      <point x="1320" y="1000"/>
      <point x="1080" y="1000" type="curve" smooth="yes"/>
      <point x="924" y="1000"/>
      <point x="818" y="922"/>
      <point x="774" y="802" type="curve"/>
      <point x="818" y="750" type="line"/>
      <point x="778" y="904"/>
      <point x="682" y="1000"/>
      <point x="530" y="1000" type="curve" smooth="yes"/>
      <point x="392" y="1000"/>
      <point x="276" y="922"/>
      <point x="234" y="802" type="curve"/>
      <point x="266" y="810" type="line"/>
      <point x="246" y="980" type="line"/>
      <point x="100" y="980" type="line"/>
    </contour>
  </outline>
</glyph>
<glyph name="n" format="2">
  <advance width="934"/>
  <unicode hex="006E"/>
  <anchor x="464" y="0" name="bottom"/>
  <anchor x="474" y="980" name="top"/>
  <outline>
    <contour>
      <point x="100" y="0" type="line"/>
      <point x="276" y="0" type="line"/>
      <point x="276" y="766" type="line"/>
      <point x="252" y="656" type="line"/>
      <point x="300" y="770"/>
      <point x="384" y="844"/>
      <point x="490" y="844" type="curve" smooth="yes"/>
      <point x="610" y="844"/>
      <point x="668" y="748"/>
      <point x="668" y="540" type="curve" smooth="yes"/>
      <point x="668" y="0" type="line"/>
      <point x="844" y="0" type="line"/>
      <point x="844" y="562" type="line" smooth="yes"/>
      <point x="844" y="824"/>
      <point x="738" y="1000"/>
      <point x="530" y="1000" type="curve" smooth="yes"/>
      <point x="392" y="1000"/>
      <point x="276" y="922"/>
      <point x="234" y="802" type="curve"/>
      <point x="266" y="810" type="line"/>
      <point x="250" y="980" type="line"/>
      <point x="100" y="980" type="line"/>
    </contour>
  </outline>
</glyph>
<glyph name="o" format="2">
  <advance width="946"/>
  <unicode hex="006F"/>
  <anchor x="474" y="0" name="bottom"/>
  <anchor x="512" y="0" name="ogonek"/>
  <anchor x="474" y="980" name="top"/>
  <anchor x="554" y="980" name="topright"/>
  <outline>
    <contour>
      <point x="474" y="-20" type="curve" smooth="yes"/>
      <point x="742" y="-20"/>
      <point x="898" y="206"/>
      <point x="898" y="490" type="curve" smooth="yes"/>
      <point x="898" y="774"/>
      <point x="742" y="1000"/>
      <point x="474" y="1000" type="curve" smooth="yes"/>
      <point x="204" y="1000"/>
      <point x="48" y="774"/>
      <point x="48" y="490" type="curve" smooth="yes"/>
      <point x="48" y="206"/>
      <point x="204" y="-20"/>
    </contour>
    <contour>
      <point x="474" y="136" type="curve" smooth="yes"/>
      <point x="316" y="136"/>
      <point x="228" y="268"/>
      <point x="228" y="490" type="curve" smooth="yes"/>
      <point x="228" y="712"/>
      <point x="316" y="844"/>
      <point x="474" y="844" type="curve" smooth="yes"/>
      <point x="630" y="844"/>
      <point x="718" y="712"/>
      <point x="718" y="490" type="curve" smooth="yes"/>
      <point x="718" y="268"/>
      <point x="630" y="136"/>
    </contour>
  </outline>
</glyph>
<glyph name="p" format="2">
  <advance width="972"/>
  <unicode hex="0070"/>
  <outline>
    <contour>
      <point x="112" y="-484" type="line"/>
      <point x="288" y="-484" type="line"/>
      <point x="288" y="210" type="line"/>
      <point x="230" y="184" type="line"/>
      <point x="280" y="48"/>
      <point x="400" y="-20"/>
      <point x="538" y="-20" type="curve" smooth="yes"/>
      <point x="796" y="-20"/>
      <point x="928" y="204"/>
      <point x="928" y="490" type="curve" smooth="yes"/>
      <point x="928" y="776"/>
      <point x="782" y="1000"/>
      <point x="538" y="1000" type="curve" smooth="yes"/>
      <point x="388" y="1000"/>
      <point x="288" y="920"/>
      <point x="218" y="792" type="curve"/>
      <point x="280" y="756" type="line"/>
      <point x="248" y="980" type="line"/>
      <point x="112" y="980" type="line"/>
    </contour>
    <contour>
      <point x="506" y="136" type="curve" smooth="yes"/>
      <point x="390" y="136"/>
      <point x="266" y="242"/>
      <point x="266" y="490" type="curve" smooth="yes"/>
      <point x="266" y="728"/>
      <point x="390" y="844"/>
      <point x="506" y="844" type="curve" smooth="yes"/>
      <point x="658" y="844"/>
      <point x="748" y="712"/>
      <point x="748" y="490" type="curve" smooth="yes"/>
      <point x="748" y="268"/>
      <point x="658" y="136"/>
    </contour>
  </outline>
</glyph>
<glyph name="q" format="2">
  <advance width="986"/>
  <unicode hex="0071"/>
  <outline>
    <contour>
      <point x="752" y="-484" type="line"/>
      <point x="928" y="-484" type="line"/>
      <point x="928" y="980" type="line"/>
      <point x="792" y="980" type="line"/>
      <point x="760" y="756" type="line"/>
      <point x="834" y="814" type="line"/>
      <point x="764" y="932"/>
      <point x="676" y="1000"/>
      <point x="518" y="1000" type="curve" smooth="yes"/>
      <point x="262" y="1000"/>
      <point x="112" y="758"/>
      <point x="112" y="490" type="curve" smooth="yes"/>
      <point x="112" y="204"/>
      <point x="250" y="-20"/>
      <point x="520" y="-20" type="curve" smooth="yes"/>
      <point x="664" y="-20"/>
      <point x="774" y="52"/>
      <point x="830" y="180" type="curve"/>
      <point x="752" y="210" type="line"/>
    </contour>
    <contour>
      <point x="536" y="136" type="curve" smooth="yes"/>
      <point x="384" y="136"/>
      <point x="292" y="268"/>
      <point x="292" y="490" type="curve" smooth="yes"/>
      <point x="292" y="712"/>
      <point x="384" y="844"/>
      <point x="536" y="844" type="curve" smooth="yes"/>
      <point x="668" y="844"/>
      <point x="776" y="728"/>
      <point x="776" y="490" type="curve" smooth="yes"/>
      <point x="776" y="242"/>
      <point x="668" y="136"/>
    </contour>
  </outline>
</glyph>
<glyph name="r" format="2">
  <advance width="590"/>
  <unicode hex="0072"/>
  <anchor x="202" y="0" name="bottom"/>
  <anchor x="362" y="980" name="top"/>
  <outline>
    <contour>
      <point x="114" y="0" type="line"/>
      <point x="290" y="0" type="line"/>
      <point x="290" y="692" type="line"/>
      <point x="322" y="746"/>
      <point x="406" y="802"/>
      <point x="496" y="802" type="curve" smooth="yes"/>
      <point x="520" y="802"/>
      <point x="538" y="800"/>
      <point x="556" y="796" type="curve"/>
      <point x="574" y="994" type="line"/>
      <point x="560" y="998"/>
      <point x="544" y="1000"/>
      <point x="528" y="1000" type="curve" smooth="yes"/>
      <point x="440" y="1000"/>
      <point x="366" y="942"/>
      <point x="280" y="818" type="curve"/>
      <point x="258" y="980" type="line"/>
      <point x="114" y="980" type="line"/>
    </contour>
  </outline>
</glyph>
<glyph name="s" format="2">
  <advance width="720"/>
  <unicode hex="0073"/>
  <anchor x="362" y="0" name="bottom"/>
  <anchor x="400" y="980" name="top"/>
  <outline>
    <contour>
      <point x="364" y="-20" type="curve" smooth="yes"/>
      <point x="560" y="-20"/>
      <point x="684" y="88"/>
      <point x="684" y="274" type="curve" smooth="yes"/>
      <point x="684" y="418"/>
      <point x="612" y="490"/>
      <point x="428" y="574" type="curve" smooth="yes"/>
      <point x="310" y="628"/>
      <point x="256" y="652"/>
      <point x="256" y="730" type="curve" smooth="yes"/>
      <point x="256" y="802"/>
      <point x="312" y="844"/>
      <point x="404" y="844" type="curve" smooth="yes"/>
      <point x="498" y="844"/>
      <point x="556" y="816"/>
      <point x="620" y="772" type="curve"/>
      <point x="642" y="936" type="line"/>
      <point x="578" y="974"/>
      <point x="502" y="1000"/>
      <point x="390" y="1000" type="curve" smooth="yes"/>
      <point x="198" y="1000"/>
      <point x="80" y="886"/>
      <point x="80" y="728" type="curve" smooth="yes"/>
      <point x="80" y="588"/>
      <point x="148" y="512"/>
      <point x="288" y="448" type="curve" smooth="yes"/>
      <point x="454" y="372"/>
      <point x="504" y="342"/>
      <point x="504" y="254" type="curve" smooth="yes"/>
      <point x="504" y="174"/>
      <point x="444" y="136"/>
      <point x="352" y="136" type="curve" smooth="yes"/>
      <point x="262" y="136"/>
      <point x="172" y="172"/>
      <point x="88" y="236" type="curve"/>
      <point x="66" y="60" type="line"/>
      <point x="148" y="8"/>
      <point x="244" y="-20"/>
    </contour>
  </outline>
</glyph>
<glyph name="u" format="2">
  <advance width="950"/>
  <unicode hex="0075"/>
  <anchor x="420" y="0" name="bottom"/>
  <anchor x="760" y="0" name="ogonek"/>
  <anchor x="448" y="980" name="top"/>
  <anchor x="690" y="980" name="topright"/>
  <outline>
    <contour>
      <point x="396" y="-20" type="curve" smooth="yes"/>
      <point x="530" y="-20"/>
      <point x="642" y="58"/>
      <point x="682" y="178" type="curve"/>
      <point x="650" y="170" type="line"/>
      <point x="666" y="0" type="line"/>
      <point x="816" y="0" type="line"/>
      <point x="816" y="980" type="line"/>
      <point x="640" y="980" type="line"/>
      <point x="640" y="214" type="line"/>
      <point x="664" y="324" type="line"/>
      <point x="618" y="212"/>
      <point x="538" y="140"/>
      <point x="436" y="140" type="curve" smooth="yes"/>
      <point x="312" y="140"/>
      <point x="268" y="232"/>
      <point x="268" y="400" type="curve" smooth="yes"/>
      <point x="268" y="980" type="line"/>
      <point x="92" y="980" type="line"/>
      <point x="92" y="378" type="line" smooth="yes"/>
      <point x="92" y="130"/>
      <point x="184" y="-20"/>
    </contour>
  </outline>
</glyph>
<glyph name="v" format="2">
  <advance width="842"/>
  <unicode hex="0076"/>
  <outline>
    <contour>
      <point x="334" y="0" type="line"/>
      <point x="510" y="0" type="line"/>
      <point x="834" y="980" type="line"/>
      <point x="646" y="980" type="line"/>
      <point x="422" y="210" type="line"/>
      <point x="196" y="980" type="line"/>
      <point x="8" y="980" type="line"/>
    </contour>
  </outline>
</glyph>
<glyph name="w" format="2">
  <advance width="1226"/>
  <unicode hex="0077"/>
  <anchor x="614" y="0" name="bottom"/>
  <anchor x="614" y="980" name="top"/>
  <outline>
    <contour>
      <point x="260" y="0" type="line"/>
      <point x="436" y="0" type="line"/>
      <point x="612" y="724" type="line"/>
      <point x="790" y="0" type="line"/>
      <point x="966" y="0" type="line"/>
      <point x="1218" y="980" type="line"/>
      <point x="1022" y="980" type="line"/>
      <point x="868" y="198" type="line"/>
      <point x="696" y="950" type="line"/>
      <point x="528" y="950" type="line"/>
      <point x="358" y="198" type="line"/>
      <point x="204" y="980" type="line"/>
      <point x="8" y="980" type="line"/>
    </contour>
  </outline>
</glyph>
<glyph name="x" format="2">
  <advance width="824"/>
  <unicode hex="0078"/>
  <outline>
    <contour>
      <point x="16" y="0" type="line"/>
      <point x="224" y="0" type="line"/>
      <point x="410" y="386" type="line"/>
      <point x="600" y="0" type="line"/>
      <point x="808" y="0" type="line"/>
      <point x="524" y="504" type="line"/>
      <point x="802" y="980" type="line"/>
      <point x="590" y="980" type="line"/>
      <point x="416" y="592" type="line"/>
      <point x="228" y="980" type="line"/>
      <point x="20" y="980" type="line"/>
      <point x="302" y="488" type="line"/>
    </contour>
  </outline>
</glyph>
<glyph name="y" format="2">
  <advance width="892"/>
  <unicode hex="0079"/>
  <anchor x="650" y="0" name="bottom"/>
  <anchor x="446" y="980" name="top"/>
  <outline>
    <contour>
      <point x="170" y="-484" type="line"/>
      <point x="358" y="-484" type="line"/>
      <point x="884" y="980" type="line"/>
      <point x="696" y="980" type="line"/>
      <point x="456" y="252" type="line"/>
      <point x="196" y="980" type="line"/>
      <point x="8" y="980" type="line"/>
      <point x="366" y="44" type="line"/>
    </contour>
  </outline>
</glyph>
<glyph name="z" format="2">
  <advance width="812"/>
  <unicode hex="007A"/>
  <anchor x="398" y="0" name="bottom"/>
  <anchor x="414" y="980" name="top"/>
  <outline>
    <contour>
      <point x="36" y="0" type="line"/>
      <point x="758" y="0" type="line"/>
      <point x="758" y="158" type="line"/>
      <point x="256" y="158" type="line"/>
      <point x="270" y="68" type="line"/>
      <point x="768" y="980" type="line"/>
      <point x="58" y="980" type="line"/>
      <point x="58" y="822" type="line"/>
      <point x="548" y="822" type="line"/>
      <point x="534" y="912" type="line"/>
    </contour>
  </outline>
</glyph>
<glyph name="braceleft" format="2">
  <advance width="544"/>
  <unicode hex="007B"/>
  <outline>
    <contour>
      <point x="490" y="-272" type="curve" smooth="yes"/>
      <point x="544" y="-272" type="line"/>
      <point x="544" y="-134" type="line"/>
      <point x="510" y="-134" type="line" smooth="yes"/>
      <point x="388" y="-134"/>
      <point x="318" y="-76"/>
      <point x="318" y="88" type="curve" smooth="yes"/>
      <point x="318" y="182"/>
      <point x="334" y="308"/>
      <point x="334" y="400" type="curve" smooth="yes"/>
      <point x="334" y="536"/>
      <point x="264" y="592"/>
      <point x="154" y="622" type="curve"/>
      <point x="154" y="606" type="line"/>
      <point x="264" y="636"/>
      <point x="334" y="692"/>
      <point x="334" y="828" type="curve" smooth="yes"/>
      <point x="334" y="920"/>
      <point x="318" y="1046"/>
      <point x="318" y="1140" type="curve" smooth="yes"/>
      <point x="318" y="1304"/>
      <point x="388" y="1362"/>
      <point x="510" y="1362" type="curve" smooth="yes"/>
      <point x="544" y="1362" type="line"/>
      <point x="544" y="1500" type="line"/>
      <point x="490" y="1500" type="line" smooth="yes"/>
      <point x="268" y="1500"/>
      <point x="176" y="1376"/>
      <point x="176" y="1200" type="curve" smooth="yes"/>
      <point x="176" y="1110"/>
      <point x="192" y="986"/>
      <point x="192" y="888" type="curve" smooth="yes"/>
      <point x="192" y="744"/>
      <point x="154" y="674"/>
      <point x="32" y="674" type="curve"/>
      <point x="32" y="554" type="line"/>
      <point x="154" y="554"/>
      <point x="192" y="484"/>
      <point x="192" y="340" type="curve" smooth="yes"/>
      <point x="192" y="242"/>
      <point x="176" y="118"/>
      <point x="176" y="28" type="curve" smooth="yes"/>
      <point x="176" y="-148"/>
      <point x="268" y="-272"/>
    </contour>
  </outline>
</glyph>
<glyph name="bar" format="2">
  <advance width="452"/>
  <unicode hex="007C"/>
  <outline>
    <contour>
      <point x="140" y="-418" type="line"/>
      <point x="312" y="-418" type="line"/>
      <point x="312" y="1500" type="line"/>
      <point x="140" y="1500" type="line"/>
    </contour>
  </outline>
</glyph>
<glyph name="braceright" format="2">
  <advance width="544"/>
  <unicode hex="007D"/>
  <outline>
    <contour>
      <point x="0" y="-272" type="line"/>
      <point x="54" y="-272" type="line" smooth="yes"/>
      <point x="276" y="-272"/>
      <point x="368" y="-148"/>
      <point x="368" y="28" type="curve" smooth="yes"/>
      <point x="368" y="118"/>
      <point x="352" y="242"/>
      <point x="352" y="340" type="curve" smooth="yes"/>
      <point x="352" y="484"/>
      <point x="390" y="554"/>
      <point x="512" y="554" type="curve"/>
      <point x="512" y="674" type="line"/>
      <point x="390" y="674"/>
      <point x="352" y="744"/>
      <point x="352" y="888" type="curve" smooth="yes"/>
      <point x="352" y="986"/>
      <point x="368" y="1110"/>
      <point x="368" y="1200" type="curve" smooth="yes"/>
      <point x="368" y="1376"/>
      <point x="276" y="1500"/>
      <point x="54" y="1500" type="curve" smooth="yes"/>
      <point x="0" y="1500" type="line"/>
      <point x="0" y="1362" type="line"/>
      <point x="34" y="1362" type="line" smooth="yes"/>
      <point x="156" y="1362"/>
      <point x="226" y="1304"/>
      <point x="226" y="1140" type="curve" smooth="yes"/>
      <point x="226" y="1046"/>
      <point x="210" y="920"/>
      <point x="210" y="828" type="curve" smooth="yes"/>
      <point x="210" y="692"/>
      <point x="280" y="636"/>
      <point x="390" y="606" type="curve"/>
      <point x="390" y="622" type="line"/>
      <point x="280" y="592"/>
      <point x="210" y="536"/>
      <point x="210" y="400" type="curve" smooth="yes"/>
      <point x="210" y="308"/>
      <point x="226" y="182"/>
      <point x="226" y="88" type="curve" smooth="yes"/>
      <point x="226" y="-76"/>
      <point x="156" y="-134"/>
      <point x="34" y="-134" type="curve" smooth="yes"/>
      <point x="0" y="-134" type="line"/>
    </contour>
  </outline>
</glyph>
<glyph name="asciitilde" format="2">
  <advance width="808"/>
  <unicode hex="007E"/>
  <outline>
    <contour>
      <point x="556" y="594" type="curve" smooth="yes"/>
      <point x="668" y="594"/>
      <point x="730" y="680"/>
      <point x="736" y="838" type="curve"/>
      <point x="594" y="838" type="line"/>
      <point x="594" y="784"/>
      <point x="570" y="752"/>
      <point x="530" y="752" type="curve" smooth="yes"/>
      <point x="438" y="752"/>
      <point x="380" y="840"/>
      <point x="252" y="840" type="curve" smooth="yes"/>
      <point x="140" y="840"/>
      <point x="78" y="754"/>
      <point x="72" y="596" type="curve"/>
      <point x="214" y="596" type="line"/>
      <point x="214" y="650"/>
      <point x="238" y="682"/>
      <point x="278" y="682" type="curve" smooth="yes"/>
      <point x="376" y="682"/>
      <point x="432" y="594"/>
    </contour>
  </outline>
</glyph>
<glyph name="cent" format="2">
  <advance width="770"/>
  <unicode hex="00A2"/>
  <outline>
    <contour>
      <point x="504" y="-20" type="curve" smooth="yes"/>
      <point x="588" y="-20"/>
      <point x="672" y="0"/>
      <point x="724" y="26" type="curve"/>
      <point x="700" y="182" type="line"/>
      <point x="644" y="150"/>
      <point x="584" y="136"/>
      <point x="518" y="136" type="curve" smooth="yes"/>
      <point x="334" y="136"/>
      <point x="228" y="276"/>
      <point x="228" y="492" type="curve" smooth="yes"/>
      <point x="228" y="712"/>
      <point x="334" y="844"/>
      <point x="512" y="844" type="curve" smooth="yes"/>
      <point x="580" y="844"/>
      <point x="642" y="826"/>
      <point x="698" y="796" type="curve"/>
      <point x="726" y="950" type="line"/>
      <point x="668" y="980"/>
      <point x="590" y="1000"/>
      <point x="508" y="1000" type="curve" smooth="yes"/>
      <point x="192" y="1000"/>
      <point x="48" y="776"/>
      <point x="48" y="484" type="curve" smooth="yes"/>
      <point x="48" y="204"/>
      <point x="192" y="-20"/>
    </contour>
    <contour>
      <point x="386" y="-288" type="line"/>
      <point x="542" y="-288" type="line"/>
      <point x="522" y="68" type="line"/>
      <point x="406" y="68" type="line"/>
    </contour>
    <contour>
      <point x="406" y="918" type="line"/>
      <point x="522" y="918" type="line"/>
      <point x="542" y="1260" type="line"/>
      <point x="386" y="1260" type="line"/>
    </contour>
  </outline>
</glyph>
<glyph name="sterling" format="2">
  <advance width="898"/>
  <unicode hex="00A3"/>
  <outline>
    <contour>
      <point x="80" y="0" type="curve"/>
      <point x="858" y="0" type="line"/>
      <point x="858" y="168" type="line"/>
      <point x="246" y="168" type="line"/>
      <point x="290" y="98" type="line"/>
      <point x="366" y="268"/>
      <point x="394" y="394"/>
      <point x="420" y="652" type="curve" smooth="yes"/>
      <point x="458" y="1016" type="line" smooth="yes"/>
      <point x="474" y="1166"/>
      <point x="530" y="1260"/>
      <point x="642" y="1260" type="curve" smooth="yes"/>
      <point x="712" y="1260"/>
      <point x="766" y="1230"/>
      <point x="828" y="1176" type="curve"/>
      <point x="848" y="1374" type="line"/>
      <point x="782" y="1406"/>
      <point x="714" y="1428"/>
      <point x="632" y="1428" type="curve" smooth="yes"/>
      <point x="408" y="1428"/>
      <point x="300" y="1264"/>
      <point x="276" y="1000" type="curve" smooth="yes"/>
      <point x="238" y="636" type="line" smooth="yes"/>
      <point x="212" y="380"/>
      <point x="168" y="220"/>
    </contour>
    <contour>
      <point x="100" y="634" type="line"/>
      <point x="752" y="634" type="line"/>
      <point x="752" y="778" type="line"/>
      <point x="100" y="778" type="line"/>
    </contour>
  </outline>
</glyph>
<glyph name="currency" format="2">
  <advance width="1256"/>
  <unicode hex="00A4"/>
  <outline>
    <contour>
      <point x="628" y="1204" type="curve" smooth="yes"/>
      <point x="360" y="1204"/>
      <point x="168" y="984"/>
      <point x="168" y="696" type="curve" smooth="yes"/>
      <point x="168" y="408"/>
      <point x="354" y="188"/>
      <point x="628" y="188" type="curve" smooth="yes"/>
      <point x="898" y="188"/>
      <point x="1088" y="404"/>
      <point x="1088" y="696" type="curve" smooth="yes"/>
      <point x="1088" y="980"/>
      <point x="900" y="1204"/>
    </contour>
    <contour>
      <point x="628" y="1040" type="curve" smooth="yes"/>
      <point x="812" y="1040"/>
      <point x="908" y="888"/>
      <point x="908" y="696" type="curve" smooth="yes"/>
      <point x="908" y="504"/>
      <point x="812" y="352"/>
      <point x="628" y="352" type="curve" smooth="yes"/>
      <point x="444" y="352"/>
      <point x="348" y="504"/>
      <point x="348" y="696" type="curve" smooth="yes"/>
      <point x="348" y="888"/>
      <point x="444" y="1040"/>
    </contour>
    <contour>
      <point x="160" y="1272" type="line"/>
      <point x="104" y="1216" type="line"/>
      <point x="338" y="982" type="line"/>
      <point x="398" y="1034" type="line"/>
    </contour>
    <contour>
      <point x="346" y="418" type="line"/>
      <point x="104" y="176" type="line"/>
      <point x="160" y="120" type="line"/>
      <point x="402" y="362" type="line"/>
    </contour>
    <contour>
      <point x="908" y="420" type="line"/>
      <point x="852" y="364" type="line"/>
      <point x="1096" y="120" type="line"/>
      <point x="1152" y="176" type="line"/>
    </contour>
    <contour>
      <point x="1096" y="1272" type="line"/>
      <point x="854" y="1030" type="line"/>
      <point x="910" y="974" type="line"/>
      <point x="1152" y="1216" type="line"/>
    </contour>
  </outline>
</glyph>
<glyph name="yen" format="2">
  <advance width="1028"/>
  <unicode hex="00A5"/>
  <outline>
    <contour>
      <point x="424" y="0" type="line"/>
      <point x="608" y="0" type="line"/>
      <point x="608" y="606" type="line"/>
      <point x="1020" y="1400" type="line"/>
      <point x="816" y="1400" type="line"/>
      <point x="478" y="724" type="line"/>
      <point x="554" y="724" type="line"/>
      <point x="212" y="1400" type="line"/>
      <point x="8" y="1400" type="line"/>
      <point x="424" y="606" type="line"/>
    </contour>
    <contour>
      <point x="136" y="294" type="line"/>
      <point x="894" y="294" type="line"/>
      <point x="894" y="442" type="line"/>
      <point x="136" y="442" type="line"/>
    </contour>
    <contour>
      <point x="136" y="574" type="line"/>
      <point x="894" y="574" type="line"/>
      <point x="894" y="722" type="line"/>
      <point x="136" y="722" type="line"/>
    </contour>
  </outline>
</glyph>
<glyph name="section" format="2">
  <advance width="912"/>
  <unicode hex="00A7"/>
  <outline>
    <contour>
      <point x="412" y="-168" type="curve" smooth="yes"/>
      <point x="666" y="-168"/>
      <point x="748" y="-2"/>
      <point x="748" y="138" type="curve" smooth="yes"/>
      <point x="748" y="246"/>
      <point x="712" y="326"/>
      <point x="630" y="376" type="curve"/>
      <point x="798" y="446"/>
      <point x="838" y="572"/>
      <point x="838" y="662" type="curve" smooth="yes"/>
      <point x="838" y="1046"/>
      <point x="308" y="980"/>
      <point x="308" y="1224" type="curve" smooth="yes"/>
      <point x="308" y="1310"/>
      <point x="382" y="1380"/>
      <point x="502" y="1380" type="curve" smooth="yes"/>
      <point x="592" y="1380"/>
      <point x="688" y="1340"/>
      <point x="762" y="1294" type="curve"/>
      <point x="788" y="1420" type="line"/>
      <point x="730" y="1458"/>
      <point x="620" y="1500"/>
      <point x="494" y="1500" type="curve" smooth="yes"/>
      <point x="276" y="1500"/>
      <point x="164" y="1368"/>
      <point x="164" y="1196" type="curve" smooth="yes"/>
      <point x="164" y="1092"/>
      <point x="200" y="1022"/>
      <point x="292" y="958" type="curve"/>
      <point x="160" y="898"/>
      <point x="74" y="798"/>
      <point x="74" y="660" type="curve" smooth="yes"/>
      <point x="74" y="282"/>
      <point x="630" y="376"/>
      <point x="620" y="120" type="curve" smooth="yes"/>
      <point x="616" y="6"/>
      <point x="534" y="-46"/>
      <point x="414" y="-46" type="curve" smooth="yes"/>
      <point x="320" y="-46"/>
      <point x="228" y="-10"/>
      <point x="152" y="36" type="curve"/>
      <point x="126" y="-90" type="line"/>
      <point x="178" y="-134"/>
      <point x="296" y="-168"/>
    </contour>
    <contour>
      <point x="534" y="438" type="curve"/>
      <point x="340" y="496"/>
      <point x="210" y="544"/>
      <point x="210" y="684" type="curve" smooth="yes"/>
      <point x="210" y="810"/>
      <point x="302" y="866"/>
      <point x="412" y="896" type="curve"/>
      <point x="548" y="844"/>
      <point x="690" y="766"/>
      <point x="690" y="648" type="curve" smooth="yes"/>
      <point x="690" y="550"/>
      <point x="630" y="464"/>
    </contour>
  </outline>
</glyph>
<glyph name="copyright" format="2">
  <advance width="1204"/>
  <unicode hex="00A9"/>
  <outline>
    <contour>
      <point x="602" y="74" type="curve" smooth="yes"/>
      <point x="912" y="74"/>
      <point x="1136" y="334"/>
      <point x="1136" y="730" type="curve" smooth="yes"/>
      <point x="1136" y="1128"/>
      <point x="912" y="1386"/>
      <point x="602" y="1386" type="curve" smooth="yes"/>
      <point x="294" y="1386"/>
      <point x="68" y="1128"/>
      <point x="68" y="730" type="curve" smooth="yes"/>
      <point x="68" y="334"/>
      <point x="294" y="74"/>
    </contour>
    <contour>
      <point x="618" y="394" type="curve" smooth="yes"/>
      <point x="674" y="394"/>
      <point x="736" y="408"/>
      <point x="782" y="434" type="curve"/>
      <point x="766" y="552" type="line"/>
      <point x="718" y="528"/>
      <point x="670" y="512"/>
      <point x="618" y="512" type="curve" smooth="yes"/>
      <point x="522" y="512"/>
      <point x="474" y="606"/>
      <point x="474" y="726" type="curve" smooth="yes"/>
      <point x="474" y="850"/>
      <point x="522" y="940"/>
      <point x="618" y="940" type="curve" smooth="yes"/>
      <point x="670" y="940"/>
      <point x="718" y="924"/>
      <point x="766" y="902" type="curve"/>
      <point x="782" y="1022" type="line"/>
      <point x="736" y="1044"/>
      <point x="674" y="1060"/>
      <point x="618" y="1060" type="curve" smooth="yes"/>
      <point x="456" y="1060"/>
      <point x="342" y="930"/>
      <point x="342" y="726" type="curve" smooth="yes"/>
      <point x="342" y="524"/>
      <point x="458" y="394"/>
    </contour>
    <contour>
      <point x="602" y="162" type="curve" smooth="yes"/>
      <point x="316" y="162"/>
      <point x="176" y="410"/>
      <point x="176" y="730" type="curve" smooth="yes"/>
      <point x="176" y="1050"/>
      <point x="316" y="1296"/>
      <point x="602" y="1296" type="curve" smooth="yes"/>
      <point x="888" y="1296"/>
      <point x="1028" y="1050"/>
      <point x="1028" y="730" type="curve" smooth="yes"/>
      <point x="1028" y="410"/>
      <point x="888" y="162"/>
    </contour>
  </outline>
</glyph>
<glyph name="ordfeminine" format="2">
  <advance width="596"/>
  <unicode hex="00AA"/>
  <outline>
    <contour>
      <point x="212" y="868" type="curve" smooth="yes"/>
      <point x="276" y="868"/>
      <point x="330" y="904"/>
      <point x="358" y="942" type="curve"/>
      <point x="378" y="902"/>
      <point x="412" y="874"/>
      <point x="476" y="874" type="curve" smooth="yes"/>
      <point x="534" y="874" type="line"/>
      <point x="544" y="996" type="line"/>
      <point x="522" y="996" type="line" smooth="yes"/>
      <point x="496" y="996"/>
      <point x="486" y="1012"/>
      <point x="486" y="1050" type="curve" smooth="yes"/>
      <point x="486" y="1234" type="line" smooth="yes"/>
      <point x="486" y="1388"/>
      <point x="402" y="1450"/>
      <point x="294" y="1450" type="curve" smooth="yes"/>
      <point x="232" y="1450"/>
      <point x="170" y="1436"/>
      <point x="96" y="1404" type="curve"/>
      <point x="106" y="1284" type="line"/>
      <point x="162" y="1310"/>
      <point x="202" y="1324"/>
      <point x="252" y="1324" type="curve" smooth="yes"/>
      <point x="316" y="1324"/>
      <point x="330" y="1296"/>
      <point x="334" y="1240" type="curve"/>
      <point x="202" y="1228"/>
      <point x="52" y="1182"/>
      <point x="52" y="1028" type="curve" smooth="yes"/>
      <point x="52" y="926"/>
      <point x="116" y="868"/>
    </contour>
    <contour>
      <point x="262" y="980" type="curve" smooth="yes"/>
      <point x="232" y="980"/>
      <point x="210" y="996"/>
      <point x="210" y="1038" type="curve" smooth="yes"/>
      <point x="210" y="1106"/>
      <point x="258" y="1132"/>
      <point x="336" y="1140" type="curve"/>
      <point x="336" y="1018" type="line"/>
      <point x="314" y="992"/>
      <point x="292" y="980"/>
    </contour>
  </outline>
</glyph>
<glyph name="logicalnot" format="2">
  <advance width="944"/>
  <unicode hex="00AC"/>
  <outline>
    <contour>
      <point x="696" y="302" type="line"/>
      <point x="852" y="302" type="line"/>
      <point x="852" y="812" type="line"/>
      <point x="92" y="812" type="line"/>
      <point x="92" y="664" type="line"/>
      <point x="696" y="664" type="line"/>
    </contour>
  </outline>
</glyph>
<glyph name="softhyphen" format="2">
  <advance width="742"/>
  <unicode hex="00AD"/>
  <outline>
    <contour>
      <point x="104" y="536" type="line"/>
      <point x="638" y="536" type="line"/>
      <point x="638" y="708" type="line"/>
      <point x="104" y="708" type="line"/>
    </contour>
  </outline>
</glyph>
<glyph name="registered" format="2">
  <advance width="1204"/>
  <unicode hex="00AE"/>
  <outline>
    <contour>
      <point x="602" y="74" type="curve" smooth="yes"/>
      <point x="912" y="74"/>
      <point x="1136" y="334"/>
      <point x="1136" y="730" type="curve" smooth="yes"/>
      <point x="1136" y="1128"/>
      <point x="912" y="1386"/>
      <point x="602" y="1386" type="curve" smooth="yes"/>
      <point x="294" y="1386"/>
      <point x="68" y="1128"/>
      <point x="68" y="730" type="curve" smooth="yes"/>
      <point x="68" y="334"/>
      <point x="294" y="74"/>
    </contour>
    <contour>
      <point x="602" y="160" type="curve" smooth="yes"/>
      <point x="316" y="160"/>
      <point x="176" y="410"/>
      <point x="176" y="730" type="curve" smooth="yes"/>
      <point x="176" y="1050"/>
      <point x="316" y="1298"/>
      <point x="602" y="1298" type="curve" smooth="yes"/>
      <point x="888" y="1298"/>
      <point x="1028" y="1050"/>
      <point x="1028" y="730" type="curve" smooth="yes"/>
      <point x="1028" y="410"/>
      <point x="888" y="160"/>
    </contour>
    <contour>
      <point x="396" y="420" type="line"/>
      <point x="522" y="420" type="line"/>
      <point x="522" y="654" type="line"/>
      <point x="598" y="654" type="line"/>
      <point x="708" y="420" type="line"/>
      <point x="838" y="420" type="line"/>
      <point x="714" y="688" type="line"/>
      <point x="764" y="732"/>
      <point x="802" y="792"/>
      <point x="802" y="862" type="curve" smooth="yes"/>
      <point x="802" y="1018"/>
      <point x="722" y="1062"/>
      <point x="606" y="1062" type="curve" smooth="yes"/>
      <point x="396" y="1062" type="line"/>
    </contour>
    <contour>
      <point x="522" y="766" type="line"/>
      <point x="522" y="964" type="line"/>
      <point x="582" y="964" type="line" smooth="yes"/>
      <point x="654" y="964"/>
      <point x="672" y="926"/>
      <point x="672" y="866" type="curve" smooth="yes"/>
      <point x="672" y="810"/>
      <point x="654" y="766"/>
      <point x="578" y="766" type="curve" smooth="yes"/>
    </contour>
  </outline>
</glyph>
<glyph name="degree" format="2">
  <advance width="534"/>
  <unicode hex="00B0"/>
  <outline>
    <contour>
      <point x="266" y="964" type="curve" smooth="yes"/>
      <point x="430" y="964"/>
      <point x="518" y="1084"/>
      <point x="518" y="1236" type="curve" smooth="yes"/>
      <point x="518" y="1388"/>
      <point x="430" y="1510"/>
      <point x="266" y="1510" type="curve" smooth="yes"/>
      <point x="102" y="1510"/>
      <point x="16" y="1388"/>
      <point x="16" y="1236" type="curve" smooth="yes"/>
      <point x="16" y="1084"/>
      <point x="102" y="964"/>
    </contour>
    <contour>
      <point x="266" y="1044" type="curve" smooth="yes"/>
      <point x="160" y="1044"/>
      <point x="108" y="1138"/>
      <point x="108" y="1236" type="curve" smooth="yes"/>
      <point x="108" y="1334"/>
      <point x="158" y="1430"/>
      <point x="266" y="1430" type="curve" smooth="yes"/>
      <point x="374" y="1430"/>
      <point x="424" y="1334"/>
      <point x="424" y="1236" type="curve" smooth="yes"/>
      <point x="424" y="1138"/>
      <point x="374" y="1044"/>
    </contour>
  </outline>
</glyph>
<glyph name="plusminus" format="2">
  <advance width="776"/>
  <unicode hex="00B1"/>
  <outline>
    <contour>
      <point x="318" y="348" type="line"/>
      <point x="458" y="348" type="line"/>
      <point x="458" y="624" type="line"/>
      <point x="706" y="624" type="line"/>
      <point x="706" y="764" type="line"/>
      <point x="458" y="764" type="line"/>
      <point x="458" y="1040" type="line"/>
      <point x="318" y="1040" type="line"/>
      <point x="318" y="764" type="line"/>
      <point x="70" y="764" type="line"/>
      <point x="70" y="624" type="line"/>
      <point x="318" y="624" type="line"/>
    </contour>
    <contour>
      <point x="70" y="120" type="line"/>
      <point x="706" y="120" type="line"/>
      <point x="706" y="260" type="line"/>
      <point x="70" y="260" type="line"/>
    </contour>
  </outline>
</glyph>
<glyph name="micro" format="2">
  <advance width="952"/>
  <unicode hex="00B5"/>
  <outline>
    <contour>
      <point x="100" y="-484" type="line"/>
      <point x="274" y="-484" type="line"/>
      <point x="274" y="34" type="line"/>
      <point x="316" y="-2"/>
      <point x="370" y="-22"/>
      <point x="436" y="-22" type="curve" smooth="yes"/>
      <point x="536" y="-22"/>
      <point x="602" y="26"/>
      <point x="662" y="106" type="curve"/>
      <point x="698" y="20"/>
      <point x="764" y="-20"/>
      <point x="860" y="-20" type="curve" smooth="yes"/>
      <point x="892" y="-20" type="line"/>
      <point x="908" y="124" type="line"/>
      <point x="900" y="124" type="line" smooth="yes"/>
      <point x="844" y="124"/>
      <point x="824" y="152"/>
      <point x="824" y="218" type="curve" smooth="yes"/>
      <point x="824" y="980" type="line"/>
      <point x="648" y="980" type="line"/>
      <point x="648" y="254" type="line"/>
      <point x="598" y="180"/>
      <point x="544" y="138"/>
      <point x="460" y="138" type="curve" smooth="yes"/>
      <point x="338" y="138"/>
      <point x="276" y="230"/>
      <point x="276" y="386" type="curve" smooth="yes"/>
      <point x="276" y="980" type="line"/>
      <point x="100" y="980" type="line"/>
    </contour>
  </outline>
</glyph>
<glyph name="paragraph" format="2">
  <advance width="1076"/>
  <unicode hex="00B6"/>
  <outline>
    <contour>
      <point x="524" y="0" type="line"/>
      <point x="616" y="0" type="line"/>
      <point x="616" y="1266" type="line"/>
      <point x="760" y="1266" type="line"/>
      <point x="760" y="0" type="line"/>
      <point x="872" y="0" type="line"/>
      <point x="872" y="1266" type="line"/>
      <point x="996" y="1266" type="line"/>
      <point x="996" y="1400" type="line"/>
      <point x="550" y="1400" type="line" smooth="yes"/>
      <point x="214" y="1400"/>
      <point x="56" y="1168"/>
      <point x="56" y="948" type="curve" smooth="yes"/>
      <point x="56" y="734"/>
      <point x="202" y="508"/>
      <point x="524" y="486" type="curve"/>
    </contour>
  </outline>
</glyph>
<glyph name="periodcentered" format="2">
  <advance width="442"/>
  <unicode hex="00B7"/>
  <outline>
    <contour>
      <point x="114" y="426" type="line"/>
      <point x="328" y="426" type="line"/>
      <point x="328" y="686" type="line"/>
      <point x="114" y="686" type="line"/>
    </contour>
  </outline>
</glyph>
<glyph name="ordmasculine" format="2">
  <advance width="638"/>
  <unicode hex="00BA"/>
  <outline>
    <contour>
      <point x="320" y="868" type="curve" smooth="yes"/>
      <point x="488" y="868"/>
      <point x="586" y="1004"/>
      <point x="586" y="1160" type="curve" smooth="yes"/>
      <point x="586" y="1316"/>
      <point x="488" y="1450"/>
      <point x="320" y="1450" type="curve" smooth="yes"/>
      <point x="150" y="1450"/>
      <point x="52" y="1316"/>
      <point x="52" y="1160" type="curve" smooth="yes"/>
      <point x="52" y="1004"/>
      <point x="150" y="868"/>
    </contour>
    <contour>
      <point x="320" y="988" type="curve" smooth="yes"/>
      <point x="246" y="988"/>
      <point x="204" y="1060"/>
      <point x="204" y="1160" type="curve" smooth="yes"/>
      <point x="204" y="1260"/>
      <point x="246" y="1332"/>
      <point x="320" y="1332" type="curve" smooth="yes"/>
      <point x="392" y="1332"/>
      <point x="434" y="1260"/>
      <point x="434" y="1160" type="curve" smooth="yes"/>
      <point x="434" y="1060"/>
      <point x="392" y="988"/>
    </contour>
  </outline>
</glyph>
<glyph name="AE" format="2">
  <advance width="1506"/>
  <unicode hex="00C6"/>
  <anchor x="754" y="0" name="bottom"/>
  <anchor x="1008" y="1400" name="top"/>
  <outline>
    <contour>
      <point x="-10" y="0" type="line"/>
      <point x="184" y="0" type="line"/>
      <point x="682" y="1190" type="line"/>
      <point x="682" y="0" type="line"/>
      <point x="1448" y="0" type="line"/>
      <point x="1448" y="168" type="line"/>
      <point x="866" y="168" type="line"/>
      <point x="866" y="648" type="line"/>
      <point x="1312" y="648" type="line"/>
      <point x="1312" y="816" type="line"/>
      <point x="866" y="816" type="line"/>
      <point x="866" y="1232" type="line"/>
      <point x="1432" y="1232" type="line"/>
      <point x="1432" y="1400" type="line"/>
      <point x="582" y="1400" type="line"/>
    </contour>
    <contour>
      <point x="268" y="370" type="line"/>
      <point x="782" y="370" type="line"/>
      <point x="782" y="542" type="line"/>
      <point x="268" y="542" type="line"/>
    </contour>
  </outline>
</glyph>
<glyph name="Eth" format="2">
  <advance width="1246"/>
  <unicode hex="00D0"/>
  <outline>
    <contour>
      <point x="144" y="0" type="line"/>
      <point x="588" y="0" type="line" smooth="yes"/>
      <point x="934" y="0"/>
      <point x="1184" y="258"/>
      <point x="1184" y="700" type="curve" smooth="yes"/>
      <point x="1184" y="1142"/>
      <point x="934" y="1400"/>
      <point x="588" y="1400" type="curve" smooth="yes"/>
      <point x="144" y="1400" type="line"/>
      <point x="144" y="794" type="line"/>
      <point x="20" y="794" type="line"/>
      <point x="20" y="626" type="line"/>
      <point x="144" y="626" type="line"/>
    </contour>
    <contour>
      <point x="328" y="168" type="line"/>
      <point x="328" y="626" type="line"/>
      <point x="566" y="626" type="line"/>
      <point x="566" y="794" type="line"/>
      <point x="328" y="794" type="line"/>
      <point x="328" y="1232" type="line"/>
      <point x="556" y="1232" type="line" smooth="yes"/>
      <point x="836" y="1232"/>
      <point x="980" y="1034"/>
      <point x="980" y="700" type="curve" smooth="yes"/>
      <point x="980" y="366"/>
      <point x="836" y="168"/>
      <point x="556" y="168" type="curve" smooth="yes"/>
    </contour>
  </outline>
</glyph>
<glyph name="multiply" format="2">
  <advance width="748"/>
  <unicode hex="00D7"/>
  <outline>
    <contour>
      <point x="156" y="224" type="line"/>
      <point x="698" y="810" type="line"/>
      <point x="590" y="910" type="line"/>
      <point x="48" y="324" type="line"/>
    </contour>
    <contour>
      <point x="592" y="224" type="line"/>
      <point x="700" y="324" type="line"/>
      <point x="158" y="910" type="line"/>
      <point x="50" y="810" type="line"/>
    </contour>
  </outline>
</glyph>
<glyph name="Oslash" format="2">
  <advance width="1306"/>
  <unicode hex="00D8"/>
  <guideline x="30" y="350" angle="90"/>
  <guideline x="623" y="350" angle="90"/>
  <anchor x="654" y="1400" name="top"/>
  <outline>
    <contour>
      <point x="90" y="-88" type="line"/>
      <point x="260" y="-88" type="line"/>
      <point x="1216" y="1488" type="line"/>
      <point x="1046" y="1488" type="line"/>
    </contour>
    <component base="O"/>
  </outline>
</glyph>
<glyph name="Thorn" format="2">
  <advance width="1024"/>
  <unicode hex="00DE"/>
  <outline>
    <contour>
      <point x="148" y="0" type="line"/>
      <point x="332" y="0" type="line"/>
      <point x="332" y="382" type="line"/>
      <point x="578" y="382" type="line" smooth="yes"/>
      <point x="862" y="382"/>
      <point x="988" y="524"/>
      <point x="988" y="736" type="curve" smooth="yes"/>
      <point x="988" y="948"/>
      <point x="864" y="1090"/>
      <point x="578" y="1090" type="curve" smooth="yes"/>
      <point x="332" y="1090" type="line"/>
      <point x="332" y="1400" type="line"/>
      <point x="148" y="1400" type="line"/>
    </contour>
    <contour>
      <point x="332" y="542" type="line"/>
      <point x="332" y="930" type="line"/>
      <point x="564" y="930" type="line" smooth="yes"/>
      <point x="722" y="930"/>
      <point x="804" y="862"/>
      <point x="804" y="736" type="curve" smooth="yes"/>
      <point x="804" y="610"/>
      <point x="722" y="542"/>
      <point x="564" y="542" type="curve" smooth="yes"/>
    </contour>
  </outline>
</glyph>
<glyph name="germandbls" format="2">
  <advance width="1002"/>
  <unicode hex="00DF"/>
  <outline>
    <contour>
      <point x="600" y="-28" type="curve" smooth="yes"/>
      <point x="792" y="-28"/>
      <point x="950" y="92"/>
      <point x="950" y="296" type="curve" smooth="yes"/>
      <point x="950" y="590"/>
      <point x="648" y="610"/>
      <point x="648" y="772" type="curve" smooth="yes"/>
      <point x="648" y="822"/>
      <point x="676" y="864"/>
      <point x="730" y="942" type="curve" smooth="yes"/>
      <point x="798" y="1040"/>
      <point x="830" y="1114"/>
      <point x="830" y="1226" type="curve" smooth="yes"/>
      <point x="830" y="1412"/>
      <point x="706" y="1528"/>
      <point x="516" y="1528" type="curve" smooth="yes"/>
      <point x="302" y="1528"/>
      <point x="154" y="1388"/>
      <point x="154" y="1100" type="curve" smooth="yes"/>
      <point x="154" y="980" type="line"/>
      <point x="50" y="980" type="line"/>
      <point x="34" y="840" type="line"/>
      <point x="154" y="840" type="line"/>
      <point x="154" y="0" type="line"/>
      <point x="330" y="0" type="line"/>
      <point x="330" y="1104" type="line" smooth="yes"/>
      <point x="330" y="1268"/>
      <point x="390" y="1368"/>
      <point x="512" y="1368" type="curve" smooth="yes"/>
      <point x="606" y="1368"/>
      <point x="656" y="1306"/>
      <point x="656" y="1210" type="curve" smooth="yes"/>
      <point x="656" y="1122"/>
      <point x="628" y="1072"/>
      <point x="562" y="980" type="curve" smooth="yes"/>
      <point x="502" y="896"/>
      <point x="468" y="834"/>
      <point x="468" y="750" type="curve" smooth="yes"/>
      <point x="468" y="508"/>
      <point x="770" y="524"/>
      <point x="770" y="288" type="curve" smooth="yes"/>
      <point x="770" y="188"/>
      <point x="702" y="128"/>
      <point x="592" y="128" type="curve" smooth="yes"/>
      <point x="526" y="128"/>
      <point x="478" y="136"/>
      <point x="424" y="152" type="curve"/>
      <point x="424" y="0" type="line"/>
      <point x="480" y="-18"/>
      <point x="540" y="-28"/>
    </contour>
  </outline>
</glyph>
<glyph name="ae" format="2">
  <advance width="1374"/>
  <unicode hex="00E6"/>
  <anchor x="710" y="980" name="top"/>
  <outline>
    <contour>
      <point x="332" y="-20" type="curve" smooth="yes"/>
      <point x="498" y="-20"/>
      <point x="590" y="76"/>
      <point x="688" y="206" type="curve"/>
      <point x="606" y="302" type="line"/>
      <point x="550" y="198"/>
      <point x="470" y="124"/>
      <point x="372" y="124" type="curve" smooth="yes"/>
      <point x="288" y="124"/>
      <point x="234" y="180"/>
      <point x="234" y="266" type="curve" smooth="yes"/>
      <point x="234" y="418"/>
      <point x="376" y="490"/>
      <point x="582" y="490" type="curve" smooth="yes"/>
      <point x="1324" y="490" type="line"/>
      <point x="1328" y="522"/>
      <point x="1332" y="558"/>
      <point x="1332" y="586" type="curve" smooth="yes"/>
      <point x="1332" y="850"/>
      <point x="1188" y="1000"/>
      <point x="992" y="1000" type="curve" smooth="yes"/>
      <point x="832" y="1000"/>
      <point x="722" y="926"/>
      <point x="648" y="810" type="curve"/>
      <point x="690" y="810" type="line"/>
      <point x="646" y="942"/>
      <point x="556" y="1000"/>
      <point x="414" y="1000" type="curve" smooth="yes"/>
      <point x="306" y="1000"/>
      <point x="204" y="964"/>
      <point x="122" y="898" type="curve"/>
      <point x="144" y="752" type="line"/>
      <point x="226" y="812"/>
      <point x="300" y="840"/>
      <point x="380" y="840" type="curve" smooth="yes"/>
      <point x="498" y="840"/>
      <point x="550" y="788"/>
      <point x="550" y="626" type="curve" smooth="yes"/>
      <point x="550" y="498" type="line" smooth="yes"/>
      <point x="550" y="216"/>
      <point x="708" y="-20"/>
      <point x="1014" y="-20" type="curve" smooth="yes"/>
      <point x="1126" y="-20"/>
      <point x="1224" y="2"/>
      <point x="1294" y="40" type="curve"/>
      <point x="1278" y="198" type="line"/>
      <point x="1204" y="158"/>
      <point x="1104" y="140"/>
      <point x="1026" y="140" type="curve" smooth="yes"/>
      <point x="856" y="140"/>
      <point x="730" y="260"/>
      <point x="730" y="512" type="curve" smooth="yes"/>
      <point x="730" y="736"/>
      <point x="824" y="840"/>
      <point x="964" y="840" type="curve" smooth="yes"/>
      <point x="1092" y="840"/>
      <point x="1152" y="742"/>
      <point x="1152" y="614" type="curve"/>
      <point x="592" y="614" type="line" smooth="yes"/>
      <point x="318" y="614"/>
      <point x="48" y="540"/>
      <point x="48" y="264" type="curve" smooth="yes"/>
      <point x="48" y="94"/>
      <point x="166" y="-20"/>
    </contour>
  </outline>
</glyph>
<glyph name="eth" format="2">
  <advance width="880"/>
  <unicode hex="00F0"/>
  <outline>
    <contour>
      <point x="416" y="-24" type="curve" smooth="yes"/>
      <point x="650" y="-24"/>
      <point x="818" y="136"/>
      <point x="818" y="538" type="curve" smooth="yes"/>
      <point x="818" y="938"/>
      <point x="622" y="1318"/>
      <point x="210" y="1402" type="curve"/>
      <point x="184" y="1294" type="line"/>
      <point x="482" y="1204"/>
      <point x="622" y="928"/>
      <point x="622" y="682" type="curve"/>
      <point x="650" y="722" type="line"/>
      <point x="604" y="792"/>
      <point x="536" y="852"/>
      <point x="406" y="852" type="curve" smooth="yes"/>
      <point x="170" y="852"/>
      <point x="34" y="660"/>
      <point x="34" y="410" type="curve" smooth="yes"/>
      <point x="34" y="160"/>
      <point x="182" y="-24"/>
    </contour>
    <contour>
      <point x="414" y="142" type="curve" smooth="yes"/>
      <point x="290" y="142"/>
      <point x="214" y="268"/>
      <point x="214" y="420" type="curve" smooth="yes"/>
      <point x="214" y="558"/>
      <point x="290" y="686"/>
      <point x="416" y="686" type="curve" smooth="yes"/>
      <point x="544" y="686"/>
      <point x="626" y="574"/>
      <point x="626" y="416" type="curve" smooth="yes"/>
      <point x="626" y="258"/>
      <point x="544" y="142"/>
    </contour>
    <contour>
      <point x="250" y="1004" type="line"/>
      <point x="732" y="1292" type="line"/>
      <point x="668" y="1400" type="line"/>
      <point x="184" y="1112" type="line"/>
    </contour>
  </outline>
</glyph>
<glyph name="divide" format="2">
  <advance width="816"/>
  <unicode hex="00F7"/>
  <outline>
    <contour>
      <point x="70" y="486" type="line"/>
      <point x="746" y="486" type="line"/>
      <point x="746" y="638" type="line"/>
      <point x="70" y="638" type="line"/>
    </contour>
    <contour>
      <point x="312" y="118" type="line"/>
      <point x="504" y="118" type="line"/>
      <point x="504" y="318" type="line"/>
      <point x="312" y="318" type="line"/>
    </contour>
    <contour>
      <point x="312" y="806" type="line"/>
      <point x="504" y="806" type="line"/>
      <point x="504" y="1006" type="line"/>
      <point x="312" y="1006" type="line"/>
    </contour>
  </outline>
</glyph>
<glyph name="oslash" format="2">
  <advance width="946"/>
  <unicode hex="00F8"/>
  <guideline x="24" y="245" angle="90"/>
  <guideline x="449" y="245" angle="90"/>
  <anchor x="474" y="980" name="top"/>
  <outline>
    <contour>
      <point x="716" y="1060" type="line"/>
      <point x="80" y="-80" type="line"/>
      <point x="230" y="-80" type="line"/>
      <point x="866" y="1060" type="line"/>
    </contour>
    <component base="o"/>
  </outline>
</glyph>
<glyph name="thorn" format="2">
  <advance width="970"/>
  <unicode hex="00FE"/>
  <outline>
    <contour>
      <point x="110" y="-484" type="line"/>
      <point x="286" y="-484" type="line"/>
      <point x="286" y="210" type="line"/>
      <point x="228" y="184" type="line"/>
      <point x="278" y="48"/>
      <point x="398" y="-20"/>
      <point x="536" y="-20" type="curve" smooth="yes"/>
      <point x="794" y="-20"/>
      <point x="926" y="204"/>
      <point x="926" y="490" type="curve" smooth="yes"/>
      <point x="926" y="776"/>
      <point x="780" y="1000"/>
      <point x="536" y="1000" type="curve" smooth="yes"/>
      <point x="386" y="1000"/>
      <point x="286" y="920"/>
      <point x="216" y="792" type="curve"/>
      <point x="286" y="756" type="line"/>
      <point x="286" y="1500" type="line"/>
      <point x="110" y="1500" type="line"/>
    </contour>
    <contour>
      <point x="504" y="136" type="curve" smooth="yes"/>
      <point x="388" y="136"/>
      <point x="264" y="242"/>
      <point x="264" y="490" type="curve" smooth="yes"/>
      <point x="264" y="728"/>
      <point x="388" y="844"/>
      <point x="504" y="844" type="curve" smooth="yes"/>
      <point x="656" y="844"/>
      <point x="746" y="712"/>
      <point x="746" y="490" type="curve" smooth="yes"/>
      <point x="746" y="268"/>
      <point x="656" y="136"/>
    </contour>
  </outline>
</glyph>
<glyph name="dcroat" format="2">
  <advance width="1006"/>
  <unicode hex="0111"/>
  <outline>
    <contour>
      <point x="418" y="1174" type="line"/>
      <point x="1002" y="1174" type="line"/>
      <point x="1002" y="1314" type="line"/>
      <point x="418" y="1314" type="line"/>
    </contour>
    <component base="d"/>
  </outline>
</glyph>
<glyph name="Hbar" format="2">
  <advance width="1288"/>
  <unicode hex="0126"/>
  <outline>
    <contour>
      <point x="140" y="0" type="line"/>
      <point x="324" y="0" type="line"/>
      <point x="324" y="642" type="line"/>
      <point x="964" y="642" type="line"/>
      <point x="964" y="0" type="line"/>
      <point x="1148" y="0" type="line"/>
      <point x="1148" y="1400" type="line"/>
      <point x="964" y="1400" type="line"/>
      <point x="964" y="822" type="line"/>
      <point x="324" y="822" type="line"/>
      <point x="324" y="1400" type="line"/>
      <point x="140" y="1400" type="line"/>
    </contour>
    <contour>
      <point x="20" y="1002" type="line"/>
      <point x="1268" y="1002" type="line"/>
      <point x="1268" y="1126" type="line"/>
      <point x="20" y="1126" type="line"/>
    </contour>
  </outline>
</glyph>
<glyph name="hbar" format="2">
  <advance width="966"/>
  <unicode hex="0127"/>
  <outline>
    <contour>
      <point x="132" y="0" type="line"/>
      <point x="308" y="0" type="line"/>
      <point x="308" y="766" type="line"/>
      <point x="284" y="656" type="line"/>
      <point x="332" y="768"/>
      <point x="416" y="840"/>
      <point x="522" y="840" type="curve" smooth="yes"/>
      <point x="642" y="840"/>
      <point x="700" y="746"/>
      <point x="700" y="540" type="curve" smooth="yes"/>
      <point x="700" y="0" type="line"/>
      <point x="876" y="0" type="line"/>
      <point x="876" y="562" type="line" smooth="yes"/>
      <point x="876" y="824"/>
      <point x="770" y="1000"/>
      <point x="562" y="1000" type="curve" smooth="yes"/>
      <point x="424" y="1000"/>
      <point x="308" y="922"/>
      <point x="266" y="802" type="curve"/>
      <point x="308" y="810" type="line"/>
      <point x="308" y="1500" type="line"/>
      <point x="132" y="1500" type="line"/>
    </contour>
    <contour>
      <point x="4" y="1174" type="line"/>
      <point x="588" y="1174" type="line"/>
      <point x="588" y="1314" type="line"/>
      <point x="4" y="1314" type="line"/>
    </contour>
  </outline>
</glyph>
<glyph name="idotless" format="2">
  <advance width="412"/>
  <unicode hex="0131"/>
  <anchor x="206" y="0" name="bottom"/>
  <anchor x="370" y="20" name="ogonek"/>
  <anchor x="206" y="980" name="top"/>
  <outline>
    <contour>
      <point x="116" y="0" type="line"/>
      <point x="296" y="0" type="line"/>
      <point x="296" y="980" type="line"/>
      <point x="116" y="980" type="line"/>
    </contour>
  </outline>
</glyph>
<glyph name="IJ" format="2">
  <advance width="1194"/>
  <unicode hex="0132"/>
  <outline>
    <contour>
      <point x="304" y="508" type="curve"/>
      <point x="120" y="486" type="line"/>
      <point x="138" y="166"/>
      <point x="284" y="-28"/>
      <point x="596" y="-28" type="curve" smooth="yes"/>
      <point x="932" y="-28"/>
      <point x="1076" y="194"/>
      <point x="1076" y="554" type="curve" smooth="yes"/>
      <point x="1076" y="1400" type="line"/>
      <point x="892" y="1400" type="line"/>
      <point x="892" y="606" type="line" smooth="yes"/>
      <point x="892" y="352"/>
      <point x="856" y="140"/>
      <point x="596" y="140" type="curve" smooth="yes"/>
      <point x="374" y="140"/>
      <point x="316" y="298"/>
    </contour>
    <contour>
      <point x="118" y="646" type="line"/>
      <point x="302" y="646" type="line"/>
      <point x="302" y="1400" type="line"/>
      <point x="118" y="1400" type="line"/>
    </contour>
  </outline>
</glyph>
<glyph name="kgreenlandic" format="2">
  <advance width="908"/>
  <unicode hex="0138"/>
  <outline>
    <contour>
      <point x="100" y="0" type="line"/>
      <point x="276" y="0" type="line"/>
      <point x="276" y="484" type="line"/>
      <point x="674" y="0" type="line"/>
      <point x="896" y="0" type="line"/>
      <point x="464" y="504" type="line"/>
      <point x="886" y="980" type="line"/>
      <point x="664" y="980" type="line"/>
      <point x="276" y="524" type="line"/>
      <point x="276" y="980" type="line"/>
      <point x="100" y="980" type="line"/>
    </contour>
  </outline>
</glyph>
<glyph name="Lslash" format="2">
  <advance width="872"/>
  <unicode hex="0141"/>
  <outline>
    <contour>
      <point x="144" y="0" type="line"/>
      <point x="860" y="0" type="line"/>
      <point x="860" y="168" type="line"/>
      <point x="328" y="168" type="line"/>
      <point x="328" y="1400" type="line"/>
      <point x="144" y="1400" type="line"/>
    </contour>
    <contour>
      <point x="24" y="730" type="line"/>
      <point x="656" y="904" type="line"/>
      <point x="656" y="1034" type="line"/>
      <point x="24" y="860" type="line"/>
    </contour>
  </outline>
</glyph>
<glyph name="lslash" format="2">
  <advance width="434"/>
  <unicode hex="0142"/>
  <outline>
    <contour>
      <point x="290" y="-20" type="curve" smooth="yes"/>
      <point x="350" y="-20" type="line"/>
      <point x="372" y="124" type="line"/>
      <point x="264" y="124"/>
      <point x="246" y="152"/>
      <point x="246" y="320" type="curve" smooth="yes"/>
      <point x="246" y="1500" type="line"/>
      <point x="70" y="1500" type="line"/>
      <point x="70" y="216" type="line" smooth="yes"/>
      <point x="70" y="98"/>
      <point x="130" y="-20"/>
    </contour>
    <contour>
      <point x="-58" y="792" type="line"/>
      <point x="394" y="910" type="line"/>
      <point x="394" y="1046" type="line"/>
      <point x="-58" y="928" type="line"/>
    </contour>
  </outline>
</glyph>
<glyph name="Eng" format="2">
  <advance width="1298"/>
  <unicode hex="014A"/>
  <outline>
    <contour>
      <point x="1178" y="100" type="curve" smooth="yes"/>
      <point x="1178" y="920" type="line" smooth="yes"/>
      <point x="1178" y="1224"/>
      <point x="1022" y="1428"/>
      <point x="712" y="1428" type="curve" smooth="yes"/>
      <point x="558" y="1428"/>
      <point x="414" y="1368"/>
      <point x="314" y="1266" type="curve"/>
      <point x="302" y="1400" type="line"/>
      <point x="148" y="1400" type="line"/>
      <point x="148" y="0" type="line"/>
      <point x="332" y="0" type="line"/>
      <point x="332" y="1112" type="line"/>
      <point x="406" y="1192"/>
      <point x="518" y="1260"/>
      <point x="670" y="1260" type="curve" smooth="yes"/>
      <point x="884" y="1260"/>
      <point x="994" y="1130"/>
      <point x="994" y="900" type="curve" smooth="yes"/>
      <point x="994" y="80" type="line" smooth="yes"/>
      <point x="994" y="-108"/>
      <point x="892" y="-202"/>
      <point x="738" y="-202" type="curve" smooth="yes"/>
      <point x="692" y="-202"/>
      <point x="646" y="-196"/>
      <point x="602" y="-184" type="curve"/>
      <point x="576" y="-348" type="line"/>
      <point x="626" y="-362"/>
      <point x="682" y="-370"/>
      <point x="738" y="-370" type="curve" smooth="yes"/>
      <point x="994" y="-370"/>
      <point x="1178" y="-218"/>
    </contour>
  </outline>
</glyph>
<glyph name="eng" format="2">
  <advance width="954"/>
  <unicode hex="014B"/>
  <outline>
    <contour>
      <point x="864" y="40" type="curve" smooth="yes"/>
      <point x="864" y="562" type="line" smooth="yes"/>
      <point x="864" y="830"/>
      <point x="768" y="1000"/>
      <point x="524" y="1000" type="curve" smooth="yes"/>
      <point x="438" y="1000"/>
      <point x="348" y="976"/>
      <point x="256" y="876" type="curve"/>
      <point x="236" y="980" type="line"/>
      <point x="100" y="980" type="line"/>
      <point x="100" y="0" type="line"/>
      <point x="276" y="0" type="line"/>
      <point x="276" y="712" type="line"/>
      <point x="316" y="802"/>
      <point x="400" y="844"/>
      <point x="488" y="844" type="curve" smooth="yes"/>
      <point x="634" y="844"/>
      <point x="688" y="750"/>
      <point x="688" y="540" type="curve" smooth="yes"/>
      <point x="688" y="24" type="line" smooth="yes"/>
      <point x="688" y="-128"/>
      <point x="608" y="-202"/>
      <point x="490" y="-202" type="curve" smooth="yes"/>
      <point x="446" y="-202"/>
      <point x="404" y="-196"/>
      <point x="362" y="-184" type="curve"/>
      <point x="336" y="-336" type="line"/>
      <point x="366" y="-350"/>
      <point x="442" y="-358"/>
      <point x="498" y="-358" type="curve" smooth="yes"/>
      <point x="710" y="-358"/>
      <point x="864" y="-228"/>
    </contour>
  </outline>
</glyph>
<glyph name="OE" format="2">
  <advance width="1870"/>
  <unicode hex="0152"/>
  <outline>
    <contour>
      <point x="636" y="-28" type="curve" smooth="yes"/>
      <point x="974" y="-28"/>
      <point x="1206" y="286"/>
      <point x="1206" y="700" type="curve" smooth="yes"/>
      <point x="1206" y="1114"/>
      <point x="974" y="1428"/>
      <point x="636" y="1428" type="curve" smooth="yes"/>
      <point x="302" y="1428"/>
      <point x="60" y="1144"/>
      <point x="60" y="700" type="curve" smooth="yes"/>
      <point x="60" y="256"/>
      <point x="302" y="-28"/>
    </contour>
    <contour>
      <point x="654" y="144" type="curve" smooth="yes"/>
      <point x="396" y="144"/>
      <point x="264" y="390"/>
      <point x="264" y="700" type="curve" smooth="yes"/>
      <point x="264" y="1010"/>
      <point x="396" y="1256"/>
      <point x="654" y="1256" type="curve" smooth="yes"/>
      <point x="912" y="1256"/>
      <point x="1042" y="1010"/>
      <point x="1042" y="700" type="curve" smooth="yes"/>
      <point x="1042" y="390"/>
      <point x="912" y="144"/>
    </contour>
    <contour>
      <point x="1046" y="0" type="line"/>
      <point x="1812" y="0" type="line"/>
      <point x="1812" y="172" type="line"/>
      <point x="1236" y="172" type="line"/>
      <point x="1236" y="646" type="line"/>
      <point x="1676" y="646" type="line"/>
      <point x="1676" y="818" type="line"/>
      <point x="1236" y="818" type="line"/>
      <point x="1236" y="1228" type="line"/>
      <point x="1796" y="1228" type="line"/>
      <point x="1796" y="1400" type="line"/>
      <point x="1046" y="1400" type="line"/>
    </contour>
  </outline>
</glyph>
<glyph name="oe" format="2">
  <advance width="1536"/>
  <unicode hex="0153"/>
  <anchor x="804" y="980" name="top"/>
  <outline>
    <contour>
      <point x="474" y="-20" type="curve" smooth="yes"/>
      <point x="642" y="-20"/>
      <point x="768" y="80"/>
      <point x="836" y="228" type="curve"/>
      <point x="780" y="226" type="line"/>
      <point x="854" y="76"/>
      <point x="986" y="-20"/>
      <point x="1172" y="-20" type="curve" smooth="yes"/>
      <point x="1294" y="-20"/>
      <point x="1390" y="24"/>
      <point x="1456" y="66" type="curve"/>
      <point x="1440" y="208" type="line"/>
      <point x="1364" y="168"/>
      <point x="1280" y="140"/>
      <point x="1188" y="140" type="curve" smooth="yes"/>
      <point x="1036" y="140"/>
      <point x="921" y="244"/>
      <point x="907" y="490" type="curve"/>
      <point x="1484" y="490" type="line"/>
      <point x="1492" y="528"/>
      <point x="1494" y="566"/>
      <point x="1494" y="596" type="curve" smooth="yes"/>
      <point x="1494" y="854"/>
      <point x="1348" y="1000"/>
      <point x="1146" y="1000" type="curve" smooth="yes"/>
      <point x="972" y="1000"/>
      <point x="832" y="898"/>
      <point x="780" y="748" type="curve"/>
      <point x="830" y="746" type="line"/>
      <point x="762" y="898"/>
      <point x="640" y="1000"/>
      <point x="474" y="1000" type="curve" smooth="yes"/>
      <point x="204" y="1000"/>
      <point x="48" y="774"/>
      <point x="48" y="490" type="curve" smooth="yes"/>
      <point x="48" y="206"/>
      <point x="204" y="-20"/>
    </contour>
    <contour>
      <point x="474" y="140" type="curve" smooth="yes"/>
      <point x="318" y="140"/>
      <point x="232" y="270"/>
      <point x="232" y="490" type="curve" smooth="yes"/>
      <point x="232" y="710"/>
      <point x="318" y="840"/>
      <point x="474" y="840" type="curve"/>
      <point x="628" y="840"/>
      <point x="714" y="710"/>
      <point x="714" y="490" type="curve" smooth="yes"/>
      <point x="714" y="270"/>
      <point x="628" y="140"/>
    </contour>
    <contour>
      <point x="910" y="614" type="line"/>
      <point x="929" y="767"/>
      <point x="1011" y="840"/>
      <point x="1126" y="840" type="curve" smooth="yes"/>
      <point x="1266" y="840"/>
      <point x="1310" y="722"/>
      <point x="1310" y="614" type="curve"/>
    </contour>
  </outline>
</glyph>
<glyph name="Tbar" format="2">
  <advance width="952"/>
  <unicode hex="0166"/>
  <outline>
    <contour>
      <point x="384" y="0" type="line"/>
      <point x="568" y="0" type="line"/>
      <point x="568" y="1232" type="line"/>
      <point x="916" y="1232" type="line"/>
      <point x="916" y="1400" type="line"/>
      <point x="36" y="1400" type="line"/>
      <point x="36" y="1232" type="line"/>
      <point x="384" y="1232" type="line"/>
    </contour>
    <contour>
      <point x="144" y="654" type="line"/>
      <point x="808" y="654" type="line"/>
      <point x="808" y="780" type="line"/>
      <point x="144" y="780" type="line"/>
    </contour>
  </outline>
</glyph>
<glyph name="tbar" format="2">
  <advance width="596"/>
  <unicode hex="0167"/>
  <outline>
    <contour>
      <point x="394" y="-20" type="curve" smooth="yes"/>
      <point x="538" y="-20" type="line"/>
      <point x="554" y="124" type="line"/>
      <point x="492" y="124" type="line" smooth="yes"/>
      <point x="384" y="124"/>
      <point x="346" y="166"/>
      <point x="346" y="284" type="curve" smooth="yes"/>
      <point x="346" y="840" type="line"/>
      <point x="556" y="840" type="line"/>
      <point x="556" y="980" type="line"/>
      <point x="346" y="980" type="line"/>
      <point x="346" y="1240" type="line"/>
      <point x="170" y="1222" type="line"/>
      <point x="170" y="980" type="line"/>
      <point x="50" y="980" type="line"/>
      <point x="34" y="840" type="line"/>
      <point x="170" y="840" type="line"/>
      <point x="170" y="214" type="line" smooth="yes"/>
      <point x="170" y="96"/>
      <point x="232" y="-20"/>
    </contour>
    <contour>
      <point x="34" y="484" type="line"/>
      <point x="544" y="484" type="line"/>
      <point x="544" y="610" type="line"/>
      <point x="34" y="610" type="line"/>
    </contour>
  </outline>
</glyph>
<glyph name="Schwa" format="2">
  <advance width="1176"/>
  <unicode hex="018F"/>
  <outline>
    <contour>
      <point x="920" y="684" type="curve" smooth="yes"/>
      <point x="920" y="350"/>
      <point x="800" y="144"/>
      <point x="570" y="144" type="curve" smooth="yes"/>
      <point x="348" y="144"/>
      <point x="248" y="296"/>
      <point x="248" y="534" type="curve"/>
      <point x="990" y="534" type="line"/>
      <point x="990" y="702" type="line"/>
      <point x="64" y="702" type="line"/>
      <point x="56" y="650"/>
      <point x="52" y="598"/>
      <point x="52" y="548" type="curve" smooth="yes"/>
      <point x="52" y="180"/>
      <point x="272" y="-28"/>
      <point x="576" y="-28" type="curve" smooth="yes"/>
      <point x="918" y="-28"/>
      <point x="1116" y="294"/>
      <point x="1116" y="680" type="curve" smooth="yes"/>
      <point x="1116" y="1142"/>
      <point x="894" y="1428"/>
      <point x="540" y="1428" type="curve" smooth="yes"/>
      <point x="374" y="1428"/>
      <point x="238" y="1380"/>
      <point x="114" y="1310" type="curve"/>
      <point x="150" y="1150" type="line"/>
      <point x="272" y="1214"/>
      <point x="384" y="1256"/>
      <point x="514" y="1256" type="curve" smooth="yes"/>
      <point x="790" y="1256"/>
      <point x="920" y="1040"/>
    </contour>
  </outline>
</glyph>
<glyph name="florin" format="2">
  <advance width="586"/>
  <unicode hex="0192"/>
  <outline>
    <contour>
      <point x="12" y="840" type="line"/>
      <point x="578" y="840" type="line"/>
      <point x="594" y="980" type="line"/>
      <point x="28" y="980" type="line"/>
    </contour>
    <contour>
      <point x="244" y="68" type="curve" smooth="yes"/>
      <point x="358" y="1026" type="line" smooth="yes"/>
      <point x="378" y="1196"/>
      <point x="440" y="1262"/>
      <point x="548" y="1262" type="curve" smooth="yes"/>
      <point x="584" y="1262"/>
      <point x="622" y="1256"/>
      <point x="652" y="1246" type="curve"/>
      <point x="666" y="1406" type="line"/>
      <point x="626" y="1422"/>
      <point x="582" y="1428"/>
      <point x="526" y="1428" type="curve" smooth="yes"/>
      <point x="340" y="1428"/>
      <point x="210" y="1300"/>
      <point x="178" y="1040" type="curve" smooth="yes"/>
      <point x="64" y="82" type="line" smooth="yes"/>
      <point x="46" y="-64"/>
      <point x="-16" y="-122"/>
      <point x="-122" y="-122" type="curve" smooth="yes"/>
      <point x="-158" y="-122"/>
      <point x="-196" y="-116"/>
      <point x="-226" y="-106" type="curve"/>
      <point x="-240" y="-266" type="line"/>
      <point x="-200" y="-282"/>
      <point x="-156" y="-288"/>
      <point x="-100" y="-288" type="curve" smooth="yes"/>
      <point x="88" y="-288"/>
      <point x="214" y="-186"/>
    </contour>
  </outline>
</glyph>
<glyph name="jdotless" format="2">
  <advance width="410"/>
  <unicode hex="0237"/>
  <anchor x="206" y="980" name="top"/>
  <outline>
    <contour>
      <point x="18" y="-484" type="line"/>
      <point x="80" y="-474" type="line" smooth="yes"/>
      <point x="192" y="-456"/>
      <point x="294" y="-402"/>
      <point x="294" y="-214" type="curve" smooth="yes"/>
      <point x="294" y="980" type="line"/>
      <point x="118" y="980" type="line"/>
      <point x="118" y="-146" type="line" smooth="yes"/>
      <point x="118" y="-304"/>
      <point x="100" y="-334"/>
      <point x="0" y="-346" type="curve"/>
    </contour>
  </outline>
</glyph>
<glyph name="ringhalfright" format="2">
  <advance width="372"/>
  <unicode hex="02BE"/>
  <outline>
    <contour>
      <point x="92" y="1136" type="line"/>
      <point x="222" y="1136"/>
      <point x="280" y="1232"/>
      <point x="280" y="1336" type="curve" smooth="yes"/>
      <point x="280" y="1438"/>
      <point x="222" y="1536"/>
      <point x="92" y="1536" type="curve" smooth="yes"/>
      <point x="92" y="1450" type="line"/>
      <point x="148" y="1450"/>
      <point x="186" y="1404"/>
      <point x="186" y="1336" type="curve" smooth="yes"/>
      <point x="186" y="1264"/>
      <point x="146" y="1222"/>
      <point x="92" y="1222" type="curve" smooth="yes"/>
    </contour>
  </outline>
</glyph>
<glyph name="ringhalfleft" format="2">
  <advance width="372"/>
  <unicode hex="02BF"/>
  <outline>
    <contour>
      <point x="280" y="1136" type="curve"/>
      <point x="280" y="1222" type="line"/>
      <point x="226" y="1222"/>
      <point x="186" y="1264"/>
      <point x="186" y="1336" type="curve" smooth="yes"/>
      <point x="186" y="1404"/>
      <point x="224" y="1450"/>
      <point x="280" y="1450" type="curve"/>
      <point x="280" y="1536" type="line"/>
      <point x="152" y="1536"/>
      <point x="92" y="1438"/>
      <point x="92" y="1336" type="curve" smooth="yes"/>
      <point x="92" y="1232"/>
      <point x="152" y="1136"/>
    </contour>
  </outline>
</glyph>
<glyph name="verticallinemod" format="2">
  <advance width="324"/>
  <unicode hex="02C8"/>
  <outline>
    <contour>
      <point x="92" y="1536" type="line"/>
      <point x="92" y="1136" type="line"/>
      <point x="232" y="1136" type="line"/>
      <point x="232" y="1536" type="line"/>
    </contour>
  </outline>
</glyph>
<glyph name="verticallinelowmod" format="2">
  <advance width="340"/>
  <unicode hex="02CC"/>
  <outline>
    <contour>
      <point x="100" y="238" type="line"/>
      <point x="100" y="-162" type="line"/>
      <point x="240" y="-162" type="line"/>
      <point x="240" y="238" type="line"/>
    </contour>
  </outline>
</glyph>
<glyph name="gravecomb" format="2">
  <unicode hex="0300"/>
  <anchor x="0" y="980" name="_top"/>
  <anchor x="0" y="1464" name="top"/>
  <outline>
    <contour>
      <point x="146" y="1168" type="line"/>
      <point x="146" y="1294" type="line"/>
      <point x="-148" y="1482" type="line"/>
      <point x="-148" y="1282" type="line"/>
    </contour>
  </outline>
</glyph>
<glyph name="circumflexcomb" format="2">
  <unicode hex="0302"/>
  <anchor x="0" y="980" name="_top"/>
  <anchor x="0" y="1436" name="top"/>
  <outline>
    <contour>
      <point x="-214" y="1128" type="line"/>
      <point x="0" y="1262" type="line"/>
      <point x="214" y="1128" type="line"/>
      <point x="214" y="1250" type="line"/>
      <point x="0" y="1432" type="line"/>
      <point x="-214" y="1250" type="line"/>
    </contour>
  </outline>
</glyph>
<glyph name="tildecomb" format="2">
  <unicode hex="0303"/>
  <anchor x="0" y="980" name="_top"/>
  <anchor x="0" y="1404" name="top"/>
  <outline>
    <contour>
      <point x="140" y="1160" type="curve" smooth="yes"/>
      <point x="236" y="1160"/>
      <point x="286" y="1238"/>
      <point x="292" y="1382" type="curve"/>
      <point x="148" y="1382" type="line"/>
      <point x="148" y="1334"/>
      <point x="128" y="1304"/>
      <point x="94" y="1304" type="curve" smooth="yes"/>
      <point x="22" y="1304"/>
      <point x="-32" y="1398"/>
      <point x="-140" y="1398" type="curve" smooth="yes"/>
      <point x="-236" y="1398"/>
      <point x="-286" y="1320"/>
      <point x="-292" y="1176" type="curve"/>
      <point x="-148" y="1176" type="line"/>
      <point x="-148" y="1224"/>
      <point x="-128" y="1254"/>
      <point x="-94" y="1254" type="curve" smooth="yes"/>
      <point x="-22" y="1254"/>
      <point x="32" y="1160"/>
    </contour>
  </outline>
</glyph>
<glyph name="macroncomb" format="2">
  <unicode hex="0304"/>
  <anchor x="0" y="980" name="_top"/>
  <anchor x="0" y="1400" name="top"/>
  <outline>
    <contour>
      <point x="-280" y="1184" type="line"/>
      <point x="280" y="1184" type="line"/>
      <point x="280" y="1320" type="line"/>
      <point x="-280" y="1320" type="line"/>
    </contour>
  </outline>
</glyph>
<glyph name="brevecomb" format="2">
  <unicode hex="0306"/>
  <anchor x="0" y="980" name="_top"/>
  <anchor x="0" y="1316" name="top"/>
  <outline>
    <contour>
      <point x="0" y="1152" type="curve" smooth="yes"/>
      <point x="186" y="1152"/>
      <point x="272" y="1268"/>
      <point x="272" y="1396" type="curve"/>
      <point x="116" y="1396" type="line"/>
      <point x="116" y="1328"/>
      <point x="78" y="1284"/>
      <point x="0" y="1284" type="curve" smooth="yes"/>
      <point x="-78" y="1284"/>
      <point x="-116" y="1328"/>
      <point x="-116" y="1396" type="curve"/>
      <point x="-272" y="1396" type="line"/>
      <point x="-272" y="1268"/>
      <point x="-186" y="1152"/>
    </contour>
  </outline>
</glyph>
<glyph name="hookabovecomb" format="2">
  <unicode hex="0309"/>
  <anchor x="0" y="980" name="_top"/>
  <anchor x="0" y="1420" name="top"/>
  <outline>
    <contour>
      <point x="30" y="1050" type="line"/>
      <point x="108" y="1120"/>
      <point x="146" y="1170"/>
      <point x="146" y="1254" type="curve" smooth="yes"/>
      <point x="146" y="1356"/>
      <point x="72" y="1412"/>
      <point x="-22" y="1412" type="curve" smooth="yes"/>
      <point x="-80" y="1412"/>
      <point x="-130" y="1400"/>
      <point x="-172" y="1378" type="curve"/>
      <point x="-138" y="1280" type="line"/>
      <point x="-102" y="1300"/>
      <point x="-68" y="1314"/>
      <point x="-32" y="1314" type="curve" smooth="yes"/>
      <point x="8" y="1314"/>
      <point x="34" y="1292"/>
      <point x="34" y="1248" type="curve" smooth="yes"/>
      <point x="34" y="1202"/>
      <point x="14" y="1174"/>
      <point x="-38" y="1116" type="curve"/>
    </contour>
  </outline>
</glyph>
<glyph name="ringcomb" format="2">
  <unicode hex="030A"/>
  <anchor x="0" y="980" name="_top"/>
  <anchor x="0" y="1486" name="top"/>
  <outline>
    <contour>
      <point x="0" y="1136" type="curve" smooth="yes"/>
      <point x="130" y="1136"/>
      <point x="188" y="1232"/>
      <point x="188" y="1336" type="curve" smooth="yes"/>
      <point x="188" y="1438"/>
      <point x="130" y="1536"/>
      <point x="0" y="1536" type="curve" smooth="yes"/>
      <point x="-128" y="1536"/>
      <point x="-188" y="1438"/>
      <point x="-188" y="1336" type="curve" smooth="yes"/>
      <point x="-188" y="1232"/>
      <point x="-128" y="1136"/>
    </contour>
    <contour>
      <point x="0" y="1222" type="curve" smooth="yes"/>
      <point x="-54" y="1222"/>
      <point x="-94" y="1264"/>
      <point x="-94" y="1336" type="curve" smooth="yes"/>
      <point x="-94" y="1404"/>
      <point x="-56" y="1450"/>
      <point x="0" y="1450" type="curve" smooth="yes"/>
      <point x="56" y="1450"/>
      <point x="94" y="1404"/>
      <point x="94" y="1336" type="curve" smooth="yes"/>
      <point x="94" y="1264"/>
      <point x="54" y="1222"/>
    </contour>
  </outline>
</glyph>
<glyph name="hungarumlautcomb" format="2">
  <unicode hex="030B"/>
  <anchor x="-2" y="980" name="_top"/>
  <anchor x="-2" y="1510" name="top"/>
  <outline>
    <contour>
      <point x="58" y="1156" type="line"/>
      <point x="184" y="1156" type="line"/>
      <point x="380" y="1490" type="line"/>
      <point x="190" y="1490" type="line"/>
    </contour>
    <contour>
      <point x="-208" y="1156" type="line"/>
      <point x="-82" y="1156" type="line"/>
      <point x="104" y="1490" type="line"/>
      <point x="-86" y="1490" type="line"/>
    </contour>
  </outline>
</glyph>
<glyph name="caroncomb" format="2">
  <unicode hex="030C"/>
  <anchor x="0" y="980" name="_top"/>
  <anchor x="0" y="1330" name="top"/>
  <outline>
    <contour>
      <point x="0" y="1116" type="line"/>
      <point x="214" y="1302" type="line"/>
      <point x="214" y="1424" type="line"/>
      <point x="0" y="1288" type="line"/>
      <point x="-214" y="1424" type="line"/>
      <point x="-214" y="1302" type="line"/>
    </contour>
  </outline>
</glyph>
<glyph name="dblgravecomb" format="2">
  <unicode hex="030F"/>
  <anchor x="-2" y="980" name="_top"/>
  <anchor x="-2" y="1510" name="top"/>
  <outline>
    <contour>
      <point x="206" y="1156" type="line"/>
      <point x="98" y="1490" type="line"/>
      <point x="-86" y="1490" type="line"/>
      <point x="86" y="1156" type="line"/>
    </contour>
    <contour>
      <point x="-62" y="1156" type="line"/>
      <point x="-180" y="1490" type="line"/>
      <point x="-376" y="1490" type="line"/>
      <point x="-194" y="1156" type="line"/>
    </contour>
  </outline>
</glyph>
<glyph name="breveinvertedcomb" format="2">
  <unicode hex="0311"/>
  <anchor x="0" y="980" name="_top"/>
  <anchor x="0" y="1346" name="top"/>
  <outline>
    <contour>
      <point x="0" y="1386" type="curve" smooth="yes"/>
      <point x="-186" y="1386"/>
      <point x="-272" y="1274"/>
      <point x="-272" y="1152" type="curve"/>
      <point x="-116" y="1152" type="line"/>
      <point x="-116" y="1214"/>
      <point x="-78" y="1254"/>
      <point x="0" y="1254" type="curve" smooth="yes"/>
      <point x="78" y="1254"/>
      <point x="116" y="1214"/>
      <point x="116" y="1152" type="curve"/>
      <point x="272" y="1152" type="line"/>
      <point x="272" y="1274"/>
      <point x="186" y="1386"/>
    </contour>
  </outline>
</glyph>
<glyph name="commaaccentcomb" format="2">
  <unicode hex="0326"/>
  <anchor x="0" y="0" name="_bottom"/>
  <anchor x="0" y="-618" name="bottom"/>
  <outline>
    <contour>
      <point x="-12" y="-568" type="line"/>
      <point x="92" y="-334" type="line"/>
      <point x="92" y="-182" type="line"/>
      <point x="-92" y="-182" type="line"/>
      <point x="-92" y="-354" type="line"/>
      <point x="-26" y="-354" type="line"/>
      <point x="-98" y="-568" type="line"/>
    </contour>
  </outline>
</glyph>
<glyph name="cedillacomb" format="2">
  <unicode hex="0327"/>
  <anchor x="0" y="0" name="_bottom"/>
  <anchor x="0" y="-458" name="bottom"/>
  <outline>
    <contour>
      <point x="14" y="-158" type="line"/>
      <point x="64" y="0" type="line"/>
      <point x="-28" y="0" type="line"/>
      <point x="-76" y="-202" type="line"/>
      <point x="-48" y="-194"/>
      <point x="-26" y="-190"/>
      <point x="-2" y="-190" type="curve" smooth="yes"/>
      <point x="56" y="-190"/>
      <point x="84" y="-222"/>
      <point x="84" y="-270" type="curve" smooth="yes"/>
      <point x="84" y="-326"/>
      <point x="48" y="-354"/>
      <point x="-10" y="-354" type="curve" smooth="yes"/>
      <point x="-46" y="-354"/>
      <point x="-80" y="-346"/>
      <point x="-112" y="-332" type="curve"/>
      <point x="-142" y="-426" type="line"/>
      <point x="-112" y="-440"/>
      <point x="-68" y="-452"/>
      <point x="-10" y="-452" type="curve" smooth="yes"/>
      <point x="102" y="-452"/>
      <point x="192" y="-388"/>
      <point x="192" y="-270" type="curve" smooth="yes"/>
      <point x="192" y="-170"/>
      <point x="130" y="-108"/>
      <point x="28" y="-108" type="curve" smooth="yes"/>
      <point x="0" y="-108"/>
      <point x="-22" y="-114"/>
      <point x="-46" y="-122" type="curve"/>
    </contour>
  </outline>
</glyph>
<glyph name="ogonekcomb" format="2">
  <unicode hex="0328"/>
  <anchor x="0" y="0" name="_ogonek"/>
  <outline>
    <contour>
      <point x="-50" y="0" type="line"/>
      <point x="-124" y="-68"/>
      <point x="-196" y="-148"/>
      <point x="-196" y="-250" type="curve" smooth="yes"/>
      <point x="-196" y="-358"/>
      <point x="-108" y="-416"/>
      <point x="0" y="-416" type="curve" smooth="yes"/>
      <point x="56" y="-416"/>
      <point x="102" y="-404"/>
      <point x="132" y="-390" type="curve"/>
      <point x="102" y="-296" type="line"/>
      <point x="74" y="-308"/>
      <point x="48" y="-314"/>
      <point x="16" y="-314" type="curve" smooth="yes"/>
      <point x="-42" y="-314"/>
      <point x="-80" y="-284"/>
      <point x="-80" y="-226" type="curve" smooth="yes"/>
      <point x="-80" y="-148"/>
      <point x="-24" y="-80"/>
      <point x="56" y="0" type="curve"/>
    </contour>
  </outline>
</glyph>
<glyph name="pi" format="2">
  <advance width="968"/>
  <unicode hex="03C0"/>
  <outline>
    <contour>
      <point x="872" y="136" type="curve" smooth="yes"/>
      <point x="818" y="136"/>
      <point x="788" y="170"/>
      <point x="788" y="240" type="curve" smooth="yes"/>
      <point x="788" y="840" type="line"/>
      <point x="928" y="840" type="line"/>
      <point x="928" y="980" type="line"/>
      <point x="32" y="980" type="line"/>
      <point x="32" y="840" type="line"/>
      <point x="168" y="840" type="line"/>
      <point x="168" y="0" type="line"/>
      <point x="344" y="0" type="line"/>
      <point x="344" y="840" type="line"/>
      <point x="612" y="840" type="line"/>
      <point x="612" y="212" type="line" smooth="yes"/>
      <point x="612" y="60"/>
      <point x="670" y="-20"/>
      <point x="796" y="-20" type="curve" smooth="yes"/>
      <point x="846" y="-20"/>
      <point x="892" y="-10"/>
      <point x="920" y="4" type="curve"/>
      <point x="920" y="144" type="line"/>
      <point x="908" y="140"/>
      <point x="890" y="136"/>
    </contour>
  </outline>
</glyph>
<glyph name="Germandbls" format="2">
  <advance width="1072"/>
  <unicode hex="1E9E"/>
  <outline>
    <contour>
      <point x="132" y="0" type="line"/>
      <point x="316" y="0" type="line"/>
      <point x="316" y="986" type="line" smooth="yes"/>
      <point x="316" y="1154"/>
      <point x="420" y="1256"/>
      <point x="582" y="1256" type="curve" smooth="yes"/>
      <point x="684" y="1256"/>
      <point x="760" y="1232"/>
      <point x="810" y="1206" type="curve"/>
      <point x="818" y="1302" type="line"/>
      <point x="502" y="816" type="line"/>
      <point x="502" y="670" type="line"/>
      <point x="530" y="670" type="line" smooth="yes"/>
      <point x="712" y="670"/>
      <point x="804" y="572"/>
      <point x="804" y="398" type="curve" smooth="yes"/>
      <point x="804" y="238"/>
      <point x="720" y="140"/>
      <point x="588" y="140" type="curve" smooth="yes"/>
      <point x="530" y="140"/>
      <point x="478" y="148"/>
      <point x="426" y="166" type="curve"/>
      <point x="426" y="0" type="line"/>
      <point x="480" y="-16"/>
      <point x="544" y="-28"/>
      <point x="606" y="-28" type="curve" smooth="yes"/>
      <point x="814" y="-28"/>
      <point x="1008" y="104"/>
      <point x="1008" y="384" type="curve" smooth="yes"/>
      <point x="1008" y="662"/>
      <point x="846" y="798"/>
      <point x="574" y="814" type="curve"/>
      <point x="648" y="730" type="line"/>
      <point x="934" y="1176" type="line"/>
      <point x="934" y="1322" type="line"/>
      <point x="850" y="1384"/>
      <point x="728" y="1428"/>
      <point x="582" y="1428" type="curve" smooth="yes"/>
      <point x="316" y="1428"/>
      <point x="132" y="1282"/>
      <point x="132" y="982" type="curve" smooth="yes"/>
    </contour>
  </outline>
</glyph>
<glyph name="endash" format="2">
  <advance width="942"/>
  <unicode hex="2013"/>
  <outline>
    <contour>
      <point x="0" y="536" type="line"/>
      <point x="942" y="536" type="line"/>
      <point x="942" y="708" type="line"/>
      <point x="0" y="708" type="line"/>
    </contour>
  </outline>
</glyph>
<glyph name="emdash" format="2">
  <advance width="1252"/>
  <unicode hex="2014"/>
  <outline>
    <contour>
      <point x="0" y="536" type="line"/>
      <point x="1252" y="536" type="line"/>
      <point x="1252" y="708" type="line"/>
      <point x="0" y="708" type="line"/>
    </contour>
  </outline>
</glyph>
<glyph name="dagger" format="2">
  <advance width="732"/>
  <unicode hex="2020"/>
  <outline>
    <contour>
      <point x="306" y="0" type="line"/>
      <point x="428" y="0" type="line"/>
      <point x="480" y="504" type="line"/>
      <point x="418" y="806" type="line"/>
      <point x="670" y="746" type="line"/>
      <point x="670" y="916" type="line"/>
      <point x="420" y="854" type="line"/>
      <point x="476" y="1214" type="line"/>
      <point x="258" y="1214" type="line"/>
      <point x="312" y="854" type="line"/>
      <point x="62" y="916" type="line"/>
      <point x="62" y="746" type="line"/>
      <point x="314" y="806" type="line"/>
      <point x="252" y="504" type="line"/>
    </contour>
  </outline>
</glyph>
<glyph name="daggerdbl" format="2">
  <advance width="772"/>
  <unicode hex="2021"/>
  <outline>
    <contour>
      <point x="278" y="-118" type="line"/>
      <point x="496" y="-118" type="line"/>
      <point x="440" y="236" type="line"/>
      <point x="690" y="176" type="line"/>
      <point x="690" y="344" type="line"/>
      <point x="436" y="284" type="line"/>
      <point x="500" y="548" type="line"/>
      <point x="436" y="814" type="line"/>
      <point x="690" y="754" type="line"/>
      <point x="690" y="922" type="line"/>
      <point x="440" y="862" type="line"/>
      <point x="496" y="1214" type="line"/>
      <point x="278" y="1214" type="line"/>
      <point x="332" y="862" type="line"/>
      <point x="82" y="922" type="line"/>
      <point x="82" y="754" type="line"/>
      <point x="336" y="814" type="line"/>
      <point x="272" y="548" type="line"/>
      <point x="336" y="284" type="line"/>
      <point x="82" y="344" type="line"/>
      <point x="82" y="176" type="line"/>
      <point x="332" y="236" type="line"/>
    </contour>
  </outline>
</glyph>
<glyph name="bullet" format="2">
  <advance width="572"/>
  <unicode hex="2022"/>
  <outline>
    <contour>
      <point x="286" y="338" type="curve" smooth="yes"/>
      <point x="404" y="338"/>
      <point x="484" y="436"/>
      <point x="484" y="556" type="curve" smooth="yes"/>
      <point x="484" y="676"/>
      <point x="404" y="774"/>
      <point x="286" y="774" type="curve" smooth="yes"/>
      <point x="168" y="774"/>
      <point x="88" y="676"/>
      <point x="88" y="556" type="curve" smooth="yes"/>
      <point x="88" y="436"/>
      <point x="168" y="338"/>
    </contour>
  </outline>
</glyph>
<glyph name="minute" format="2">
  <advance width="356"/>
  <unicode hex="2032"/>
  <outline>
    <contour>
      <point x="68" y="1026" type="line"/>
      <point x="188" y="1026" type="line"/>
      <point x="244" y="1400" type="line"/>
      <point x="68" y="1400" type="line"/>
    </contour>
  </outline>
</glyph>
<glyph name="guilsinglleft" format="2">
  <advance width="598"/>
  <unicode hex="2039"/>
  <outline>
    <contour>
      <point x="286" y="156" type="line"/>
      <point x="502" y="156" type="line"/>
      <point x="232" y="568" type="line"/>
      <point x="502" y="980" type="line"/>
      <point x="286" y="980" type="line"/>
      <point x="18" y="568" type="line"/>
    </contour>
  </outline>
</glyph>
<glyph name="guilsinglright" format="2">
  <advance width="598"/>
  <unicode hex="203A"/>
  <outline>
    <contour>
      <point x="96" y="156" type="line"/>
      <point x="310" y="156" type="line"/>
      <point x="580" y="568" type="line"/>
      <point x="310" y="980" type="line"/>
      <point x="96" y="980" type="line"/>
      <point x="364" y="568" type="line"/>
    </contour>
  </outline>
</glyph>
<glyph name="fraction" format="2">
  <advance width="114"/>
  <unicode hex="2044"/>
  <outline>
    <contour>
      <point x="-370" y="0" type="line"/>
      <point x="-208" y="0" type="line"/>
      <point x="484" y="1400" type="line"/>
      <point x="324" y="1400" type="line"/>
    </contour>
  </outline>
</glyph>
<glyph name="franc" format="2">
  <advance width="940"/>
  <unicode hex="20A3"/>
  <outline>
    <contour>
      <point x="172" y="0" type="line"/>
      <point x="356" y="0" type="line"/>
      <point x="356" y="650" type="line"/>
      <point x="784" y="650" type="line"/>
      <point x="784" y="818" type="line"/>
      <point x="356" y="818" type="line"/>
      <point x="356" y="1232" type="line"/>
      <point x="910" y="1232" type="line"/>
      <point x="910" y="1400" type="line"/>
      <point x="172" y="1400" type="line"/>
    </contour>
    <contour>
      <point x="40" y="276" type="line"/>
      <point x="680" y="276" type="line"/>
      <point x="680" y="424" type="line"/>
      <point x="40" y="424" type="line"/>
    </contour>
  </outline>
</glyph>
<glyph name="lira" format="2">
  <advance width="898"/>
  <unicode hex="20A4"/>
  <outline>
    <contour>
      <point x="290" y="98" type="line"/>
      <point x="366" y="268"/>
      <point x="394" y="394"/>
      <point x="420" y="652" type="curve" smooth="yes"/>
      <point x="458" y="1016" type="line" smooth="yes"/>
      <point x="474" y="1166"/>
      <point x="530" y="1260"/>
      <point x="642" y="1260" type="curve" smooth="yes"/>
      <point x="712" y="1260"/>
      <point x="766" y="1230"/>
      <point x="828" y="1176" type="curve"/>
      <point x="848" y="1374" type="line"/>
      <point x="782" y="1406"/>
      <point x="714" y="1428"/>
      <point x="632" y="1428" type="curve" smooth="yes"/>
      <point x="408" y="1428"/>
      <point x="300" y="1264"/>
      <point x="276" y="1000" type="curve" smooth="yes"/>
      <point x="238" y="636" type="line" smooth="yes"/>
      <point x="212" y="380"/>
      <point x="168" y="220"/>
      <point x="80" y="0" type="curve"/>
      <point x="858" y="0" type="line"/>
      <point x="858" y="168" type="line"/>
      <point x="246" y="168" type="line"/>
    </contour>
    <contour>
      <point x="108" y="776" type="line"/>
      <point x="742" y="776" type="line"/>
      <point x="742" y="920" type="line"/>
      <point x="108" y="920" type="line"/>
    </contour>
    <contour>
      <point x="108" y="472" type="line"/>
      <point x="742" y="472" type="line"/>
      <point x="742" y="616" type="line"/>
      <point x="108" y="616" type="line"/>
    </contour>
  </outline>
</glyph>
<glyph name="naira" format="2">
  <advance width="1310"/>
  <unicode hex="20A6"/>
  <outline>
    <contour>
      <point x="184" y="0" type="line"/>
      <point x="368" y="0" type="line"/>
      <point x="368" y="1078" type="line"/>
      <point x="956" y="0" type="line"/>
      <point x="1126" y="0" type="line"/>
      <point x="1126" y="1400" type="line"/>
      <point x="942" y="1400" type="line"/>
      <point x="942" y="380" type="line"/>
      <point x="392" y="1400" type="line"/>
      <point x="184" y="1400" type="line"/>
    </contour>
    <contour>
      <point x="52" y="672" type="line"/>
      <point x="1258" y="672" type="line"/>
      <point x="1258" y="820" type="line"/>
      <point x="52" y="820" type="line"/>
    </contour>
  </outline>
</glyph>
<glyph name="peseta" format="2">
  <advance width="2242"/>
  <unicode hex="20A7"/>
  <outline>
    <contour>
      <point x="148" y="0" type="line"/>
      <point x="332" y="0" type="line"/>
      <point x="332" y="490" type="line"/>
      <point x="508" y="490" type="line" smooth="yes"/>
      <point x="796" y="490"/>
      <point x="974" y="646"/>
      <point x="974" y="946" type="curve" smooth="yes"/>
      <point x="974" y="1246"/>
      <point x="796" y="1400"/>
      <point x="508" y="1400" type="curve" smooth="yes"/>
      <point x="148" y="1400" type="line"/>
    </contour>
    <contour>
      <point x="332" y="658" type="line"/>
      <point x="332" y="1232" type="line"/>
      <point x="492" y="1232" type="line" smooth="yes"/>
      <point x="694" y="1232"/>
      <point x="782" y="1126"/>
      <point x="782" y="946" type="curve" smooth="yes"/>
      <point x="782" y="766"/>
      <point x="694" y="658"/>
      <point x="492" y="658" type="curve" smooth="yes"/>
    </contour>
    <contour>
      <point x="1384" y="-20" type="curve" smooth="yes"/>
      <point x="1528" y="-20" type="line"/>
      <point x="1544" y="124" type="line"/>
      <point x="1482" y="124" type="line" smooth="yes"/>
      <point x="1374" y="124"/>
      <point x="1336" y="166"/>
      <point x="1336" y="284" type="curve" smooth="yes"/>
      <point x="1336" y="840" type="line"/>
      <point x="1546" y="840" type="line"/>
      <point x="1546" y="980" type="line"/>
      <point x="1336" y="980" type="line"/>
      <point x="1336" y="1240" type="line"/>
      <point x="1160" y="1222" type="line"/>
      <point x="1160" y="980" type="line"/>
      <point x="1040" y="980" type="line"/>
      <point x="1024" y="840" type="line"/>
      <point x="1160" y="840" type="line"/>
      <point x="1160" y="214" type="line" smooth="yes"/>
      <point x="1160" y="96"/>
      <point x="1222" y="-20"/>
    </contour>
    <contour>
      <point x="1886" y="-20" type="curve" smooth="yes"/>
      <point x="2082" y="-20"/>
      <point x="2206" y="88"/>
      <point x="2206" y="274" type="curve" smooth="yes"/>
      <point x="2206" y="418"/>
      <point x="2134" y="490"/>
      <point x="1950" y="574" type="curve" smooth="yes"/>
      <point x="1832" y="628"/>
      <point x="1778" y="652"/>
      <point x="1778" y="730" type="curve" smooth="yes"/>
      <point x="1778" y="802"/>
      <point x="1834" y="844"/>
      <point x="1926" y="844" type="curve" smooth="yes"/>
      <point x="2020" y="844"/>
      <point x="2078" y="816"/>
      <point x="2142" y="772" type="curve"/>
      <point x="2164" y="936" type="line"/>
      <point x="2100" y="974"/>
      <point x="2024" y="1000"/>
      <point x="1912" y="1000" type="curve" smooth="yes"/>
      <point x="1720" y="1000"/>
      <point x="1602" y="886"/>
      <point x="1602" y="728" type="curve" smooth="yes"/>
      <point x="1602" y="588"/>
      <point x="1670" y="512"/>
      <point x="1810" y="448" type="curve" smooth="yes"/>
      <point x="1976" y="372"/>
      <point x="2026" y="342"/>
      <point x="2026" y="254" type="curve" smooth="yes"/>
      <point x="2026" y="174"/>
      <point x="1966" y="136"/>
      <point x="1874" y="136" type="curve" smooth="yes"/>
      <point x="1784" y="136"/>
      <point x="1694" y="172"/>
      <point x="1610" y="236" type="curve"/>
      <point x="1588" y="60" type="line"/>
      <point x="1670" y="8"/>
      <point x="1766" y="-20"/>
    </contour>
  </outline>
</glyph>
<glyph name="won" format="2">
  <advance width="1660"/>
  <unicode hex="20A9"/>
  <outline>
    <contour>
      <point x="360" y="0" type="line"/>
      <point x="568" y="0" type="line"/>
      <point x="848" y="1190" type="line"/>
      <point x="808" y="1190" type="line"/>
      <point x="1092" y="0" type="line"/>
      <point x="1300" y="0" type="line"/>
      <point x="1644" y="1400" type="line"/>
      <point x="1448" y="1400" type="line"/>
      <point x="1178" y="174" type="line"/>
      <point x="1216" y="174" type="line"/>
      <point x="934" y="1372" type="line"/>
      <point x="726" y="1372" type="line"/>
      <point x="444" y="174" type="line"/>
      <point x="482" y="174" type="line"/>
      <point x="212" y="1400" type="line"/>
      <point x="16" y="1400" type="line"/>
    </contour>
    <contour>
      <point x="50" y="664" type="line"/>
      <point x="1610" y="664" type="line"/>
      <point x="1610" y="812" type="line"/>
      <point x="50" y="812" type="line"/>
    </contour>
  </outline>
</glyph>
<glyph name="dong" format="2">
  <advance width="1006"/>
  <unicode hex="20AB"/>
  <guideline x="437"/>
  <guideline x="29" y="244" angle="90"/>
  <outline>
    <contour>
      <point x="456" y="-20" type="curve" smooth="yes"/>
      <point x="590" y="-20"/>
      <point x="706" y="52"/>
      <point x="760" y="180" type="curve"/>
      <point x="684" y="208" type="line"/>
      <point x="718" y="0" type="line"/>
      <point x="874" y="0" type="line"/>
      <point x="874" y="1500" type="line"/>
      <point x="698" y="1500" type="line"/>
      <point x="698" y="790" type="line"/>
      <point x="764" y="814" type="line"/>
      <point x="694" y="930"/>
      <point x="592" y="1000"/>
      <point x="456" y="1000" type="curve" smooth="yes"/>
      <point x="210" y="1000"/>
      <point x="58" y="762"/>
      <point x="58" y="488" type="curve" smooth="yes"/>
      <point x="58" y="200"/>
      <point x="224" y="-20"/>
    </contour>
    <contour>
      <point x="158" y="-262" type="line"/>
      <point x="874" y="-262" type="line"/>
      <point x="874" y="-116" type="line"/>
      <point x="158" y="-116" type="line"/>
    </contour>
    <contour>
      <point x="474" y="136" type="curve" smooth="yes"/>
      <point x="338" y="136"/>
      <point x="238" y="294"/>
      <point x="238" y="488" type="curve" smooth="yes"/>
      <point x="238" y="694"/>
      <point x="338" y="844"/>
      <point x="474" y="844" type="curve" smooth="yes"/>
      <point x="614" y="844"/>
      <point x="714" y="726"/>
      <point x="714" y="488" type="curve" smooth="yes"/>
      <point x="714" y="240"/>
      <point x="612" y="136"/>
    </contour>
    <contour>
      <point x="418" y="1174" type="line"/>
      <point x="1002" y="1174" type="line"/>
      <point x="1002" y="1314" type="line"/>
      <point x="418" y="1314" type="line"/>
    </contour>
  </outline>
</glyph>
<glyph name="euro" format="2">
  <advance width="1120"/>
  <unicode hex="20AC"/>
  <outline>
    <contour>
      <point x="776" y="-28" type="curve" smooth="yes"/>
      <point x="900" y="-28"/>
      <point x="994" y="-6"/>
      <point x="1072" y="28" type="curve"/>
      <point x="1052" y="200" type="line"/>
      <point x="978" y="162"/>
      <point x="898" y="140"/>
      <point x="806" y="140" type="curve" smooth="yes"/>
      <point x="500" y="140"/>
      <point x="340" y="388"/>
      <point x="340" y="700" type="curve" smooth="yes"/>
      <point x="340" y="1012"/>
      <point x="500" y="1260"/>
      <point x="804" y="1260" type="curve" smooth="yes"/>
      <point x="898" y="1260"/>
      <point x="976" y="1234"/>
      <point x="1052" y="1196" type="curve"/>
      <point x="1072" y="1368" type="line"/>
      <point x="990" y="1402"/>
      <point x="892" y="1428"/>
      <point x="768" y="1428" type="curve" smooth="yes"/>
      <point x="402" y="1428"/>
      <point x="136" y="1144"/>
      <point x="136" y="700" type="curve" smooth="yes"/>
      <point x="136" y="256"/>
      <point x="386" y="-28"/>
    </contour>
    <contour>
      <point x="-16" y="460" type="line"/>
      <point x="842" y="460" type="line"/>
      <point x="842" y="608" type="line"/>
      <point x="-16" y="608" type="line"/>
    </contour>
    <contour>
      <point x="-16" y="804" type="line"/>
      <point x="842" y="804" type="line"/>
      <point x="842" y="952" type="line"/>
      <point x="-16" y="952" type="line"/>
    </contour>
  </outline>
</glyph>
<glyph name="kip" format="2">
  <advance width="1200"/>
  <unicode hex="20AD"/>
  <outline>
    <contour>
      <point x="850" y="0" type="line"/>
      <point x="1054" y="0" type="line"/>
      <point x="600" y="742" type="line"/>
      <point x="1054" y="1400" type="line"/>
      <point x="850" y="1400" type="line"/>
      <point x="400" y="742" type="line"/>
    </contour>
    <contour>
      <point x="206" y="0" type="line"/>
      <point x="390" y="0" type="line"/>
      <point x="390" y="1400" type="line"/>
      <point x="206" y="1400" type="line"/>
    </contour>
    <contour>
      <point x="74" y="666" type="line"/>
      <point x="978" y="666" type="line"/>
      <point x="978" y="810" type="line"/>
      <point x="74" y="810" type="line"/>
    </contour>
  </outline>
</glyph>
<glyph name="peso" format="2">
  <advance width="1118"/>
  <unicode hex="20B1"/>
  <outline>
    <contour>
      <point x="152" y="0" type="line"/>
      <point x="336" y="0" type="line"/>
      <point x="336" y="390" type="line"/>
      <point x="512" y="390" type="line" smooth="yes"/>
      <point x="800" y="390"/>
      <point x="978" y="564"/>
      <point x="978" y="896" type="curve" smooth="yes"/>
      <point x="978" y="1230"/>
      <point x="800" y="1400"/>
      <point x="512" y="1400" type="curve" smooth="yes"/>
      <point x="152" y="1400" type="line"/>
    </contour>
    <contour>
      <point x="336" y="558" type="line"/>
      <point x="336" y="1232" type="line"/>
      <point x="496" y="1232" type="line" smooth="yes"/>
      <point x="698" y="1232"/>
      <point x="786" y="1108"/>
      <point x="786" y="896" type="curve" smooth="yes"/>
      <point x="786" y="684"/>
      <point x="698" y="558"/>
      <point x="496" y="558" type="curve" smooth="yes"/>
    </contour>
    <contour>
      <point x="20" y="962" type="line"/>
      <point x="1098" y="962" type="line"/>
      <point x="1098" y="1102" type="line"/>
      <point x="20" y="1102" type="line"/>
    </contour>
    <contour>
      <point x="20" y="688" type="line"/>
      <point x="1098" y="688" type="line"/>
      <point x="1098" y="828" type="line"/>
      <point x="20" y="828" type="line"/>
    </contour>
  </outline>
</glyph>
<glyph name="guarani" format="2">
  <advance width="1142"/>
  <unicode hex="20B2"/>
  <outline>
    <contour>
      <point x="716" y="-28" type="curve" smooth="yes"/>
      <point x="844" y="-28"/>
      <point x="974" y="8"/>
      <point x="1062" y="64" type="curve"/>
      <point x="1062" y="702" type="line"/>
      <point x="700" y="702" type="line"/>
      <point x="700" y="534" type="line"/>
      <point x="878" y="534" type="line"/>
      <point x="878" y="168" type="line"/>
      <point x="836" y="150"/>
      <point x="782" y="140"/>
      <point x="726" y="140" type="curve" smooth="yes"/>
      <point x="414" y="140"/>
      <point x="264" y="378"/>
      <point x="264" y="700" type="curve" smooth="yes"/>
      <point x="264" y="1012"/>
      <point x="424" y="1260"/>
      <point x="728" y="1260" type="curve" smooth="yes"/>
      <point x="838" y="1260"/>
      <point x="920" y="1236"/>
      <point x="1002" y="1196" type="curve"/>
      <point x="1022" y="1368" type="line"/>
      <point x="938" y="1404"/>
      <point x="838" y="1428"/>
      <point x="710" y="1428" type="curve" smooth="yes"/>
      <point x="334" y="1428"/>
      <point x="60" y="1144"/>
      <point x="60" y="700" type="curve" smooth="yes"/>
      <point x="60" y="276"/>
      <point x="306" y="-28"/>
    </contour>
    <contour>
      <point x="624" y="-288" type="line"/>
      <point x="780" y="-288" type="line"/>
      <point x="760" y="68" type="line"/>
      <point x="644" y="68" type="line"/>
    </contour>
    <contour>
      <point x="644" y="1346" type="line"/>
      <point x="760" y="1346" type="line"/>
      <point x="780" y="1688" type="line"/>
      <point x="624" y="1688" type="line"/>
    </contour>
  </outline>
</glyph>
<glyph name="cedi" format="2">
  <advance width="1048"/>
  <unicode hex="20B5"/>
  <outline>
    <contour>
      <point x="700" y="-28" type="curve" smooth="yes"/>
      <point x="824" y="-28"/>
      <point x="918" y="-6"/>
      <point x="996" y="28" type="curve"/>
      <point x="976" y="200" type="line"/>
      <point x="902" y="162"/>
      <point x="822" y="140"/>
      <point x="730" y="140" type="curve" smooth="yes"/>
      <point x="424" y="140"/>
      <point x="264" y="388"/>
      <point x="264" y="700" type="curve" smooth="yes"/>
      <point x="264" y="1012"/>
      <point x="424" y="1260"/>
      <point x="728" y="1260" type="curve" smooth="yes"/>
      <point x="822" y="1260"/>
      <point x="900" y="1234"/>
      <point x="976" y="1196" type="curve"/>
      <point x="996" y="1368" type="line"/>
      <point x="914" y="1402"/>
      <point x="816" y="1428"/>
      <point x="692" y="1428" type="curve" smooth="yes"/>
      <point x="326" y="1428"/>
      <point x="60" y="1144"/>
      <point x="60" y="700" type="curve" smooth="yes"/>
      <point x="60" y="256"/>
      <point x="310" y="-28"/>
    </contour>
    <contour>
      <point x="604" y="-288" type="line"/>
      <point x="760" y="-288" type="line"/>
      <point x="740" y="68" type="line"/>
      <point x="624" y="68" type="line"/>
    </contour>
    <contour>
      <point x="624" y="1346" type="line"/>
      <point x="740" y="1346" type="line"/>
      <point x="760" y="1688" type="line"/>
      <point x="604" y="1688" type="line"/>
    </contour>
  </outline>
</glyph>
<glyph name="rupeeIndian" format="2">
  <advance width="904"/>
  <unicode hex="20B9"/>
  <outline>
    <contour>
      <point x="64" y="490" type="line"/>
      <point x="278" y="490" type="line" smooth="yes"/>
      <point x="558" y="490"/>
      <point x="742" y="644"/>
      <point x="742" y="940" type="curve" smooth="yes"/>
      <point x="742" y="1094"/>
      <point x="686" y="1208"/>
      <point x="588" y="1284" type="curve"/>
      <point x="570" y="1250" type="line"/>
      <point x="862" y="1250" type="line"/>
      <point x="862" y="1400" type="line"/>
      <point x="64" y="1400" type="line"/>
      <point x="64" y="1250" type="line"/>
      <point x="250" y="1250" type="line" smooth="yes"/>
      <point x="438" y="1250"/>
      <point x="546" y="1144"/>
      <point x="546" y="940" type="curve" smooth="yes"/>
      <point x="546" y="736"/>
      <point x="438" y="640"/>
      <point x="250" y="640" type="curve" smooth="yes"/>
      <point x="64" y="640" type="line"/>
    </contour>
    <contour>
      <point x="672" y="0" type="line"/>
      <point x="872" y="0" type="line"/>
      <point x="538" y="568" type="line"/>
      <point x="342" y="568" type="line"/>
    </contour>
    <contour>
      <point x="64" y="868" type="line"/>
      <point x="862" y="868" type="line"/>
      <point x="862" y="1018" type="line"/>
      <point x="64" y="1018" type="line"/>
    </contour>
  </outline>
</glyph>
<glyph name="liraTurkish" format="2">
  <advance width="996"/>
  <unicode hex="20BA"/>
  <outline>
    <contour>
      <point x="356" y="1400" type="line"/>
      <point x="172" y="1400" type="line"/>
      <point x="172" y="0" type="line"/>
      <point x="370" y="0" type="line" smooth="yes"/>
      <point x="714" y="0"/>
      <point x="936" y="198"/>
      <point x="936" y="634" type="curve" smooth="yes"/>
      <point x="936" y="690" type="line"/>
      <point x="752" y="690" type="line"/>
      <point x="752" y="634" type="line" smooth="yes"/>
      <point x="752" y="322"/>
      <point x="626" y="168"/>
      <point x="384" y="168" type="curve" smooth="yes"/>
      <point x="356" y="168" type="line"/>
    </contour>
    <contour>
      <point x="40" y="592" type="line"/>
      <point x="836" y="872" type="line"/>
      <point x="836" y="1030" type="line"/>
      <point x="40" y="750" type="line"/>
    </contour>
    <contour>
      <point x="40" y="892" type="line"/>
      <point x="836" y="1172" type="line"/>
      <point x="836" y="1330" type="line"/>
      <point x="40" y="1050" type="line"/>
    </contour>
  </outline>
</glyph>
<glyph name="manat" format="2">
  <advance width="1192"/>
  <unicode hex="20BC"/>
  <outline>
    <contour>
      <point x="620" y="1168" type="curve" smooth="yes"/>
      <point x="280" y="1168"/>
      <point x="120" y="938"/>
      <point x="120" y="566" type="curve" smooth="yes"/>
      <point x="120" y="0" type="line"/>
      <point x="304" y="0" type="line"/>
      <point x="304" y="534" type="line" smooth="yes"/>
      <point x="304" y="770"/>
      <point x="350" y="996"/>
      <point x="620" y="996" type="curve" smooth="yes"/>
      <point x="890" y="996"/>
      <point x="936" y="768"/>
      <point x="936" y="534" type="curve" smooth="yes"/>
      <point x="936" y="0" type="line"/>
      <point x="1120" y="0" type="line"/>
      <point x="1120" y="566" type="line" smooth="yes"/>
      <point x="1120" y="938"/>
      <point x="960" y="1168"/>
    </contour>
    <contour>
      <point x="528" y="0" type="line"/>
      <point x="712" y="0" type="line"/>
      <point x="712" y="1400" type="line"/>
      <point x="528" y="1400" type="line"/>
    </contour>
  </outline>
</glyph>
<glyph name="ruble" format="2">
  <advance width="1014"/>
  <unicode hex="20BD"/>
  <outline>
    <contour>
      <point x="152" y="0" type="line"/>
      <point x="336" y="0" type="line"/>
      <point x="336" y="1232" type="line"/>
      <point x="496" y="1232" type="line" smooth="yes"/>
      <point x="698" y="1232"/>
      <point x="786" y="1128"/>
      <point x="786" y="948" type="curve" smooth="yes"/>
      <point x="786" y="768"/>
      <point x="698" y="660"/>
      <point x="496" y="660" type="curve" smooth="yes"/>
      <point x="20" y="660" type="line"/>
      <point x="20" y="492" type="line"/>
      <point x="512" y="492" type="line" smooth="yes"/>
      <point x="800" y="492"/>
      <point x="978" y="648"/>
      <point x="978" y="948" type="curve" smooth="yes"/>
      <point x="978" y="1248"/>
      <point x="800" y="1400"/>
      <point x="512" y="1400" type="curve" smooth="yes"/>
      <point x="152" y="1400" type="line"/>
    </contour>
    <contour>
      <point x="20" y="214" type="line"/>
      <point x="678" y="214" type="line"/>
      <point x="678" y="364" type="line"/>
      <point x="20" y="364" type="line"/>
    </contour>
  </outline>
</glyph>
<glyph name="literSign" format="2">
  <advance width="996"/>
  <unicode hex="2113"/>
  <outline>
    <contour>
      <point x="544" y="-16" type="curve" smooth="yes"/>
      <point x="768" y="-16"/>
      <point x="838" y="122"/>
      <point x="848" y="336" type="curve"/>
      <point x="700" y="336" type="line"/>
      <point x="694" y="200"/>
      <point x="662" y="114"/>
      <point x="574" y="114" type="curve" smooth="yes"/>
      <point x="490" y="114"/>
      <point x="446" y="180"/>
      <point x="446" y="344" type="curve" smooth="yes"/>
      <point x="446" y="1140" type="line" smooth="yes"/>
      <point x="446" y="1276"/>
      <point x="488" y="1322"/>
      <point x="542" y="1322" type="curve" smooth="yes"/>
      <point x="606" y="1322"/>
      <point x="638" y="1258"/>
      <point x="638" y="1132" type="curve" smooth="yes"/>
      <point x="638" y="800"/>
      <point x="418" y="724"/>
      <point x="80" y="618" type="curve"/>
      <point x="80" y="490" type="line"/>
      <point x="494" y="596"/>
      <point x="804" y="760"/>
      <point x="804" y="1126" type="curve" smooth="yes"/>
      <point x="804" y="1334"/>
      <point x="714" y="1446"/>
      <point x="542" y="1446" type="curve" smooth="yes"/>
      <point x="358" y="1446"/>
      <point x="266" y="1328"/>
      <point x="266" y="1114" type="curve" smooth="yes"/>
      <point x="266" y="340" type="line" smooth="yes"/>
      <point x="266" y="124"/>
      <point x="356" y="-16"/>
    </contour>
  </outline>
</glyph>
<glyph name="numero" format="2">
  <advance width="2086"/>
  <unicode hex="2116"/>
  <outline>
    <contour>
      <point x="132" y="0" type="line"/>
      <point x="316" y="0" type="line"/>
      <point x="316" y="1078" type="line"/>
      <point x="904" y="0" type="line"/>
      <point x="1074" y="0" type="line"/>
      <point x="1074" y="1400" type="line"/>
      <point x="890" y="1400" type="line"/>
      <point x="890" y="380" type="line"/>
      <point x="340" y="1400" type="line"/>
      <point x="132" y="1400" type="line"/>
    </contour>
    <contour>
      <point x="1370" y="158" type="line"/>
      <point x="1870" y="158" type="line"/>
      <point x="1870" y="318" type="line"/>
      <point x="1370" y="318" type="line"/>
    </contour>
    <contour>
      <point x="1620" y="468" type="curve" smooth="yes"/>
      <point x="1874" y="468"/>
      <point x="2026" y="680"/>
      <point x="2026" y="948" type="curve" smooth="yes"/>
      <point x="2026" y="1216"/>
      <point x="1874" y="1428"/>
      <point x="1620" y="1428" type="curve" smooth="yes"/>
      <point x="1364" y="1428"/>
      <point x="1214" y="1216"/>
      <point x="1214" y="948" type="curve" smooth="yes"/>
      <point x="1214" y="680"/>
      <point x="1364" y="468"/>
    </contour>
    <contour>
      <point x="1620" y="628" type="curve" smooth="yes"/>
      <point x="1478" y="628"/>
      <point x="1398" y="746"/>
      <point x="1398" y="948" type="curve" smooth="yes"/>
      <point x="1398" y="1150"/>
      <point x="1478" y="1268"/>
      <point x="1620" y="1268" type="curve" smooth="yes"/>
      <point x="1762" y="1268"/>
      <point x="1842" y="1150"/>
      <point x="1842" y="948" type="curve" smooth="yes"/>
      <point x="1842" y="746"/>
      <point x="1762" y="628"/>
    </contour>
  </outline>
</glyph>
<glyph name="trademark" format="2">
  <advance width="1278"/>
  <unicode hex="2122"/>
  <outline>
    <contour>
      <point x="538" y="674" type="line"/>
      <point x="650" y="674" type="line"/>
      <point x="710" y="1298" type="line"/>
      <point x="656" y="1270" type="line"/>
      <point x="848" y="866" type="line"/>
      <point x="862" y="866" type="line"/>
      <point x="1054" y="1268" type="line"/>
      <point x="1002" y="1296" type="line"/>
      <point x="1060" y="674" type="line"/>
      <point x="1174" y="674" type="line"/>
      <point x="1090" y="1400" type="line"/>
      <point x="1024" y="1400" type="line"/>
      <point x="856" y="1042" type="line"/>
      <point x="686" y="1400" type="line"/>
      <point x="620" y="1400" type="line"/>
    </contour>
    <contour>
      <point x="238" y="674" type="line"/>
      <point x="346" y="674" type="line"/>
      <point x="346" y="1300" type="line"/>
      <point x="514" y="1300" type="line"/>
      <point x="528" y="1400" type="line"/>
      <point x="66" y="1400" type="line"/>
      <point x="66" y="1300" type="line"/>
      <point x="238" y="1300" type="line"/>
    </contour>
  </outline>
</glyph>
<glyph name="Ohm" format="2">
  <advance width="1408"/>
  <unicode hex="2126"/>
  <outline>
    <contour>
      <point x="108" y="0" type="line"/>
      <point x="640" y="0" type="line"/>
      <point x="640" y="182" type="line"/>
      <point x="464" y="314"/>
      <point x="336" y="482"/>
      <point x="336" y="774" type="curve" smooth="yes"/>
      <point x="336" y="1060"/>
      <point x="478" y="1244"/>
      <point x="704" y="1244" type="curve" smooth="yes"/>
      <point x="930" y="1244"/>
      <point x="1072" y="1068"/>
      <point x="1072" y="776" type="curve" smooth="yes"/>
      <point x="1072" y="482"/>
      <point x="960" y="316"/>
      <point x="766" y="182" type="curve"/>
      <point x="766" y="0" type="line"/>
      <point x="1300" y="0" type="line"/>
      <point x="1300" y="172" type="line"/>
      <point x="982" y="172" type="line"/>
      <point x="1148" y="296"/>
      <point x="1268" y="494"/>
      <point x="1268" y="782" type="curve" smooth="yes"/>
      <point x="1268" y="1162"/>
      <point x="1058" y="1428"/>
      <point x="704" y="1428" type="curve" smooth="yes"/>
      <point x="350" y="1428"/>
      <point x="140" y="1162"/>
      <point x="140" y="782" type="curve" smooth="yes"/>
      <point x="140" y="494"/>
      <point x="264" y="292"/>
      <point x="424" y="172" type="curve"/>
      <point x="108" y="172" type="line"/>
    </contour>
  </outline>
</glyph>
<glyph name="partialdiff" format="2">
  <advance width="1018"/>
  <unicode hex="2202"/>
  <outline>
    <contour>
      <point x="398" y="-20" type="curve" smooth="yes"/>
      <point x="768" y="-20"/>
      <point x="926" y="452"/>
      <point x="926" y="908" type="curve" smooth="yes"/>
      <point x="926" y="1234"/>
      <point x="822" y="1448"/>
      <point x="558" y="1448" type="curve" smooth="yes"/>
      <point x="484" y="1448"/>
      <point x="398" y="1430"/>
      <point x="326" y="1394" type="curve"/>
      <point x="326" y="1226" type="line"/>
      <point x="392" y="1264"/>
      <point x="466" y="1288"/>
      <point x="534" y="1288" type="curve" smooth="yes"/>
      <point x="692" y="1288"/>
      <point x="742" y="1138"/>
      <point x="742" y="930" type="curve" smooth="yes"/>
      <point x="742" y="526"/>
      <point x="614" y="140"/>
      <point x="410" y="140" type="curve" smooth="yes"/>
      <point x="296" y="140"/>
      <point x="248" y="224"/>
      <point x="248" y="390" type="curve" smooth="yes"/>
      <point x="248" y="588"/>
      <point x="348" y="840"/>
      <point x="548" y="840" type="curve" smooth="yes"/>
      <point x="676" y="840"/>
      <point x="762" y="750"/>
      <point x="812" y="618" type="curve"/>
      <point x="824" y="844" type="line"/>
      <point x="764" y="928"/>
      <point x="672" y="1000"/>
      <point x="518" y="1000" type="curve" smooth="yes"/>
      <point x="216" y="1000"/>
      <point x="64" y="670"/>
      <point x="64" y="374" type="curve" smooth="yes"/>
      <point x="64" y="144"/>
      <point x="168" y="-20"/>
    </contour>
  </outline>
</glyph>
<glyph name="emptyset" format="2">
  <advance width="960"/>
  <unicode hex="2205"/>
  <outline>
    <contour>
      <point x="480" y="124" type="curve" smooth="yes"/>
      <point x="712" y="124"/>
      <point x="900" y="320"/>
      <point x="900" y="564" type="curve" smooth="yes"/>
      <point x="900" y="806"/>
      <point x="712" y="1004"/>
      <point x="480" y="1004" type="curve" smooth="yes"/>
      <point x="248" y="1004"/>
      <point x="60" y="806"/>
      <point x="60" y="564" type="curve" smooth="yes"/>
      <point x="60" y="320"/>
      <point x="248" y="124"/>
    </contour>
    <contour>
      <point x="480" y="280" type="curve" smooth="yes"/>
      <point x="334" y="280"/>
      <point x="224" y="402"/>
      <point x="224" y="564" type="curve" smooth="yes"/>
      <point x="224" y="726"/>
      <point x="334" y="848"/>
      <point x="480" y="848" type="curve" smooth="yes"/>
      <point x="626" y="848"/>
      <point x="736" y="726"/>
      <point x="736" y="564" type="curve" smooth="yes"/>
      <point x="736" y="402"/>
      <point x="626" y="280"/>
    </contour>
    <contour>
      <point x="152" y="70" type="line"/>
      <point x="900" y="982" type="line"/>
      <point x="808" y="1058" type="line"/>
      <point x="60" y="146" type="line"/>
    </contour>
  </outline>
</glyph>
<glyph name="increment" format="2">
  <advance width="1168"/>
  <unicode hex="2206"/>
  <outline>
    <contour>
      <point x="56" y="0" type="line"/>
      <point x="1112" y="0" type="line"/>
      <point x="1112" y="84" type="line"/>
      <point x="684" y="1400" type="line"/>
      <point x="484" y="1400" type="line"/>
      <point x="56" y="86" type="line"/>
    </contour>
    <contour>
      <point x="252" y="92" type="line"/>
      <point x="612" y="1230" type="line"/>
      <point x="556" y="1230" type="line"/>
      <point x="916" y="92" type="line"/>
      <point x="968" y="170" type="line"/>
      <point x="200" y="170" type="line"/>
    </contour>
  </outline>
</glyph>
<glyph name="product" format="2">
  <advance width="1156"/>
  <unicode hex="220F"/>
  <outline>
    <contour>
      <point x="180" y="-400" type="line"/>
      <point x="364" y="-400" type="line"/>
      <point x="364" y="1220" type="line"/>
      <point x="792" y="1220" type="line"/>
      <point x="792" y="-400" type="line"/>
      <point x="976" y="-400" type="line"/>
      <point x="976" y="1220" type="line"/>
      <point x="1136" y="1220" type="line"/>
      <point x="1136" y="1400" type="line"/>
      <point x="20" y="1400" type="line"/>
      <point x="20" y="1220" type="line"/>
      <point x="180" y="1220" type="line"/>
    </contour>
  </outline>
</glyph>
<glyph name="summation" format="2">
  <advance width="1028"/>
  <unicode hex="2211"/>
  <outline>
    <contour>
      <point x="32" y="-400" type="line"/>
      <point x="1012" y="-400" type="line"/>
      <point x="1012" y="-224" type="line"/>
      <point x="226" y="-224" type="line"/>
      <point x="248" y="-308" type="line"/>
      <point x="742" y="500" type="line"/>
      <point x="244" y="1308" type="line"/>
      <point x="226" y="1224" type="line"/>
      <point x="992" y="1224" type="line"/>
      <point x="992" y="1400" type="line"/>
      <point x="32" y="1400" type="line"/>
      <point x="32" y="1308" type="line"/>
      <point x="522" y="494" type="line"/>
      <point x="32" y="-320" type="line"/>
    </contour>
  </outline>
</glyph>
<glyph name="minus" format="2">
  <advance width="776"/>
  <unicode hex="2212"/>
  <outline>
    <contour>
      <point x="70" y="486" type="line"/>
      <point x="706" y="486" type="line"/>
      <point x="706" y="638" type="line"/>
      <point x="70" y="638" type="line"/>
    </contour>
  </outline>
</glyph>
<glyph name="radical" format="2">
  <advance width="1320"/>
  <unicode hex="221A"/>
  <outline>
    <contour>
      <point x="400" y="-400" type="line"/>
      <point x="590" y="-400" type="line"/>
      <point x="1070" y="1302" type="line"/>
      <point x="972" y="1220" type="line"/>
      <point x="1296" y="1220" type="line"/>
      <point x="1296" y="1400" type="line"/>
      <point x="920" y="1400" type="line"/>
      <point x="480" y="-174" type="line"/>
      <point x="510" y="-174" type="line"/>
      <point x="310" y="600" type="line"/>
      <point x="24" y="600" type="line"/>
      <point x="24" y="420" type="line"/>
      <point x="258" y="420" type="line"/>
      <point x="154" y="502" type="line"/>
    </contour>
  </outline>
</glyph>
<glyph name="infinity" format="2">
  <advance width="1338"/>
  <unicode hex="221E"/>
  <outline>
    <contour>
      <point x="406" y="352" type="curve" smooth="yes"/>
      <point x="588" y="352"/>
      <point x="726" y="502"/>
      <point x="726" y="704" type="curve" smooth="yes"/>
      <point x="726" y="906"/>
      <point x="588" y="1056"/>
      <point x="406" y="1056" type="curve" smooth="yes"/>
      <point x="218" y="1056"/>
      <point x="76" y="906"/>
      <point x="76" y="704" type="curve" smooth="yes"/>
      <point x="76" y="502"/>
      <point x="218" y="352"/>
    </contour>
    <contour>
      <point x="420" y="524" type="curve" smooth="yes"/>
      <point x="330" y="524"/>
      <point x="264" y="598"/>
      <point x="264" y="704" type="curve" smooth="yes"/>
      <point x="264" y="810"/>
      <point x="330" y="884"/>
      <point x="420" y="884" type="curve" smooth="yes"/>
      <point x="510" y="884"/>
      <point x="576" y="810"/>
      <point x="576" y="704" type="curve" smooth="yes"/>
      <point x="576" y="598"/>
      <point x="510" y="524"/>
    </contour>
    <contour>
      <point x="932" y="352" type="curve" smooth="yes"/>
      <point x="1120" y="352"/>
      <point x="1262" y="502"/>
      <point x="1262" y="704" type="curve" smooth="yes"/>
      <point x="1262" y="906"/>
      <point x="1120" y="1056"/>
      <point x="932" y="1056" type="curve" smooth="yes"/>
      <point x="750" y="1056"/>
      <point x="612" y="906"/>
      <point x="612" y="704" type="curve" smooth="yes"/>
      <point x="612" y="502"/>
      <point x="750" y="352"/>
    </contour>
    <contour>
      <point x="918" y="524" type="curve" smooth="yes"/>
      <point x="828" y="524"/>
      <point x="762" y="598"/>
      <point x="762" y="704" type="curve" smooth="yes"/>
      <point x="762" y="810"/>
      <point x="828" y="884"/>
      <point x="918" y="884" type="curve" smooth="yes"/>
      <point x="1008" y="884"/>
      <point x="1074" y="810"/>
      <point x="1074" y="704" type="curve" smooth="yes"/>
      <point x="1074" y="598"/>
      <point x="1008" y="524"/>
    </contour>
  </outline>
</glyph>
<glyph name="integral" format="2">
  <advance width="798"/>
  <unicode hex="222B"/>
  <outline>
    <contour>
      <point x="174" y="-428" type="curve" smooth="yes"/>
      <point x="344" y="-428"/>
      <point x="458" y="-320"/>
      <point x="466" y="-120" type="curve" smooth="yes"/>
      <point x="514" y="1066" type="line" smooth="yes"/>
      <point x="518" y="1188"/>
      <point x="572" y="1248"/>
      <point x="678" y="1248" type="curve" smooth="yes"/>
      <point x="712" y="1248"/>
      <point x="742" y="1242"/>
      <point x="768" y="1234" type="curve"/>
      <point x="782" y="1400" type="line"/>
      <point x="736" y="1418"/>
      <point x="684" y="1428"/>
      <point x="624" y="1428" type="curve" smooth="yes"/>
      <point x="454" y="1428"/>
      <point x="340" y="1320"/>
      <point x="332" y="1120" type="curve" smooth="yes"/>
      <point x="284" y="-66" type="line" smooth="yes"/>
      <point x="280" y="-188"/>
      <point x="226" y="-248"/>
      <point x="120" y="-248" type="curve" smooth="yes"/>
      <point x="86" y="-248"/>
      <point x="56" y="-242"/>
      <point x="30" y="-234" type="curve"/>
      <point x="16" y="-400" type="line"/>
      <point x="62" y="-418"/>
      <point x="114" y="-428"/>
    </contour>
  </outline>
</glyph>
<glyph name="approxequal" format="2">
  <advance width="804"/>
  <unicode hex="2248"/>
  <guideline x="426" y="126" angle="0"/>
  <guideline x="266" y="423" angle="0"/>
  <outline>
    <contour>
      <point x="554" y="600" type="curve" smooth="yes"/>
      <point x="666" y="600"/>
      <point x="728" y="686"/>
      <point x="734" y="844" type="curve"/>
      <point x="592" y="844" type="line"/>
      <point x="592" y="790"/>
      <point x="568" y="758"/>
      <point x="528" y="758" type="curve" smooth="yes"/>
      <point x="436" y="758"/>
      <point x="378" y="846"/>
      <point x="250" y="846" type="curve" smooth="yes"/>
      <point x="138" y="846"/>
      <point x="76" y="760"/>
      <point x="70" y="602" type="curve"/>
      <point x="212" y="602" type="line"/>
      <point x="212" y="656"/>
      <point x="236" y="688"/>
      <point x="276" y="688" type="curve" smooth="yes"/>
      <point x="374" y="688"/>
      <point x="430" y="600"/>
    </contour>
    <contour>
      <point x="554" y="292" type="curve" smooth="yes"/>
      <point x="666" y="292"/>
      <point x="728" y="378"/>
      <point x="734" y="536" type="curve"/>
      <point x="592" y="536" type="line"/>
      <point x="592" y="482"/>
      <point x="568" y="450"/>
      <point x="528" y="450" type="curve" smooth="yes"/>
      <point x="436" y="450"/>
      <point x="378" y="538"/>
      <point x="250" y="538" type="curve" smooth="yes"/>
      <point x="138" y="538"/>
      <point x="76" y="452"/>
      <point x="70" y="294" type="curve"/>
      <point x="212" y="294" type="line"/>
      <point x="212" y="348"/>
      <point x="236" y="380"/>
      <point x="276" y="380" type="curve" smooth="yes"/>
      <point x="374" y="380"/>
      <point x="430" y="292"/>
    </contour>
  </outline>
</glyph>
<glyph name="notequal" format="2">
  <advance width="776"/>
  <unicode hex="2260"/>
  <guideline x="35" y="160" angle="90"/>
  <guideline x="353" y="394" angle="90"/>
  <outline>
    <contour>
      <point x="118" y="200" type="line"/>
      <point x="270" y="200" type="line"/>
      <point x="658" y="908" type="line"/>
      <point x="506" y="908" type="line"/>
    </contour>
    <component base="equal"/>
  </outline>
</glyph>
<glyph name="lessequal" format="2">
  <advance width="710"/>
  <unicode hex="2264"/>
  <outline>
    <contour>
      <point x="670" y="336" type="line"/>
      <point x="670" y="496" type="line"/>
      <point x="208" y="688" type="line"/>
      <point x="670" y="880" type="line"/>
      <point x="670" y="1040" type="line"/>
      <point x="60" y="774" type="line"/>
      <point x="60" y="602" type="line"/>
    </contour>
    <contour>
      <point x="60" y="120" type="line"/>
      <point x="670" y="120" type="line"/>
      <point x="670" y="260" type="line"/>
      <point x="60" y="260" type="line"/>
    </contour>
  </outline>
</glyph>
<glyph name="lozenge" format="2">
  <advance width="976"/>
  <unicode hex="25CA"/>
  <outline>
    <contour>
      <point x="428" y="0" type="line"/>
      <point x="548" y="0" type="line"/>
      <point x="956" y="700" type="line"/>
      <point x="548" y="1400" type="line"/>
      <point x="428" y="1400" type="line"/>
      <point x="20" y="700" type="line"/>
    </contour>
    <contour>
      <point x="448" y="186" type="line"/>
      <point x="528" y="186" type="line"/>
      <point x="230" y="700" type="line"/>
      <point x="528" y="1214" type="line"/>
      <point x="448" y="1214" type="line"/>
      <point x="746" y="700" type="line"/>
    </contour>
  </outline>
</glyph>
<glyph name="A.sc" format="2">
  <advance width="1030"/>
  <outline>
    <contour>
      <point x="58" y="0" type="line"/>
      <point x="248" y="0" type="line"/>
      <point x="338" y="282" type="line"/>
      <point x="692" y="282" type="line"/>
      <point x="784" y="0" type="line"/>
      <point x="972" y="0" type="line"/>
      <point x="604" y="1120" type="line"/>
      <point x="428" y="1120" type="line"/>
    </contour>
    <contour>
      <point x="400" y="458" type="line"/>
      <point x="514" y="836" type="line"/>
      <point x="630" y="458" type="line"/>
    </contour>
  </outline>
</glyph>
<glyph name="AE.sc" format="2">
  <advance width="1390"/>
  <outline>
    <contour>
      <point x="38" y="0" type="line"/>
      <point x="226" y="0" type="line"/>
      <point x="348" y="276" type="line"/>
      <point x="642" y="276" type="line"/>
      <point x="642" y="0" type="line"/>
      <point x="1288" y="0" type="line"/>
      <point x="1288" y="176" type="line"/>
      <point x="832" y="176" type="line"/>
      <point x="832" y="496" type="line"/>
      <point x="1172" y="496" type="line"/>
      <point x="1172" y="672" type="line"/>
      <point x="832" y="672" type="line"/>
      <point x="832" y="942" type="line"/>
      <point x="1274" y="942" type="line"/>
      <point x="1274" y="1120" type="line"/>
      <point x="544" y="1120" type="line"/>
    </contour>
    <contour>
      <point x="432" y="456" type="line"/>
      <point x="642" y="938" type="line"/>
      <point x="642" y="456" type="line"/>
    </contour>
  </outline>
</glyph>
